<svg width="29" height="30" viewBox="0 0 29 30" fill="none" xmlns="http://www.w3.org/2000/svg">
<path d="M25.5476 0H3.45238C1.54667 0 0 1.6 0 3.57143V26.4286C0 28.4 1.54667 30 3.45238 30H25.5476C27.4533 30 29 28.4 29 26.4286V3.57143C29 1.6 27.4533 0 25.5476 0ZM22.7857 10.7143H21.4048C19.9271 10.7143 19.3333 11.0714 19.3333 12.1429V14.2857H22.7857L22.0952 17.8571H19.3333V28.5714H15.881V17.8571H13.119V14.2857H15.881V12.1429C15.881 9.28571 17.2619 7.14286 20.0238 7.14286C22.0262 7.14286 22.7857 7.85714 22.7857 7.85714V10.7143Z" fill="#BABABA"/>
</svg>
