<svg width="20" height="40" viewBox="0 0 20 40" fill="none" xmlns="http://www.w3.org/2000/svg">
<path opacity="0.986" fill-rule="evenodd" clip-rule="evenodd" d="M9.25488 4.15571e-05C9.62414 4.1541e-05 9.99332 4.15248e-05 10.3626 4.15087e-05C10.5421 0.115352 10.7267 0.23254 10.9164 0.351604C13.6967 3.17496 16.5055 5.97441 19.3429 8.75003C19.8057 9.61066 19.687 10.3789 18.9869 11.0547C18.3539 11.4193 17.7209 11.4193 17.0879 11.0547C15.2022 9.19277 13.3164 7.33074 11.4307 5.46878C11.4044 16.6406 11.378 27.8125 11.3516 38.9844C11.1654 39.4676 10.8357 39.8061 10.3626 40C9.99333 40 9.62414 40 9.25488 40C8.78173 39.8061 8.45203 39.4676 8.26586 38.9844C8.23951 27.8125 8.21309 16.6406 8.18674 5.46878C6.30103 7.33074 4.41524 9.19277 2.52953 11.0547C1.54534 11.5635 0.740985 11.3682 0.116318 10.4688C-0.0803782 9.86777 -0.027604 9.2948 0.274562 8.75003C3.11195 5.97441 5.92077 3.17496 8.70103 0.351604C8.89076 0.23254 9.07535 0.115352 9.25488 4.15571e-05Z" fill="#1A2E47"/>
</svg>
