<svg width="20" height="40" viewBox="0 0 20 40" fill="none" xmlns="http://www.w3.org/2000/svg">
<path opacity="0.986" fill-rule="evenodd" clip-rule="evenodd" d="M10.7451 40C10.3759 40 10.0067 40 9.63741 40C9.45789 39.8846 9.27329 39.7675 9.08356 39.6484C6.3033 36.825 3.49448 34.0256 0.657093 31.25C0.194312 30.3893 0.312994 29.6211 1.01314 28.9453C1.64612 28.5807 2.27909 28.5807 2.91206 28.9453C4.79777 30.8072 6.68356 32.6693 8.56927 34.5312C8.59562 23.3594 8.62204 12.1875 8.64839 1.01562C8.83456 0.53245 9.16426 0.193909 9.63741 1.22016e-07C10.0067 1.17668e-07 10.3759 1.13321e-07 10.7451 1.08973e-07C11.2183 0.193908 11.548 0.53245 11.7341 1.01562C11.7605 12.1875 11.7869 23.3594 11.8133 34.5312C13.699 32.6693 15.5848 30.8072 17.4705 28.9453C18.4547 28.4365 19.259 28.6318 19.8837 29.5312C20.0804 30.1322 20.0276 30.7052 19.7254 31.25C16.8881 34.0256 14.0792 36.825 11.299 39.6484C11.1092 39.7675 10.9246 39.8846 10.7451 40Z" fill="#1A2E47"/>
</svg>
