<svg width="30" height="30" viewBox="0 0 30 30" fill="none" xmlns="http://www.w3.org/2000/svg">
<g clip-path="url(#clip0_1_2787)">
<path opacity="0.985" fill-rule="evenodd" clip-rule="evenodd" d="M6.5332 -0.0292969C12.1582 -0.0292969 17.7832 -0.0292969 23.4082 -0.0292969C27.0609 0.693709 29.2484 2.88121 29.9707 6.5332C29.9707 12.1582 29.9707 17.7832 29.9707 23.4082C29.2481 27.0605 27.0605 29.2481 23.4082 29.9707C17.7832 29.9707 12.1582 29.9707 6.5332 29.9707C2.88086 29.2481 0.693357 27.0605 -0.0292969 23.4082C-0.0292969 17.7832 -0.0292969 12.1582 -0.0292969 6.5332C0.693012 2.88121 2.88051 0.693709 6.5332 -0.0292969ZM7.06055 2.49023C12.334 2.48047 17.6075 2.49023 22.8809 2.51953C24.8583 2.75934 26.2548 3.78473 27.0703 5.5957C27.2614 6.08648 27.3786 6.59432 27.4219 7.11914C27.461 12.3535 27.461 17.5879 27.4219 22.8223C27.2055 24.8282 26.1802 26.2443 24.3457 27.0703C23.8729 27.252 23.3846 27.3692 22.8809 27.4219C17.6074 27.461 12.334 27.461 7.06055 27.4219C5.08307 27.1821 3.68659 26.1567 2.87109 24.3457C2.68004 23.8549 2.56285 23.3471 2.51953 22.8223C2.46211 17.4303 2.48164 12.0397 2.57812 6.65039C3.14529 4.25681 4.63943 2.8701 7.06055 2.49023ZM14.5605 9.99023C17.2666 9.99246 19.0147 11.2815 19.8047 13.8574C20.1883 15.9492 19.5536 17.6582 17.9004 18.9844C15.8285 20.318 13.7972 20.2594 11.8066 18.8086C10.0929 17.2174 9.61441 15.3131 10.3711 13.0957C11.1959 11.284 12.5924 10.2489 14.5605 9.99023Z" fill="#BABABA"/>
<path opacity="0.963" fill-rule="evenodd" clip-rule="evenodd" d="M22.7051 4.95112C24.276 4.91059 25.0279 5.6723 24.961 7.23628C24.5273 8.50307 23.6582 8.96204 22.3536 8.61323C21.4002 8.12239 21.0388 7.35089 21.2696 6.29878C21.5074 5.5897 21.986 5.14048 22.7051 4.95112Z" fill="#BABABA"/>
<path opacity="0.974" fill-rule="evenodd" clip-rule="evenodd" d="M14.0333 7.47067C16.7425 7.25029 18.9983 8.14871 20.8009 10.166C22.5825 12.5355 22.9535 15.1136 21.9142 17.9004C20.3173 21.1751 17.6904 22.6888 14.0333 22.4414C11.0947 21.9633 9.05364 20.352 7.9103 17.6074C6.8828 14.3042 7.6348 11.4819 10.1662 9.14059C11.3126 8.24486 12.6017 7.68822 14.0333 7.47067ZM14.5607 9.9902C12.5925 10.2488 11.196 11.284 10.3712 13.0957C9.61456 15.3131 10.0931 17.2174 11.8068 18.8086C13.7974 20.2593 15.8286 20.3179 17.9005 18.9843C19.5537 17.6581 20.1884 15.9491 19.8048 13.8574C19.0148 11.2815 17.2668 9.99242 14.5607 9.9902Z" fill="#BABABA"/>
</g>
<defs>
<clipPath id="clip0_1_2787">
<rect width="30" height="30" fill="white"/>
</clipPath>
</defs>
</svg>
