<svg width="38" height="30" viewBox="0 0 38 30" fill="none" xmlns="http://www.w3.org/2000/svg">
<path fill-rule="evenodd" clip-rule="evenodd" d="M11.6758 29.6995C25.6848 29.6995 33.3474 18.2716 33.3474 8.36267C33.3474 8.03737 33.3474 7.71451 33.3251 7.39286C34.8156 6.33287 36.102 5.01678 37.1248 3.51089C35.7363 4.11764 34.2606 4.51554 32.7515 4.69098C34.3404 3.75345 35.5303 2.28053 36.1002 0.542533C34.604 1.4161 32.9687 2.03262 31.2628 2.36343C28.3782 -0.655694 23.5538 -0.801971 20.4855 2.03804C18.5086 3.86924 17.6677 6.59953 18.2821 9.20378C12.1584 8.90042 6.45229 6.05314 2.58389 1.36914C0.562441 4.79578 1.59637 9.17779 4.94317 11.3782C3.73104 11.3434 2.54491 11.0221 1.48499 10.441V10.5361C1.48685 14.1054 4.04289 17.1786 7.59574 17.8859C6.47457 18.1874 5.29771 18.2311 4.15798 18.0137C5.15478 21.0693 8.01525 23.1623 11.2729 23.2226C8.57583 25.3096 5.24388 26.4429 1.81355 26.4393C1.20841 26.4374 0.603278 26.4027 0 26.3314C3.48416 28.5318 7.53634 29.6995 11.6758 29.694" fill="#BABABA"/>
</svg>
