<svg width="50" height="63" viewBox="0 0 50 63" fill="none" xmlns="http://www.w3.org/2000/svg">
<g clip-path="url(#clip0_621_488)">
<path d="M47.6545 36.977C47.1768 35.1914 45.9629 33.8922 44.3505 32.6855C41.7782 30.0407 40.9463 28.8572 39.6718 27.3611C39.1918 26.7983 38.7538 26.8215 38.4788 26.8747C38.0431 26.9604 37.7635 27.3819 37.6657 27.7154C37.5422 28.1393 37.675 28.533 37.8101 28.8456C38.12 29.5659 38.402 30.0407 38.6699 30.402C38.5651 30.4043 38.4602 30.4089 38.353 30.4182C37.9709 30.4483 37.6121 30.5085 37.2649 30.5849C36.5333 29.9921 35.7993 29.3968 35.0677 28.804C33.3971 27.4213 31.9967 26.6038 31.4398 26.5991C31.0647 26.5968 30.827 26.7474 30.827 26.7474C30.5801 26.9025 30.4682 27.1503 30.4403 27.2615C30.2958 27.866 31.6123 28.8179 32.8448 29.7674C33.3994 30.1935 34.1543 30.7887 35.056 31.5391C34.9815 31.5924 34.9139 31.6526 34.8417 31.7082C33.9749 31.0088 33.1058 30.3117 32.239 29.6122C30.3144 28.0351 28.7254 27.0693 28.1149 27.0276C27.7048 26.9975 27.4555 27.1411 27.4555 27.1411C27.1969 27.287 27.092 27.5417 27.071 27.6575C26.9569 28.2852 28.4644 29.3853 29.8787 30.4738C30.7105 31.113 31.9361 32.0787 33.418 33.334C33.3505 33.4475 33.2876 33.5633 33.2293 33.6791C32.8402 33.3618 32.4534 33.0468 32.0643 32.7295C30.6919 31.5831 29.5222 30.9254 29.0399 30.9532C28.716 30.9717 28.4994 31.1199 28.4994 31.1199C28.2757 31.2728 28.1662 31.4997 28.1359 31.6017C27.9774 32.1505 29.0655 32.931 30.0838 33.7138C30.6896 34.1793 31.5843 34.8903 32.6584 35.826C32.6584 35.826 32.6631 35.8214 32.6631 35.819C32.6561 35.9348 32.6538 36.0506 32.6561 36.1664C31.6449 35.5365 30.6756 34.9552 30.1024 34.6587C29.9463 34.5777 29.6038 34.4063 29.2636 34.492C28.9327 34.5754 28.7603 34.8672 28.7347 34.9065C28.7137 34.9436 28.6065 35.1358 28.6089 35.3489C28.6135 35.8422 29.203 36.3054 29.436 36.4837C30.4589 37.2665 32.1272 38.406 33.432 39.2814C34.1031 40.5552 35.1772 41.5441 36.5473 42.5099C38.3996 43.8161 40.2124 44.7054 42.2302 44.5734C44.2433 44.4368 45.7788 43.6401 46.8227 42.1741C47.8991 40.6664 48.1718 38.9294 47.6498 36.9747L47.6545 36.977ZM45.1404 40.9628C44.3645 42.049 43.2274 42.6419 41.7339 42.7415C40.238 42.8388 38.9239 42.1 37.5515 41.1319C36.2211 40.1939 35.2355 39.3115 34.837 37.8779C34.4339 36.442 34.625 35.1821 35.3986 34.096C36.1954 32.9773 37.3465 32.359 38.8563 32.2432C40.3615 32.1251 41.5591 32.7921 42.8896 33.7277C44.2643 34.6958 45.3664 35.6523 45.7555 37.1044C46.1423 38.5542 45.9396 39.8419 45.1404 40.9605V40.9628Z" fill="white"/>
<path d="M45.3663 12.2911C43.5722 11.8093 41.8316 12.2054 39.9769 12.9905C36.3864 13.8821 34.9394 14.0072 32.9985 14.3569C32.2669 14.4889 32.0688 14.8757 31.978 15.142C31.8335 15.5612 32.0618 16.0105 32.3065 16.2629C32.6141 16.5802 33.0241 16.6636 33.362 16.703C34.1449 16.7956 34.6994 16.791 35.1468 16.7424C35.0979 16.835 35.0489 16.9276 35.0023 17.0226C34.8369 17.3654 34.7111 17.7058 34.6039 18.0439C33.7208 18.3774 32.8377 18.7109 31.9523 19.0444C29.9136 19.7925 28.4992 20.5869 28.2173 21.0663C28.0286 21.3882 28.0402 21.6684 28.0402 21.6684C28.0519 21.9602 28.2126 22.1803 28.2965 22.259C28.7509 22.6851 30.2398 22.0274 31.6821 21.4415C32.3321 21.1774 33.2269 20.8254 34.3313 20.4248C34.3406 20.5151 34.3593 20.6054 34.3709 20.6934C33.3294 21.0918 32.2855 21.4878 31.244 21.8861C28.907 22.7546 27.2713 23.6393 26.9288 24.1419C26.6981 24.48 26.6958 24.7649 26.6958 24.7649C26.6958 25.0613 26.8636 25.2767 26.9544 25.3531C27.4461 25.7654 29.154 25.0173 30.813 24.3434C31.7869 23.9473 33.2408 23.3753 35.0746 22.7268C35.1398 22.8426 35.2074 22.9538 35.2796 23.0626C34.8089 23.2387 34.3406 23.4147 33.8699 23.5907C32.1853 24.1998 31.0273 24.8761 30.8106 25.3068C30.6638 25.594 30.6848 25.8557 30.6848 25.8557C30.7058 26.1244 30.8502 26.3328 30.9225 26.4092C31.3232 26.8192 32.5465 26.2726 33.7371 25.7885C34.4455 25.5014 35.5126 25.0845 36.864 24.6282C36.864 24.6259 36.864 24.6236 36.8617 24.6213C36.9596 24.6838 37.0574 24.744 37.1599 24.8019C36.1044 25.3578 35.1142 25.902 34.5713 26.2448C34.4222 26.3398 34.1006 26.5482 34.0074 26.884C33.9142 27.2106 34.082 27.5047 34.1053 27.5464C34.1262 27.5834 34.2404 27.771 34.4268 27.8752C34.8602 28.1184 35.5569 27.8428 35.8295 27.7293C37.0225 27.2407 38.8492 26.3722 40.2659 25.6866C41.7105 25.7469 43.1085 25.3161 44.637 24.619C46.7014 23.6764 48.3837 22.5624 49.2761 20.7583C50.1638 18.9587 50.236 17.238 49.4834 15.6052C48.7075 13.9261 47.3305 12.8237 45.3663 12.2911ZM47.5821 16.4482C48.1413 17.6572 48.0878 18.9333 47.4284 20.2696C46.7666 21.6059 45.4665 22.3679 43.9357 23.065C42.4538 23.7412 41.1909 24.1488 39.7439 23.776C38.2923 23.4031 37.2881 22.611 36.7289 21.3998C36.1534 20.1538 36.1907 18.8545 36.8454 17.4974C37.4955 16.1425 38.6745 15.4431 40.1564 14.7691C41.6872 14.0697 43.0712 13.5996 44.5321 13.991C45.9884 14.3847 47.009 15.2022 47.5845 16.4482H47.5821Z" fill="white"/>
<path d="M22.7134 1.91543C21.3969 3.21932 20.8703 4.91462 20.628 6.90404C19.6098 10.4405 18.9946 11.7491 18.3283 13.5949C18.0766 14.2897 18.3166 14.6556 18.503 14.8664C18.7966 15.1999 19.3022 15.2277 19.6424 15.1443C20.0734 15.0377 20.3507 14.7274 20.5534 14.4564C21.0264 13.8288 21.299 13.3494 21.4808 12.9395C21.5367 13.0275 21.5926 13.1178 21.6532 13.2058C21.8699 13.5208 22.1029 13.7987 22.3429 14.0604C22.1914 14.9868 22.04 15.9155 21.8909 16.8419C21.5227 18.9703 21.5087 20.5868 21.7837 21.0685C21.9678 21.3928 22.2194 21.5225 22.2194 21.5225C22.478 21.6568 22.7506 21.6313 22.8625 21.5966C23.4613 21.4183 23.6337 19.8086 23.8434 18.2732C23.939 17.583 24.0788 16.6334 24.2815 15.4847C24.3654 15.5218 24.4516 15.5519 24.5354 15.5843C24.3607 16.6798 24.1859 17.7752 24.0112 18.873C23.5988 21.3187 23.5545 23.1691 23.8201 23.7157C23.9995 24.0816 24.2489 24.2275 24.2489 24.2275C24.5052 24.3781 24.7778 24.341 24.8919 24.2993C25.4954 24.0839 25.7005 22.2381 25.9428 20.4733C26.0849 19.4381 26.3133 17.9003 26.6651 15.9966C26.7979 15.9966 26.9307 15.9966 27.0612 15.9873C26.9796 16.4806 26.8981 16.9716 26.8165 17.4649C26.5043 19.2204 26.516 20.5544 26.7816 20.9574C26.9587 21.2283 27.1963 21.3395 27.1963 21.3395C27.441 21.4553 27.695 21.4368 27.7975 21.4113C28.3544 21.2723 28.4918 19.9453 28.6642 18.6785C28.7691 17.9234 28.9392 16.8002 29.2165 15.406C29.2141 15.406 29.2118 15.406 29.2095 15.406C29.312 15.3527 29.4145 15.2971 29.517 15.2392C29.4728 16.425 29.4518 17.5506 29.4798 18.1898C29.4867 18.3658 29.51 18.7456 29.7524 18.9957C29.99 19.2389 30.3302 19.2435 30.3791 19.2435C30.4211 19.2435 30.6424 19.2389 30.8265 19.1324C31.2552 18.8823 31.3624 18.1435 31.402 17.8517C31.5721 16.5802 31.7306 14.5722 31.8401 13.0113C32.6136 11.7954 32.9398 10.378 33.096 8.71513C33.308 6.46864 33.1752 4.463 32.0521 2.79087C30.922 1.11642 29.4588 0.194661 27.66 0.0279108C25.8076 -0.143471 24.1603 0.48879 22.7157 1.91543H22.7134ZM27.4433 2.08681C28.7761 2.21187 29.8619 2.89509 30.696 4.1295C31.5302 5.36855 31.5418 6.86698 31.3857 8.53448C31.2343 10.1464 30.9593 11.4387 29.9085 12.4994C28.8576 13.5625 27.6647 14.0303 26.3319 13.9075C24.9595 13.7802 23.8434 13.097 22.9883 11.8579C22.1332 10.6212 22.1145 9.25707 22.266 7.64283C22.4221 5.97533 22.704 4.54869 23.7759 3.48798C24.8477 2.42958 26.0686 1.96175 27.4433 2.08913V2.08681Z" fill="white"/>
<path d="M2.34687 16.2258C2.82453 18.0114 4.03847 19.3107 5.65085 20.5173C8.2232 23.1622 9.05502 24.3456 10.3295 25.8417C10.8095 26.4045 11.2476 26.3814 11.5225 26.3281C11.9582 26.2424 12.2378 25.8209 12.3357 25.4874C12.4592 25.0636 12.3264 24.6699 12.1912 24.3572C11.8813 23.6369 11.5994 23.1622 11.3314 22.8009C11.4363 22.7986 11.5412 22.7939 11.6483 22.7847C12.0305 22.7545 12.3893 22.6943 12.7365 22.6179C13.4681 23.2108 14.202 23.806 14.9337 24.3989C16.6043 25.7815 18.0046 26.5991 18.5615 26.6037C18.9366 26.606 19.1743 26.4555 19.1743 26.4555C19.4213 26.3003 19.5331 26.0525 19.5611 25.9413C19.7056 25.3369 18.3891 24.385 17.1565 23.4354C16.602 23.0093 15.847 22.4141 14.9453 21.6637C15.0199 21.6105 15.0874 21.5502 15.1597 21.4947C16.0264 22.1941 16.8955 22.8912 17.7623 23.5906C19.6869 25.1678 21.276 26.1336 21.8865 26.1752C22.2965 26.2054 22.5459 26.0618 22.5459 26.0618C22.8045 25.9159 22.9093 25.6611 22.9303 25.5453C23.0445 24.9177 21.537 23.8176 20.1226 22.7291C19.2908 22.0899 18.0652 21.1241 16.5833 19.8688C16.6509 19.7554 16.7138 19.6396 16.7721 19.5238C17.1612 19.8411 17.548 20.156 17.9371 20.4733C19.3095 21.6197 20.4791 22.2775 20.9614 22.2497C21.2853 22.2311 21.502 22.0829 21.502 22.0829C21.7257 21.9301 21.8352 21.7031 21.8655 21.6012C22.0239 21.0523 20.9358 20.2718 19.9176 19.489C19.3118 19.0235 18.4171 18.3125 17.3429 17.3769C17.3429 17.3769 17.3383 17.3815 17.3383 17.3838C17.3452 17.268 17.3476 17.1522 17.3452 17.0364C18.3565 17.6664 19.3258 18.2477 19.8989 18.5441C20.0551 18.6252 20.3976 18.7965 20.7378 18.7109C21.0686 18.6275 21.241 18.3357 21.2667 18.2963C21.2876 18.2592 21.3948 18.067 21.3925 17.8539C21.3878 17.3606 20.7983 16.8975 20.5653 16.7191C19.5425 15.9363 17.8742 14.7969 16.5693 13.9214C15.8983 12.6476 14.8242 11.6587 13.4541 10.693C11.6017 9.38674 9.78897 8.49741 7.77117 8.62942C5.75803 8.76606 4.22254 9.56276 3.17869 11.0288C2.10222 12.5365 1.82961 14.2735 2.35153 16.2281L2.34687 16.2258ZM4.86097 12.24C5.63687 11.1538 6.77392 10.5609 8.26747 10.4614C9.76334 10.3641 11.0775 11.1029 12.4499 12.071C13.7803 13.0089 14.7659 13.8913 15.1643 15.3249C15.5674 16.7608 15.3764 18.0207 14.6028 19.1069C13.8059 20.2255 12.6549 20.8439 11.145 20.9597C9.63985 21.0778 8.44222 20.4108 7.11177 19.4751C5.73706 18.5071 4.63496 17.5506 4.24584 16.0984C3.85906 14.6486 4.06177 13.361 4.86097 12.2423V12.24Z" fill="white"/>
<path d="M4.63501 40.9141C6.42913 41.3959 8.16966 40.9998 10.0244 40.2147C13.6149 39.3231 15.0619 39.198 17.0028 38.8483C17.7344 38.7163 17.9325 38.3295 18.0233 38.0632C18.1678 37.644 17.9395 37.1947 17.6948 36.9422C17.3872 36.625 16.9772 36.5416 16.6393 36.5022C15.8564 36.4096 15.3019 36.4142 14.8545 36.4628C14.9034 36.3702 14.9524 36.2776 14.999 36.1826C15.1644 35.8398 15.2902 35.4994 15.3974 35.1613C16.2805 34.8278 17.1636 34.4943 18.049 34.1608C20.0877 33.4127 21.5021 32.6183 21.784 32.1389C21.9727 31.817 21.9611 31.5368 21.9611 31.5368C21.9494 31.2449 21.7887 31.0249 21.7048 30.9462C21.2504 30.52 19.7615 31.1778 18.3192 31.7637C17.6692 32.0277 16.7744 32.3798 15.67 32.7804C15.6607 32.6901 15.642 32.5998 15.6304 32.5118C16.6719 32.1134 17.7158 31.7174 18.7573 31.3191C21.0943 30.4506 22.73 29.5659 23.0725 29.0633C23.3032 28.7252 23.3055 28.4403 23.3055 28.4403C23.3055 28.1439 23.1377 27.9285 23.0469 27.852C22.5552 27.4398 20.8473 28.1879 19.1883 28.8618C18.2144 29.2578 16.7605 29.8299 14.9267 30.4784C14.8615 30.3626 14.7939 30.2514 14.7217 30.1425C15.1924 29.9665 15.6607 29.7905 16.1314 29.6145C17.816 29.0054 18.974 28.3291 19.1907 27.8984C19.3375 27.6112 19.3165 27.3495 19.3165 27.3495C19.2955 27.0808 19.1511 26.8724 19.0788 26.796C18.6781 26.386 17.4548 26.9326 16.2642 27.4166C15.5558 27.7038 14.4887 28.1207 13.1373 28.5769C13.1373 28.5793 13.1373 28.5816 13.1396 28.5839C13.0417 28.5214 12.9439 28.4611 12.8414 28.4032C13.8969 27.8474 14.8871 27.3032 15.43 26.9604C15.5791 26.8654 15.9007 26.657 15.9939 26.3212C16.0871 25.9946 15.9193 25.7005 15.896 25.6588C15.8751 25.6218 15.7609 25.4342 15.5745 25.3299C15.1411 25.0868 14.4444 25.3624 14.1718 25.4759C12.9788 25.9645 11.1521 26.833 9.73544 27.5185C8.29082 27.4583 6.89281 27.8891 5.36431 28.5862C3.29991 29.5288 1.61763 30.6428 0.725233 32.4469C-0.162506 34.2465 -0.234737 35.9672 0.517861 37.6C1.29376 39.2791 2.6708 40.3815 4.63501 40.9141ZM2.41916 36.757C1.85996 35.548 1.91355 34.2719 2.57294 32.9356C3.23467 31.5993 4.53482 30.8373 6.06565 30.1402C7.54754 29.464 8.81042 29.0564 10.2574 29.4292C11.709 29.8021 12.7132 30.5942 13.2724 31.8054C13.8479 33.0514 13.8107 34.3507 13.1559 35.7078C12.5058 37.0627 11.3268 37.7621 9.84495 38.436C8.31412 39.1355 6.93009 39.6056 5.46916 39.2142C4.0129 38.8205 2.99235 38.003 2.41683 36.757H2.41916Z" fill="white"/>
<path d="M27.2872 51.2896C28.6036 49.9857 29.1302 48.2904 29.3726 46.301C30.3908 42.7645 31.0059 41.456 31.6723 39.6101C31.9239 38.9153 31.6839 38.5494 31.4975 38.3387C31.204 38.0052 30.6983 37.9774 30.3582 38.0607C29.9271 38.1673 29.6498 38.4776 29.4471 38.7486C28.9741 39.3762 28.7015 39.8556 28.5198 40.2655C28.4638 40.1775 28.4079 40.0872 28.3473 39.9992C28.1307 39.6842 27.8976 39.4063 27.6577 39.1446C27.8091 38.2182 27.9606 37.2895 28.1097 36.3631C28.4778 34.2347 28.4918 32.6182 28.2169 32.1365C28.0328 31.8122 27.7812 31.6825 27.7812 31.6825C27.5225 31.5482 27.2499 31.5737 27.1381 31.6084C26.5392 31.7868 26.3668 33.3964 26.1571 34.9319C26.0616 35.622 25.9218 36.5716 25.7191 37.7203C25.6352 37.6832 25.549 37.6531 25.4651 37.6207C25.6399 36.5252 25.8146 35.4298 25.9894 34.332C26.4018 31.8864 26.446 30.0359 26.1804 29.4893C26.001 29.1234 25.7517 28.9775 25.7517 28.9775C25.4954 28.8269 25.2228 28.864 25.1086 28.9057C24.5051 29.1211 24.3001 30.9669 24.0578 32.7317C23.9156 33.7669 23.6873 35.3047 23.3355 37.2085C23.2027 37.2085 23.0698 37.2085 22.9394 37.2177C23.0209 36.7244 23.1025 36.2334 23.184 35.7401C23.4962 33.9846 23.4846 32.6506 23.219 32.2476C23.0419 31.9767 22.8042 31.8655 22.8042 31.8655C22.5596 31.7497 22.3056 31.7682 22.2031 31.7937C21.6462 31.9327 21.5087 33.2597 21.3363 34.5266C21.2315 35.2816 21.0614 36.4048 20.7841 37.799C20.7864 37.799 20.7887 37.799 20.7911 37.799C20.6886 37.8523 20.586 37.9079 20.4835 37.9658C20.5278 36.78 20.5488 35.6544 20.5208 35.0152C20.5138 34.8392 20.4905 34.4594 20.2482 34.2093C20.0105 33.9661 19.6703 33.9615 19.6214 33.9615C19.5795 33.9615 19.3581 33.9661 19.174 34.0726C18.7453 34.3228 18.6381 35.0615 18.5985 35.3534C18.4284 36.6248 18.27 38.6328 18.1605 40.1938C17.3869 41.4096 17.0607 42.827 16.9046 44.4899C16.6926 46.7364 16.8254 48.742 17.9484 50.4141C19.0738 52.0793 20.5371 53.0011 22.3359 53.1678C24.1883 53.3392 25.8356 52.707 27.2802 51.2803L27.2872 51.2896ZM22.5572 51.1182C21.2245 50.9931 20.1387 50.3099 19.3045 49.0755C18.4704 47.8365 18.4587 46.338 18.6148 44.6705C18.7663 43.0586 19.0412 41.7663 20.0921 40.7056C21.1429 39.6425 22.3359 39.1747 23.6687 39.2975C25.041 39.4248 26.1571 40.1081 27.0122 41.3471C27.8674 42.5838 27.886 43.9479 27.7345 45.5622C27.5784 47.2297 27.2965 48.6563 26.2247 49.717C25.1529 50.7754 23.9319 51.2433 22.5572 51.1159V51.1182Z" fill="white"/>
<path d="M14.4842 55.7364C14.4725 55.5998 14.5191 55.4793 14.6286 55.3728C14.7358 55.2663 14.8709 55.2315 15.034 55.2176C15.1972 55.2037 15.3486 55.213 15.4721 55.301C15.5956 55.3867 15.6632 55.4979 15.6771 55.6345C15.6911 55.7712 15.6399 55.8846 15.5327 55.9889C15.4255 56.0931 15.2787 56.1278 15.1109 56.144C14.9432 56.1602 14.8127 56.144 14.6892 56.063C14.5657 55.9796 14.4981 55.8707 14.4865 55.7387L14.4842 55.7364Z" fill="white"/>
<path d="M35.3958 55.7364C35.3841 55.5998 35.4307 55.4793 35.5402 55.3728C35.6474 55.2663 35.7826 55.2315 35.9457 55.2176C36.1088 55.2037 36.2602 55.213 36.3837 55.301C36.5072 55.3867 36.5748 55.4979 36.5888 55.6345C36.6027 55.7712 36.5515 55.8846 36.4443 55.9889C36.3371 56.0931 36.1903 56.1278 36.0226 56.144C35.8548 56.1602 35.7243 56.144 35.6008 56.063C35.4773 55.9796 35.4098 55.8707 35.3981 55.7387L35.3958 55.7364Z" fill="white"/>
<path d="M5.39904 59.8195C5.26856 59.7245 5.15206 59.5694 5.04721 59.354L4.48567 58.1844L3.63755 56.4196L3.05504 55.2061H2.79874L2.29545 56.2992L2.09041 56.7439L1.43101 58.1775L1.21665 58.6453L1.04889 59.0089C0.944037 59.2243 0.843846 59.4026 0.743655 59.5369C0.643464 59.6736 0.536283 59.7732 0.419781 59.838C0.30328 59.9005 0.163479 59.9469 -0.00195312 59.9746V60.2502C0.154159 60.241 0.30328 60.234 0.443082 60.2317C0.582883 60.2317 0.727345 60.2294 0.878796 60.2294C1.00229 60.2294 1.12578 60.2294 1.24694 60.2317C1.37043 60.234 1.50091 60.2364 1.64071 60.2387C1.78052 60.241 1.93197 60.2456 2.09274 60.2502V59.9746C1.81314 59.9607 1.61042 59.9075 1.48227 59.8148C1.35412 59.7222 1.29121 59.5832 1.29121 59.3957C1.29121 59.2405 1.34014 59.0529 1.43101 58.8398C1.78751 59.1085 2.22089 59.1826 2.72651 59.1826C3.08766 59.1826 3.40687 59.1409 3.69114 59.0135L3.84026 59.3262C3.92414 59.4906 3.95909 59.618 3.94278 59.7106C3.92647 59.801 3.85657 59.8658 3.73774 59.9052C3.61658 59.9422 3.43716 59.9654 3.19484 59.9746V60.2502C3.31367 60.241 3.49075 60.234 3.73075 60.2317C3.96841 60.2317 4.25733 60.2294 4.59286 60.2294C4.8911 60.2294 5.15439 60.2294 5.3804 60.2317C5.60642 60.234 5.79748 60.241 5.94893 60.2502V59.9746C5.71127 59.9654 5.52953 59.9144 5.39904 59.8195ZM2.72418 58.7866C2.33273 58.7866 1.99488 58.7518 1.7246 58.5295C1.68498 58.4971 1.65469 58.46 1.61974 58.4253L2.41428 56.6836L2.49816 56.4984L2.58204 56.6744L3.51405 58.6406C3.28338 58.7611 3.02242 58.7866 2.72185 58.7866H2.72418Z" fill="white"/>
<path d="M13.2677 59.2706C13.2024 59.4443 13.1185 59.5739 13.0183 59.6619C12.9205 59.7476 12.7923 59.7917 12.6432 59.7917C12.4731 59.7917 12.3496 59.7453 12.2704 59.655C12.1912 59.5624 12.1539 59.4118 12.1539 59.1988V56.7994C12.2098 56.7878 12.2681 56.7739 12.3263 56.7577C12.4941 56.7137 12.6479 56.6581 12.797 56.5979V56.1602C12.6292 56.2528 12.4382 56.32 12.2285 56.3756C12.2028 56.3825 12.1795 56.3872 12.1562 56.3941V55.3496C12.0141 55.3959 11.8627 55.4307 11.6996 55.4492C11.5365 55.4677 11.3617 55.477 11.1776 55.477V56.3432C11.0332 56.269 10.9167 56.1764 10.8281 56.0652V56.6466C10.8794 56.6767 10.926 56.7091 10.9842 56.7346C11.0495 56.7647 11.1147 56.7855 11.18 56.804V58.9741C11.18 59.4072 11.2755 59.7291 11.4712 59.9376C11.6646 60.146 11.9535 60.2502 12.338 60.2502C12.6455 60.2502 12.8902 60.1807 13.0719 60.0395C13.2537 59.8982 13.3981 59.6689 13.5007 59.347L13.2747 59.2682L13.2677 59.2706Z" fill="white"/>
<path d="M13.9808 60.2502V59.9676C14.2511 59.963 14.4375 59.9236 14.5401 59.8518C14.6426 59.78 14.6915 59.6457 14.6915 59.4465V57.4317C14.6915 57.2209 14.6426 57.0634 14.5424 56.9615C14.4445 56.8596 14.2558 56.804 13.9785 56.7948V56.5122C14.0764 56.5168 14.1742 56.5215 14.2768 56.5261C14.3793 56.5307 14.4818 56.5331 14.589 56.5331C14.7964 56.5331 14.9944 56.5238 15.1785 56.5076C15.3625 56.4914 15.535 56.4659 15.6957 56.4312V59.4442C15.6957 59.6411 15.7517 59.7777 15.8635 59.8495C15.9753 59.9213 16.1641 59.9607 16.4297 59.9653V60.2479C16.3575 60.2432 16.2549 60.2386 16.1245 60.2363C15.994 60.2363 15.8495 60.2294 15.6888 60.2247C15.528 60.2201 15.3672 60.2178 15.2018 60.2178C14.9781 60.2178 14.7474 60.2224 14.5121 60.2293C14.2744 60.2363 14.0973 60.2432 13.9808 60.2479V60.2502Z" fill="white"/>
<path d="M34.8926 60.3268V60.0396C35.1699 60.0349 35.3586 59.9956 35.4634 59.9215C35.5683 59.8473 35.6195 59.7107 35.6195 59.5092V57.4549C35.6195 57.2396 35.5683 57.0798 35.4681 56.9755C35.3679 56.8736 35.1768 56.8157 34.8926 56.8065V56.5193C34.9904 56.5239 35.093 56.5286 35.1955 56.5332C35.3003 56.5378 35.4052 56.5401 35.5147 56.5401C35.7267 56.5401 35.9271 56.5309 36.1158 56.5147C36.3046 56.4984 36.4793 56.473 36.6424 56.4382V59.5092C36.6424 59.7107 36.6983 59.8473 36.8125 59.9215C36.9267 59.9956 37.1178 60.0349 37.3904 60.0396V60.3268C37.3158 60.3221 37.2133 60.3175 37.0781 60.3152C36.9453 60.3152 36.7962 60.3082 36.6331 60.3036C36.47 60.299 36.3046 60.2966 36.1368 60.2966C35.9085 60.2966 35.6755 60.3013 35.4331 60.3082C35.1908 60.3152 35.0114 60.3221 34.8926 60.3268Z" fill="white"/>
<path d="M27.2519 59.852C27.1494 59.7779 27.1005 59.6435 27.1005 59.4513V58.4763C27.1005 58.4392 27.1052 58.4045 27.1052 58.3651C27.1052 58.3304 27.1005 58.3003 27.1005 58.2679C27.0888 57.7722 27.0073 57.3345 26.7207 56.9894C26.4271 56.6328 26.073 56.4544 25.6605 56.4429C25.6466 56.4429 25.6349 56.4382 25.6209 56.4382C25.1829 56.4382 24.8101 56.6258 24.5048 56.9894C24.5025 56.9918 24.5002 56.9941 24.4979 56.9964C24.4792 57.0195 24.4676 57.045 24.4513 57.0705C24.4326 57.045 24.421 57.0149 24.4 56.9894C24.0948 56.6212 23.729 56.4382 23.3002 56.4382C23.2629 56.4382 23.2257 56.4475 23.1884 56.4498C22.8202 56.4799 22.501 56.642 22.2307 56.9408V56.4452C22.0723 56.4799 21.8999 56.5031 21.7205 56.5216C21.5387 56.5378 21.3477 56.5471 21.145 56.5471C21.0331 56.5471 20.9259 56.5448 20.8211 56.5401C20.7162 56.5355 20.616 56.5309 20.5205 56.5262V56.8065C20.7861 56.8157 20.9702 56.869 21.0751 56.964C21.1799 57.0612 21.2312 57.2187 21.2312 57.4387V59.449C21.2312 59.6412 21.1799 59.7756 21.0751 59.8497C20.9702 59.9238 20.7861 59.9631 20.5205 59.9678V60.248C20.665 60.2434 20.8537 60.2364 21.082 60.2295C21.3127 60.2225 21.5317 60.2179 21.7461 60.2179C21.9255 60.2179 22.1003 60.2225 22.275 60.2295C22.4498 60.2364 22.5942 60.2434 22.7107 60.248V59.9678C22.5616 59.9631 22.4591 59.9307 22.3869 59.8844C22.3519 59.8543 22.3216 59.8196 22.289 59.7871C22.2517 59.7107 22.2331 59.5972 22.2331 59.449V57.9135C22.2634 57.7004 22.3263 57.5082 22.4637 57.3415C22.6874 57.0728 22.9577 56.9362 23.2746 56.9292C23.3678 56.9616 23.447 57.0149 23.5076 57.0937C23.6125 57.228 23.666 57.4341 23.666 57.7143V59.4513C23.666 59.5416 23.6567 59.6181 23.6427 59.6829C23.6264 59.7547 23.6008 59.8126 23.5659 59.852C23.4983 59.9261 23.3771 59.9655 23.2047 59.9701V60.2503C23.2956 60.2457 23.4354 60.2387 23.6218 60.2318C23.8082 60.2249 23.9992 60.2202 24.1973 60.2202C24.3674 60.2202 24.5468 60.2249 24.7402 60.2318C24.9336 60.2387 25.071 60.2457 25.1526 60.2503V59.9701C24.9685 59.9655 24.8427 59.9261 24.7751 59.852C24.7076 59.7779 24.6726 59.6435 24.6726 59.4513V59.178C24.6726 59.178 24.6773 59.1688 24.6773 59.1618C24.6773 59.1595 24.6726 59.1572 24.6726 59.1526V57.7931C24.6726 57.7051 24.6656 57.6263 24.6563 57.5453C24.661 57.536 24.6656 57.5291 24.6703 57.5221C24.7029 57.4596 24.7355 57.3994 24.7845 57.3415C25.0128 57.0682 25.2901 56.9292 25.6186 56.9269C25.6629 56.9269 25.7048 56.9362 25.7491 56.9408C25.8283 56.9755 25.8935 57.0242 25.9448 57.0937C26.0497 57.228 26.1009 57.4341 26.1009 57.7143V59.4513C26.1009 59.5231 26.0916 59.581 26.0823 59.6366C26.066 59.7292 26.0427 59.8057 26.0007 59.852C25.9332 59.9261 25.8097 59.9655 25.6303 59.9701V60.2503C25.7235 60.2457 25.8586 60.2387 26.0403 60.2318C26.2221 60.2249 26.4178 60.2202 26.6322 60.2202C26.7766 60.2202 26.9281 60.2225 27.0819 60.2272C27.238 60.2318 27.3801 60.2364 27.5129 60.2387C27.6457 60.2411 27.7482 60.2457 27.8205 60.2503V59.9701C27.5455 59.9655 27.3568 59.9261 27.2543 59.852H27.2519Z" fill="white"/>
<path d="M34.0234 57.0218C33.7112 56.6535 33.336 56.4705 32.9027 56.4775C32.4553 56.4844 32.0778 56.679 31.7703 57.0565C31.7004 57.1422 31.6444 57.2325 31.5978 57.3275V54.4302C31.4464 54.4649 31.274 54.4904 31.0829 54.5066C30.8918 54.5228 30.6868 54.5321 30.4654 54.5321C30.3676 54.5321 30.2627 54.5298 30.1532 54.5251C30.0437 54.5205 29.9435 54.5159 29.855 54.5112V54.7961C30.1346 54.8054 30.3256 54.8609 30.4282 54.9605C30.5307 55.0601 30.5819 55.2199 30.5819 55.4376V59.2752C30.5819 59.3979 30.575 59.5022 30.561 59.5925C30.547 59.6828 30.5214 59.7615 30.4911 59.8287C30.4585 59.8959 30.4119 59.9607 30.3489 60.0186L30.54 60.2595C30.6425 60.1877 30.7497 60.1182 30.8639 60.0557C30.9757 59.9931 31.0969 59.9445 31.2274 59.9144C31.3578 59.882 31.4813 59.8634 31.5978 59.8588V59.4489C31.6538 59.5647 31.7237 59.6759 31.8145 59.7801C32.1337 60.1506 32.5182 60.3313 32.9656 60.3243C33.3989 60.3174 33.7671 60.1252 34.0677 59.7453C34.3682 59.3678 34.4381 58.9347 34.4288 58.409C34.4195 57.8671 34.3356 57.39 34.0234 57.0218ZM33.7694 59.3979C33.5457 59.6805 33.2731 59.8218 32.9516 59.8287C32.6207 59.8333 32.3365 59.699 32.0988 59.4257C31.8611 59.1524 31.8215 58.8259 31.8145 58.4368C31.8075 58.0338 31.8378 57.6864 32.0662 57.4039C32.2945 57.1237 32.5741 56.9801 32.905 56.9731C33.2265 56.9685 33.5038 57.1028 33.7368 57.3761C33.9698 57.6494 34.0117 58.0084 34.0187 58.4113C34.0257 58.8004 33.9931 59.1154 33.7694 59.3979Z" fill="white"/>
<path d="M40.9969 57.7051H40.9736C40.9736 57.7051 40.9736 57.719 40.976 57.7259C40.983 57.7213 40.9899 57.712 40.9969 57.7051Z" fill="white"/>
<path d="M41.8125 57.3461C41.731 57.1979 41.6261 57.0774 41.5049 56.9709C41.3069 56.7949 41.0646 56.6698 40.764 56.6096C40.6079 56.5772 40.4541 56.5749 40.3003 56.5911C40.0999 56.6119 39.9019 56.6721 39.7015 56.7555V56.4382C39.4056 56.5077 39.0444 56.5425 38.6204 56.5425C38.5015 56.5425 38.392 56.5401 38.2895 56.5355C38.187 56.5309 38.0752 56.5262 37.9517 56.5216V56.8088C38.2196 56.8181 38.406 56.8736 38.5155 56.9709C38.5365 56.9894 38.5528 57.0126 38.5691 57.0358C38.6413 57.1353 38.6786 57.2743 38.6786 57.4573V59.5115C38.6786 59.7084 38.6274 59.845 38.5272 59.9215C38.427 59.9979 38.2336 60.0373 37.9517 60.0419V60.3291C38.0705 60.3244 38.2476 60.3175 38.4829 60.3105C38.7182 60.3036 38.9606 60.299 39.2122 60.299C39.3893 60.299 39.5734 60.3013 39.7598 60.3059C39.9485 60.3105 40.1232 60.3152 40.291 60.3175C40.4564 60.3198 40.5892 60.3244 40.6871 60.3291V60.0419C40.3166 60.0373 40.0603 59.9909 39.9159 59.9029C39.8087 59.8381 39.7411 59.7362 39.7155 59.6019C39.7062 59.5555 39.7015 59.5069 39.7015 59.4536V57.2118C39.8739 57.1284 40.0417 57.0659 40.2118 57.0381C40.3353 57.0172 40.4588 57.0103 40.5869 57.0358C40.5962 57.0358 40.6056 57.0427 40.6149 57.045C40.9574 57.1214 41.209 57.2998 41.3651 57.5846C41.3838 57.6194 41.3954 57.6541 41.4071 57.6889C41.4141 57.6889 41.4234 57.6842 41.4304 57.6842C41.5865 57.6472 41.7426 57.6101 41.9011 57.5731C41.8754 57.4989 41.8498 57.4248 41.8125 57.353V57.3461Z" fill="white"/>
<path d="M41.3933 57.7931C41.3933 57.7931 41.4073 57.7792 41.4143 57.7722H41.3887C41.3887 57.7722 41.3887 57.7861 41.391 57.7931H41.3933Z" fill="white"/>
<path d="M46.221 56.5956C46.1231 56.5053 45.9857 56.459 45.8109 56.459C45.6222 56.459 45.4404 56.5099 45.261 56.6142C45.1538 56.6767 45.063 56.7485 44.9814 56.8319C44.9558 56.8087 44.9302 56.7855 44.9022 56.7647C44.6296 56.5609 44.2498 56.459 43.7628 56.459C43.2758 56.459 42.8984 56.5632 42.6188 56.7693C42.3392 56.9754 42.1994 57.2696 42.1994 57.654C42.1994 58.0385 42.3392 58.3187 42.6188 58.5248C42.7865 58.6476 42.9939 58.7286 43.2339 58.7796C43.0032 58.9047 42.8308 59.0343 42.7166 59.1687C42.6118 59.2937 42.5559 59.4304 42.5442 59.5763C42.3485 59.6875 42.1784 59.831 42.0409 60.0256C41.7613 60.417 41.6774 60.8246 41.7916 61.2484C41.9011 61.6607 42.1737 61.9641 42.6118 62.1586C43.0475 62.3555 43.4809 62.3184 43.9842 62.1841C44.5038 62.0474 44.9418 61.8529 45.2237 61.4684C45.5033 61.084 45.5895 60.6833 45.48 60.2734C45.3659 59.8496 45.0886 59.5369 44.6529 59.3354C44.2288 59.1409 43.7791 59.1779 43.2805 59.3053C43.2549 59.2683 43.2409 59.2243 43.2409 59.1733C43.2409 59.1015 43.2595 59.0367 43.2991 58.9788C43.3341 58.9278 43.3923 58.8745 43.4739 58.819C43.5671 58.8282 43.6603 58.8352 43.7628 58.8352C44.2498 58.8352 44.6296 58.7333 44.9022 58.5295C45.1748 58.3257 45.3123 58.0338 45.3123 57.6563C45.3123 57.4016 45.254 57.1885 45.1375 57.0148C45.1958 56.9569 45.254 56.9152 45.3099 56.8828C45.3659 56.8527 45.4101 56.8365 45.4428 56.8365C45.5057 56.8365 45.5499 56.8666 45.5756 56.9291C45.6012 56.9917 45.6292 57.0635 45.6548 57.1445C45.6827 57.2256 45.72 57.2974 45.7713 57.3599C45.8225 57.4224 45.8971 57.4525 45.9996 57.4525C46.1115 57.4525 46.2 57.4085 46.2676 57.3182C46.3352 57.2302 46.3678 57.1167 46.3678 56.9754C46.3678 56.8133 46.3188 56.686 46.2187 56.5933L46.221 56.5956ZM44.3896 59.6967C44.7135 59.8473 44.9185 60.0789 45.0024 60.3915C45.0839 60.6972 45.021 60.9913 44.8113 61.2785C44.6016 61.5634 44.2684 61.6908 43.8816 61.7927C43.5088 61.8923 43.1966 61.9363 42.8727 61.7927C42.5489 61.6468 42.3462 61.4221 42.2646 61.1164C42.1807 60.8014 42.2413 60.5004 42.4487 60.2085C42.656 59.9191 42.9589 59.8009 43.3318 59.7037C43.7185 59.6018 44.0587 59.5462 44.3849 59.6967H44.3896ZM44.2451 58.3326C44.1449 58.4831 43.9865 58.5596 43.7628 58.5596C43.5648 58.5596 43.4133 58.4831 43.3061 58.3326C43.1989 58.1821 43.1477 57.9551 43.1477 57.6517C43.1477 57.3483 43.2013 57.1005 43.3061 56.95C43.411 56.7994 43.5671 56.723 43.7698 56.723C43.9865 56.723 44.1449 56.7994 44.2428 56.95C44.3407 57.1005 44.3919 57.3344 44.3919 57.6517C44.3919 57.969 44.343 58.1798 44.2428 58.3326H44.2451Z" fill="white"/>
<path d="M49.7487 59.113C49.6205 59.3562 49.4621 59.5345 49.278 59.648C49.094 59.7615 48.8726 59.8194 48.614 59.8194C48.2505 59.8194 47.9709 59.6874 47.7775 59.421C47.5888 59.1639 47.4932 58.8026 47.4886 58.3418C47.5049 58.3557 47.5165 58.3696 47.5328 58.3835C47.8124 58.6035 48.134 58.6544 48.5208 58.6475C48.9215 58.6405 49.2734 58.5803 49.5483 58.351C49.6066 58.3024 49.6532 58.2514 49.6974 58.2005C49.8442 58.0291 49.9234 57.8369 49.9397 57.6261C49.9421 57.5937 49.9491 57.5659 49.9491 57.5335C49.9444 57.2069 49.7999 56.9313 49.5203 56.7067C49.2384 56.482 48.8936 56.4334 48.4928 56.438C48.4672 56.438 48.4462 56.4404 48.4206 56.4427C48.4019 56.4427 48.3856 56.4404 48.367 56.4404C47.9802 56.4404 47.6447 56.5168 47.3581 56.6719C47.0738 56.8271 46.8501 57.0495 46.687 57.339C46.5239 57.6284 46.4424 57.9805 46.4424 58.395C46.4424 58.8096 46.5193 59.1454 46.6684 59.4372C46.8198 59.7267 47.0319 59.9491 47.3068 60.0996C47.5818 60.2524 47.908 60.3289 48.2854 60.3289C48.6885 60.3289 49.0357 60.2386 49.3339 60.0579C49.6299 59.8773 49.8512 59.6179 49.9933 59.2797L49.7417 59.1153L49.7487 59.113ZM48.5208 58.3464C48.2575 58.351 48.0431 58.3256 47.8474 58.2005C47.8287 58.1889 47.8078 58.1796 47.7915 58.1658C47.6959 58.0893 47.6237 58.006 47.5701 57.9156C47.5445 57.8716 47.5258 57.8253 47.5095 57.779C47.5538 57.4547 47.64 57.2 47.7728 57.024C47.8404 56.936 47.915 56.8688 47.9918 56.8179C48.1433 56.76 48.3111 56.7414 48.4998 56.7391C48.798 56.7345 49.0543 56.7553 49.264 56.9221C49.4714 57.0888 49.5786 57.2926 49.5833 57.5358C49.5879 57.772 49.4877 57.9735 49.285 58.1426C49.2571 58.1658 49.2221 58.182 49.1918 58.2005C49.0031 58.314 48.7747 58.3441 48.5184 58.3464H48.5208Z" fill="white"/>
<path d="M19.7329 58.3719C19.6956 58.3348 19.6514 58.3024 19.6048 58.27C19.4137 58.131 19.1504 58.0152 18.8056 57.9249C18.4211 57.823 18.1578 57.7188 18.011 57.6099C17.8689 57.5057 17.799 57.376 17.7943 57.2232C17.7943 57.2185 17.7943 57.2139 17.7943 57.2116C17.7943 57.0587 17.8479 56.936 17.9551 56.848C18.0623 56.76 18.2161 56.716 18.4188 56.716C18.7077 56.716 18.957 56.8017 19.1621 56.9754C19.3694 57.1467 19.5139 57.3922 19.5978 57.7095H19.8727C19.8704 57.6123 19.8681 57.5243 19.8681 57.4409C19.8681 57.3506 19.8681 57.2672 19.8681 57.1908C19.8681 57.0448 19.8681 56.9151 19.875 56.8063C19.8797 56.6974 19.8914 56.5886 19.91 56.4821H19.6304C19.6024 56.5608 19.5721 56.6164 19.5419 56.6488C19.5116 56.6812 19.4696 56.6974 19.4184 56.6974C19.3671 56.6974 19.3088 56.6836 19.2459 56.6627C19.0199 56.5168 18.7706 56.4357 18.4957 56.4404C18.463 56.4404 18.4328 56.4496 18.4001 56.452C17.997 56.4844 17.6499 56.6697 17.3656 57.0194C17.2165 57.2046 17.1233 57.4108 17.0697 57.6354C17.093 57.8832 17.1862 58.094 17.3609 58.2677C17.3749 58.2816 17.3959 58.2955 17.4122 58.3094C17.6149 58.49 17.9108 58.6405 18.3093 58.7563C18.6658 58.8583 18.9151 58.9625 19.0572 59.0667C19.2017 59.1709 19.2716 59.3006 19.2716 59.4535C19.2716 59.6202 19.2087 59.7499 19.0852 59.8379C18.9617 59.9259 18.7846 59.9699 18.5539 59.9699C18.2207 59.9699 17.9458 59.8703 17.7291 59.6688C17.5101 59.4697 17.3563 59.1802 17.2608 58.8027H16.9858C16.9905 59.0157 16.9928 59.2056 16.9928 59.3724C16.9928 59.5391 16.9928 59.6874 16.9858 59.8194C16.9812 59.9514 16.9742 60.0834 16.9648 60.2131H17.2398C17.2957 60.0741 17.3819 60.0047 17.4984 60.0047C17.5637 60.0047 17.6475 60.0255 17.7454 60.0649C17.778 60.0788 17.82 60.0927 17.8596 60.1066C17.9341 60.132 18.0157 60.1598 18.1112 60.1876C18.2557 60.2293 18.4304 60.2502 18.6378 60.2502C18.7287 60.2502 18.8126 60.2432 18.8964 60.2339C19.1854 60.1552 19.4417 59.9815 19.6607 59.7036C19.8634 59.4488 19.9543 59.1663 19.9939 58.8513C19.9543 58.6614 19.8704 58.5016 19.7329 58.3696V58.3719Z" fill="white"/>
<path d="M40.9969 56.0352H40.9736C40.9736 56.0352 40.9736 56.0491 40.976 56.056C40.983 56.0514 40.9899 56.0421 40.9969 56.0352Z" fill="white"/>
<path d="M9.79324 59.7221C9.68839 59.6226 9.63713 59.4674 9.63713 59.2566V56.4265C9.49034 56.4589 9.3319 56.4844 9.16181 56.5006C8.99171 56.5168 8.80531 56.5261 8.6026 56.5261C8.49775 56.5261 8.39989 56.5238 8.30669 56.5192C8.21349 56.5145 8.12727 56.5099 8.04106 56.5053V56.7809C8.26941 56.7901 8.42552 56.8411 8.51639 56.9291C8.60493 57.0194 8.65153 57.1746 8.65153 57.3946V59.1594C8.62823 59.3006 8.58396 59.4303 8.49309 59.5484C8.34164 59.7453 8.1529 59.8472 7.92922 59.8542C7.69855 59.8611 7.5005 59.7708 7.33274 59.5809C7.12769 59.3493 7.11604 59.0389 7.11138 58.8953C7.08342 58.006 7.21856 56.4937 7.22556 56.4265C7.06944 56.4589 6.90168 56.4844 6.7246 56.5006C6.54752 56.5168 6.3518 56.5261 6.13976 56.5261C6.03025 56.5261 5.9254 56.5238 5.82288 56.5192C5.72036 56.5145 5.6225 56.5099 5.5293 56.5053V56.7809C5.78327 56.7901 5.96734 56.8411 6.07685 56.9291C6.18636 57.0194 6.23995 57.1769 6.23995 57.4015V58.8907C6.23995 59.3377 6.34248 59.6758 6.54985 59.9074C6.75489 60.139 7.05313 60.2525 7.43992 60.2525C7.71952 60.2525 7.96883 60.1923 8.19019 60.0719C8.3929 59.963 8.54435 59.8032 8.65619 59.6087V60.2293C8.81696 60.1969 8.98705 60.1714 9.16414 60.1552C9.34122 60.139 9.53228 60.1298 9.73499 60.1298C9.8445 60.1298 9.95168 60.1298 10.0542 60.1321C10.1591 60.1344 10.2546 60.1413 10.3455 60.1506V59.875C10.0845 59.8704 9.90275 59.8194 9.7979 59.7198L9.79324 59.7221Z" fill="white"/>
</g>
<defs>
<clipPath id="clip0_621_488">
<rect width="50" height="62.2951" fill="white"/>
</clipPath>
</defs>
</svg>
