<svg width="50" height="63" viewBox="0 0 50 63" fill="none" xmlns="http://www.w3.org/2000/svg">
<path d="M47.6535 37.3955C47.1759 35.5897 45.9619 34.2757 44.3495 33.0554C41.7772 30.3807 40.9454 29.1838 39.6708 27.6708C39.1909 27.1016 38.7528 27.125 38.4779 27.1789C38.0422 27.2656 37.7626 27.6918 37.6647 28.0291C37.5412 28.4577 37.674 28.8559 37.8092 29.1721C38.119 29.9005 38.401 30.3807 38.6689 30.746C38.5641 30.7484 38.4592 30.7531 38.3521 30.7624C37.9699 30.7929 37.6111 30.8538 37.2639 30.9311C36.5323 30.3315 35.7983 29.7295 35.0667 29.1299C33.3961 27.7316 31.9957 26.9049 31.4389 26.9002C31.0637 26.8978 30.8261 27.0501 30.8261 27.0501C30.5791 27.207 30.4672 27.4576 30.4393 27.57C30.2948 28.1813 31.6113 29.144 32.8439 30.1043C33.3984 30.5352 34.1533 31.1372 35.0551 31.896C34.9805 31.9499 34.9129 32.0108 34.8407 32.067C33.9739 31.3597 33.1048 30.6547 32.2381 29.9474C30.3135 28.3523 28.7244 27.3756 28.1139 27.3335C27.7038 27.303 27.4545 27.4482 27.4545 27.4482C27.1959 27.5958 27.091 27.8534 27.0701 27.9706C26.9559 28.6053 28.4634 29.7178 29.8777 30.8186C30.7096 31.4651 31.9352 32.4418 33.4171 33.7112C33.3495 33.826 33.2866 33.9431 33.2283 34.0602C32.8392 33.7393 32.4524 33.4208 32.0633 33.0999C30.6909 31.9406 29.5213 31.2754 29.0389 31.3035C28.7151 31.3222 28.4984 31.4721 28.4984 31.4721C28.2747 31.6267 28.1652 31.8562 28.1349 31.9593C27.9764 32.5144 29.0646 33.3037 30.0828 34.0954C30.6886 34.5661 31.5833 35.2852 32.6575 36.2314C32.6575 36.2314 32.6621 36.2267 32.6621 36.2244C32.6551 36.3415 32.6528 36.4586 32.6551 36.5757C31.6439 35.9387 30.6746 35.3508 30.1014 35.051C29.9453 34.969 29.6028 34.7957 29.2626 34.8823C28.9318 34.9666 28.7593 35.2618 28.7337 35.3016C28.7127 35.3391 28.6056 35.5335 28.6079 35.7489C28.6125 36.2478 29.202 36.7163 29.435 36.8966C30.4579 37.6883 32.1262 38.8406 33.431 39.726C34.1021 41.0142 35.1762 42.0143 36.5463 42.991C38.3987 44.312 40.2114 45.2114 42.2292 45.0778C44.2424 44.9397 45.7778 44.1339 46.8217 42.6513C47.8982 41.1266 48.1708 39.3699 47.6488 37.3931L47.6535 37.3955ZM45.1394 41.4264C44.3635 42.5249 43.2265 43.1245 41.7329 43.2252C40.237 43.3236 38.9229 42.5764 37.5505 41.5974C36.2201 40.6488 35.2345 39.7564 34.836 38.3066C34.4329 36.8544 34.624 35.5803 35.3976 34.4818C36.1944 33.3505 37.3455 32.7252 38.8553 32.6081C40.3605 32.4886 41.5582 33.1632 42.8886 34.1094C44.2633 35.0884 45.3654 36.0558 45.7545 37.5243C46.1413 38.9905 45.9386 40.2928 45.1394 41.424V41.4264Z" fill="black"/>
<path d="M45.3656 12.4301C43.5714 11.943 41.8309 12.3435 39.9762 13.1375C36.3856 14.0392 34.9387 14.1657 32.9978 14.5194C32.2662 14.6529 32.0681 15.044 31.9772 15.3134C31.8328 15.7373 32.0611 16.1917 32.3058 16.447C32.6133 16.7679 33.0234 16.8522 33.3613 16.892C34.1442 16.9857 34.6987 16.981 35.1461 16.9318C35.0971 17.0255 35.0482 17.1192 35.0016 17.2152C34.8362 17.5619 34.7104 17.9062 34.6032 18.2481C33.7201 18.5854 32.837 18.9227 31.9516 19.2599C29.9128 20.0165 28.4985 20.8198 28.2166 21.3047C28.0278 21.6302 28.0395 21.9136 28.0395 21.9136C28.0511 22.2087 28.2119 22.4313 28.2958 22.5109C28.7502 22.9419 30.239 22.2767 31.6813 21.6841C32.3314 21.4171 33.2261 21.0611 34.3306 20.6559C34.3399 20.7472 34.3585 20.8386 34.3702 20.9276C33.3286 21.3304 32.2848 21.7309 31.2433 22.1338C28.9063 23.0121 27.2706 23.9068 26.9281 24.4151C26.6974 24.757 26.6951 25.0451 26.6951 25.0451C26.6951 25.3449 26.8628 25.5628 26.9537 25.64C27.4453 26.057 29.1532 25.3004 30.8122 24.6189C31.7862 24.2183 33.2401 23.6398 35.0738 22.984C35.1391 23.1011 35.2066 23.2135 35.2789 23.3236C34.8082 23.5016 34.3399 23.6796 33.8692 23.8576C32.1846 24.4736 31.0266 25.1576 30.8099 25.5932C30.6631 25.8836 30.6841 26.1483 30.6841 26.1483C30.705 26.42 30.8495 26.6308 30.9217 26.7081C31.3225 27.1226 32.5458 26.5699 33.7364 26.0804C34.4447 25.7899 35.5119 25.3684 36.8633 24.9069C36.8633 24.9046 36.8633 24.9023 36.861 24.8999C36.9588 24.9632 37.0567 25.0241 37.1592 25.0826C36.1037 25.6447 35.1134 26.1951 34.5706 26.5418C34.4214 26.6378 34.0999 26.8486 34.0067 27.1882C33.9135 27.5185 34.0812 27.8159 34.1045 27.8581C34.1255 27.8956 34.2397 28.0853 34.4261 28.1907C34.8595 28.4366 35.5562 28.1579 35.8288 28.0431C37.0217 27.5489 38.8485 26.6706 40.2651 25.9773C41.7097 26.0382 43.1078 25.6026 44.6363 24.8976C46.7007 23.9443 48.3829 22.8177 49.2753 20.9932C50.1631 19.1733 50.2353 17.433 49.4827 15.7818C48.7068 14.0837 47.3298 12.9688 45.3656 12.4301ZM47.5814 16.6344C48.1406 17.857 48.087 19.1475 47.4276 20.499C46.7659 21.8504 45.4657 22.621 43.9349 23.326C42.453 24.0099 41.1902 24.4221 39.7432 24.045C38.2916 23.6679 37.2874 22.8669 36.7282 21.6419C36.1526 20.3818 36.1899 19.0679 36.8447 17.6954C37.4947 16.3252 38.6737 15.6179 40.1556 14.9363C41.6864 14.2289 43.0705 13.7535 44.5314 14.1493C45.9877 14.5475 47.0082 15.3743 47.5837 16.6344H47.5814Z" fill="black"/>
<path d="M22.7129 1.9371C21.3964 3.25575 20.8698 4.97022 20.6275 6.98216C19.6093 10.5587 18.9942 11.882 18.3278 13.7487C18.0761 14.4514 18.3161 14.8214 18.5025 15.0346C18.7961 15.3719 19.3017 15.4 19.6419 15.3156C20.073 15.2079 20.3502 14.894 20.5529 14.62C21.0259 13.9853 21.2986 13.5004 21.4803 13.0859C21.5362 13.1749 21.5921 13.2662 21.6527 13.3552C21.8694 13.6738 22.1024 13.9548 22.3424 14.2195C22.191 15.1564 22.0395 16.0956 21.8904 17.0325C21.5222 19.1849 21.5083 20.8198 21.7832 21.3069C21.9673 21.6348 22.2189 21.766 22.2189 21.766C22.4775 21.9019 22.7502 21.8761 22.862 21.841C23.4608 21.6606 23.6332 20.0328 23.8429 18.4799C23.9385 17.782 24.0783 16.8217 24.281 15.6599C24.3649 15.6974 24.4511 15.7279 24.535 15.7607C24.3602 16.8685 24.1855 17.9764 24.0107 19.0866C23.5983 21.5599 23.554 23.4313 23.8196 23.9841C23.9991 24.3541 24.2484 24.5017 24.2484 24.5017C24.5047 24.6539 24.7773 24.6164 24.8915 24.5743C25.4949 24.3565 25.7 22.4897 25.9423 20.705C26.0844 19.658 26.3128 18.1028 26.6646 16.1776C26.7974 16.1776 26.9302 16.1776 27.0607 16.1682C26.9792 16.6671 26.8976 17.1636 26.8161 17.6625C26.5038 19.4379 26.5155 20.787 26.7811 21.1945C26.9582 21.4685 27.1958 21.581 27.1958 21.581C27.4405 21.6981 27.6945 21.6793 27.797 21.6536C28.3539 21.5131 28.4913 20.171 28.6638 18.8898C28.7686 18.1263 28.9387 16.9903 29.216 15.5803C29.2136 15.5803 29.2113 15.5803 29.209 15.5803C29.3115 15.5264 29.414 15.4702 29.5166 15.4117C29.4723 16.6109 29.4513 17.7492 29.4793 18.3956C29.4863 18.5736 29.5096 18.9577 29.7519 19.2107C29.9895 19.4566 30.3297 19.4613 30.3787 19.4613C30.4206 19.4613 30.642 19.4566 30.826 19.3489C31.2547 19.0959 31.3619 18.3488 31.4015 18.0536C31.5716 16.7678 31.7301 14.7371 31.8396 13.1585C32.6132 11.9288 32.9394 10.4954 33.0955 8.81374C33.3075 6.54183 33.1747 4.5135 32.0516 2.82244C30.9216 1.12905 29.4583 0.196858 27.6595 0.0282211C25.8072 -0.1451 24.1598 0.494315 22.7152 1.9371H22.7129ZM27.4428 2.11042C28.7756 2.2369 29.8614 2.92784 30.6955 4.17622C31.5297 5.42929 31.5413 6.94468 31.3852 8.63105C31.2338 10.2612 30.9588 11.5681 29.908 12.6409C28.8572 13.7159 27.6642 14.189 26.3314 14.0649C24.959 13.9361 23.8429 13.2452 22.9878 11.9921C22.1327 10.7414 22.1141 9.36181 22.2655 7.72931C22.4216 6.04294 22.7036 4.60016 23.7754 3.52744C24.8472 2.45706 26.0681 1.98394 27.4428 2.11276V2.11042Z" fill="black"/>
<path d="M2.34614 16.4093C2.8238 18.2152 4.03774 19.5291 5.65012 20.7494C8.22246 23.4242 9.05428 24.621 10.3288 26.1341C10.8088 26.7032 11.2468 26.6798 11.5218 26.6259C11.9575 26.5393 12.2371 26.113 12.335 25.7757C12.4584 25.3471 12.3256 24.9489 12.1905 24.6327C11.8806 23.9043 11.5987 23.4242 11.3307 23.0588C11.4356 23.0564 11.5404 23.0518 11.6476 23.0424C12.0297 23.0119 12.3885 22.951 12.7357 22.8738C13.4673 23.4734 14.2013 24.0753 14.9329 24.6749C16.6036 26.0732 18.0039 26.9 18.5608 26.9047C18.9359 26.907 19.1736 26.7548 19.1736 26.7548C19.4206 26.5978 19.5324 26.3472 19.5604 26.2348C19.7048 25.6235 18.3884 24.6608 17.1558 23.7005C16.6012 23.2696 15.8463 22.6676 14.9446 21.9088C15.0191 21.8549 15.0867 21.794 15.1589 21.7378C16.0257 22.4451 16.8948 23.1501 17.7616 23.8575C19.6862 25.4525 21.2753 26.4292 21.8857 26.4713C22.2958 26.5018 22.5451 26.3566 22.5451 26.3566C22.8038 26.209 22.9086 25.9514 22.9296 25.8343C23.0438 25.1995 21.5362 24.087 20.1219 22.9862C19.2901 22.3397 18.0645 21.363 16.5826 20.0936C16.6502 19.9788 16.7131 19.8617 16.7713 19.7446C17.1604 20.0655 17.5472 20.384 17.9363 20.7049C19.3087 21.8643 20.4784 22.5295 20.9607 22.5013C21.2846 22.4826 21.5013 22.3327 21.5013 22.3327C21.725 22.1781 21.8345 21.9486 21.8648 21.8455C22.0232 21.2904 20.9351 20.5011 19.9169 19.7095C19.3111 19.2387 18.4163 18.5196 17.3422 17.5734C17.3422 17.5734 17.3375 17.5781 17.3375 17.5804C17.3445 17.4633 17.3468 17.3462 17.3445 17.2291C18.3557 17.8662 19.325 18.4541 19.8982 18.7539C20.0543 18.8358 20.3968 19.0092 20.737 18.9225C21.0679 18.8382 21.2403 18.5431 21.2659 18.5032C21.2869 18.4658 21.3941 18.2714 21.3918 18.0559C21.3871 17.557 20.7976 17.0886 20.5646 16.9082C19.5417 16.1166 17.8734 14.9642 16.5686 14.0789C15.8976 12.7907 14.8234 11.7906 13.4534 10.8139C11.601 9.49287 9.78824 8.59347 7.77044 8.72698C5.7573 8.86517 4.22181 9.67088 3.17796 11.1535C2.10149 12.6782 1.82888 14.4349 2.3508 16.4117L2.34614 16.4093ZM4.86024 12.3784C5.63614 11.28 6.77319 10.6804 8.26673 10.5796C9.76261 10.4813 11.0767 11.2284 12.4491 12.2075C13.7796 13.156 14.7652 14.0484 15.1636 15.4982C15.5667 16.9504 15.3756 18.2245 14.6021 19.323C13.8052 20.4543 12.6542 21.0796 11.1443 21.1968C9.63912 21.3162 8.44149 20.6417 7.11104 19.6954C5.73633 18.7164 4.63423 17.7491 4.24511 16.2805C3.85833 14.8143 4.06104 13.5121 4.86024 12.3808V12.3784Z" fill="black"/>
<path d="M4.63428 41.377C6.4284 41.8642 8.16893 41.4636 10.0236 40.6696C13.6142 39.7679 15.0611 39.6414 17.0021 39.2878C17.7337 39.1543 17.9317 38.7631 18.0226 38.4938C18.1671 38.0698 17.9387 37.6154 17.6941 37.3601C17.3865 37.0393 16.9764 36.955 16.6386 36.9151C15.8557 36.8214 15.3011 36.8261 14.8538 36.8753C14.9027 36.7816 14.9516 36.6879 14.9982 36.5919C15.1637 36.2453 15.2895 35.901 15.3967 35.559C16.2797 35.2217 17.1628 34.8845 18.0482 34.5472C20.087 33.7907 21.5013 32.9873 21.7833 32.5025C21.972 32.1769 21.9603 31.8935 21.9603 31.8935C21.9487 31.5984 21.7879 31.3759 21.704 31.2962C21.2497 30.8653 19.7608 31.5305 18.3185 32.123C17.6684 32.39 16.7737 32.746 15.6693 33.1512C15.66 33.0599 15.6413 32.9686 15.6297 32.8796C16.6712 32.4767 17.715 32.0762 18.7566 31.6733C21.0936 30.795 22.7293 29.9003 23.0718 29.392C23.3024 29.0501 23.3048 28.762 23.3048 28.762C23.3048 28.4622 23.137 28.2444 23.0461 28.1671C22.5545 27.7502 20.8466 28.5067 19.1876 29.1883C18.2137 29.5888 16.7597 30.1673 14.926 30.8231C14.8608 30.706 14.7932 30.5936 14.721 30.4835C15.1916 30.3055 15.66 30.1275 16.1306 29.9495C17.8152 29.3335 18.9733 28.6496 19.1899 28.2139C19.3367 27.9235 19.3158 27.6588 19.3158 27.6588C19.2948 27.3871 19.1503 27.1763 19.0781 27.0991C18.6773 26.6845 17.4541 27.2372 16.2634 27.7268C15.5551 28.0172 14.488 28.4388 13.1365 28.9002C13.1365 28.9025 13.1365 28.9049 13.1389 28.9072C13.041 28.844 12.9432 28.7831 12.8406 28.7245C13.8961 28.1624 14.8864 27.612 15.4293 27.2653C15.5784 27.1693 15.9 26.9585 15.9932 26.6189C16.0864 26.2887 15.9186 25.9912 15.8953 25.949C15.8743 25.9116 15.7601 25.7218 15.5737 25.6165C15.1404 25.3705 14.4437 25.6492 14.1711 25.764C12.9781 26.2582 11.1514 27.1365 9.73471 27.8298C8.29009 27.7689 6.89208 28.2046 5.36358 28.9096C3.29918 29.8628 1.6169 30.9894 0.724501 32.814C-0.163239 34.6338 -0.235469 36.3741 0.517129 38.0253C1.29303 39.7234 2.67007 40.8383 4.63428 41.377ZM2.41843 37.1728C1.85922 35.9502 1.91281 34.6596 2.57221 33.3082C3.23394 31.9567 4.53409 31.1862 6.06492 30.4812C7.54681 29.7972 8.80969 29.385 10.2566 29.7621C11.7082 30.1392 12.7125 30.9402 13.2717 32.1652C13.8472 33.4253 13.8099 34.7392 13.1552 36.1118C12.5051 37.4819 11.3261 38.1893 9.84422 38.8709C8.31339 39.5782 6.92936 40.0537 5.46843 39.6578C4.01217 39.2597 2.99161 38.4329 2.4161 37.1728H2.41843Z" fill="black"/>
<path d="M27.2867 51.87C28.6032 50.5513 29.1297 48.8368 29.3721 46.8249C30.3903 43.2484 31.0054 41.925 31.6718 40.0583C31.9234 39.3557 31.6835 38.9856 31.497 38.7725C31.2035 38.4352 30.6979 38.4071 30.3577 38.4914C29.9266 38.5991 29.6493 38.913 29.4466 39.187C28.9736 39.8218 28.701 40.3066 28.5193 40.7212C28.4634 40.6322 28.4074 40.5408 28.3469 40.4518C28.1302 40.1333 27.8972 39.8522 27.6572 39.5876C27.8086 38.6507 27.9601 37.7115 28.1092 36.7746C28.4773 34.6221 28.4913 32.9873 28.2164 32.5001C28.0323 32.1722 27.7807 32.041 27.7807 32.041C27.522 31.9052 27.2494 31.931 27.1376 31.9661C26.5388 32.1464 26.3663 33.7743 26.1566 35.3271C26.0611 36.0251 25.9213 36.9854 25.7186 38.1471C25.6347 38.1096 25.5485 38.0792 25.4646 38.0464C25.6394 36.9385 25.8141 35.8307 25.9889 34.7205C26.4013 32.2472 26.4456 30.3758 26.1799 29.823C26.0005 29.4529 25.7512 29.3054 25.7512 29.3054C25.4949 29.1531 25.2223 29.1906 25.1081 29.2328C24.5046 29.4506 24.2996 31.3173 24.0573 33.1021C23.9152 34.149 23.6868 35.7042 23.335 37.6295C23.2022 37.6295 23.0694 37.6295 22.9389 37.6389C23.0204 37.14 23.102 36.6434 23.1835 36.1445C23.4957 34.3692 23.4841 33.0201 23.2185 32.6125C23.0414 32.3385 22.8037 32.2261 22.8037 32.2261C22.5591 32.109 22.3051 32.1277 22.2026 32.1535C21.6457 32.294 21.5082 33.6361 21.3358 34.9172C21.231 35.6808 21.0609 36.8168 20.7836 38.2267C20.7859 38.2267 20.7883 38.2267 20.7906 38.2267C20.6881 38.2806 20.5855 38.3368 20.483 38.3954C20.5273 37.1962 20.5483 36.0579 20.5203 35.4114C20.5133 35.2334 20.49 34.8493 20.2477 34.5964C20.01 34.3504 19.6698 34.3457 19.6209 34.3457C19.579 34.3457 19.3576 34.3504 19.1736 34.4582C18.7448 34.7111 18.6376 35.4583 18.598 35.7534C18.4279 37.0393 18.2695 39.0699 18.16 40.6486C17.3864 41.8782 17.0602 43.3116 16.9041 44.9933C16.6921 47.2652 16.8249 49.2936 17.948 50.9846C19.0734 52.6686 20.5366 53.6008 22.3354 53.7695C24.1878 53.9428 25.8351 53.3034 27.2797 51.8606L27.2867 51.87ZM22.5567 51.6966C21.224 51.5702 20.1382 50.8792 19.304 49.6308C18.4699 48.3778 18.4582 46.8624 18.6143 45.176C18.7658 43.5458 19.0407 42.2389 20.0916 41.1662C21.1424 40.0911 22.3354 39.618 23.6682 39.7421C25.0406 39.871 26.1566 40.5619 27.0118 41.815C27.8669 43.0657 27.8855 44.4452 27.7341 46.0777C27.5779 47.7641 27.296 49.2069 26.2242 50.2796C25.1524 51.35 23.9315 51.8231 22.5567 51.6943V51.6966Z" fill="black"/>
<path d="M14.4834 56.3671C14.4718 56.2289 14.5184 56.1071 14.6279 55.9994C14.7351 55.8916 14.8702 55.8565 15.0333 55.8425C15.1964 55.8284 15.3479 55.8378 15.4714 55.9268C15.5949 56.0134 15.6624 56.1259 15.6764 56.264C15.6904 56.4022 15.6391 56.517 15.5319 56.6224C15.4248 56.7278 15.278 56.7629 15.1102 56.7793C14.9424 56.7957 14.812 56.7793 14.6885 56.6974C14.565 56.613 14.4974 56.503 14.4858 56.3694L14.4834 56.3671Z" fill="black"/>
<path d="M35.3953 56.3671C35.3836 56.2289 35.4302 56.1071 35.5398 55.9994C35.6469 55.8916 35.7821 55.8565 35.9452 55.8425C36.1083 55.8284 36.2597 55.8378 36.3832 55.9268C36.5067 56.0134 36.5743 56.1259 36.5883 56.264C36.6022 56.4022 36.551 56.517 36.4438 56.6224C36.3366 56.7278 36.1898 56.7629 36.0221 56.7793C35.8543 56.7957 35.7238 56.7793 35.6003 56.6974C35.4768 56.613 35.4093 56.503 35.3976 56.3694L35.3953 56.3671Z" fill="black"/>
<path d="M5.39856 60.4964C5.26807 60.4004 5.15157 60.2435 5.04672 60.0257L4.48519 58.8429L3.63706 57.0581L3.05455 55.8308H2.79825L2.29496 56.9363L2.08992 57.386L1.43052 58.8358L1.21616 59.309L1.0484 59.6767C0.943549 59.8945 0.843358 60.0748 0.743167 60.2107C0.642975 60.3489 0.535794 60.4496 0.419293 60.5152C0.302792 60.5784 0.16299 60.6253 -0.00244141 60.6534V60.9321C0.15367 60.9227 0.302792 60.9157 0.442593 60.9133C0.582395 60.9133 0.726856 60.911 0.878308 60.911C1.0018 60.911 1.12529 60.911 1.24645 60.9133C1.36994 60.9157 1.50042 60.918 1.64023 60.9204C1.78003 60.9227 1.93148 60.9274 2.09225 60.9321V60.6534C1.81265 60.6393 1.60994 60.5854 1.48178 60.4918C1.35363 60.3981 1.29072 60.2575 1.29072 60.0678C1.29072 59.9109 1.33965 59.7212 1.43052 59.5057C1.78702 59.7774 2.2204 59.8523 2.72602 59.8523C3.08717 59.8523 3.40638 59.8102 3.69065 59.6814L3.83977 59.9976C3.92365 60.1638 3.9586 60.2927 3.94229 60.3864C3.92598 60.4777 3.85608 60.5433 3.73725 60.5831C3.61609 60.6206 3.43668 60.644 3.19435 60.6534V60.9321C3.31318 60.9227 3.49027 60.9157 3.73026 60.9133C3.96792 60.9133 4.25684 60.911 4.59237 60.911C4.89061 60.911 5.1539 60.911 5.37992 60.9133C5.60593 60.9157 5.79699 60.9227 5.94844 60.9321V60.6534C5.71078 60.644 5.52904 60.5925 5.39856 60.4964ZM2.72369 59.4518C2.33224 59.4518 1.99439 59.4167 1.72411 59.1918C1.6845 59.1591 1.65421 59.1216 1.61926 59.0864L2.41379 57.3251L2.49768 57.1377L2.58156 57.3158L3.51357 59.3043C3.28289 59.4261 3.02193 59.4518 2.72136 59.4518H2.72369Z" fill="black"/>
<path d="M13.2669 59.9414C13.2017 60.117 13.1178 60.2482 13.0176 60.3372C12.9198 60.4239 12.7916 60.4684 12.6425 60.4684C12.4724 60.4684 12.3489 60.4215 12.2697 60.3302C12.1905 60.2365 12.1532 60.0843 12.1532 59.8688V57.4423C12.2091 57.4306 12.2673 57.4165 12.3256 57.4001C12.4934 57.3556 12.6471 57.2994 12.7963 57.2385V56.7958C12.6285 56.8895 12.4374 56.9574 12.2277 57.0137C12.2021 57.0207 12.1788 57.0254 12.1555 57.0324V55.9761C12.0134 56.0229 11.8619 56.058 11.6988 56.0768C11.5357 56.0955 11.361 56.1049 11.1769 56.1049V56.9809C11.0324 56.9059 10.9159 56.8122 10.8274 56.6998V57.2877C10.8787 57.3181 10.9253 57.3509 10.9835 57.3767C11.0487 57.4071 11.114 57.4282 11.1792 57.447V59.6416C11.1792 60.0796 11.2748 60.4051 11.4705 60.6159C11.6639 60.8267 11.9528 60.9321 12.3372 60.9321C12.6448 60.9321 12.8895 60.8619 13.0712 60.719C13.2529 60.5761 13.3974 60.3442 13.4999 60.0187L13.2739 59.939L13.2669 59.9414Z" fill="black"/>
<path d="M13.9801 60.9321V60.6463C14.2504 60.6416 14.4368 60.6018 14.5393 60.5292C14.6418 60.4566 14.6908 60.3208 14.6908 60.1193V58.0816C14.6908 57.8685 14.6418 57.7092 14.5416 57.6062C14.4438 57.5031 14.2551 57.4469 13.9778 57.4375V57.1518C14.0756 57.1565 14.1735 57.1612 14.276 57.1659C14.3785 57.1705 14.4811 57.1729 14.5882 57.1729C14.7956 57.1729 14.9937 57.1635 15.1777 57.1471C15.3618 57.1307 15.5342 57.105 15.695 57.0698V60.117C15.695 60.3161 15.7509 60.4543 15.8628 60.5269C15.9746 60.5995 16.1633 60.6393 16.429 60.644V60.9297C16.3567 60.9251 16.2542 60.9204 16.1237 60.918C15.9933 60.918 15.8488 60.911 15.688 60.9063C15.5272 60.9016 15.3665 60.8993 15.201 60.8993C14.9774 60.8993 14.7467 60.904 14.5114 60.911C14.2737 60.918 14.0966 60.9251 13.9801 60.9297V60.9321Z" fill="black"/>
<path d="M34.8921 61.0094V60.719C35.1694 60.7143 35.3581 60.6745 35.4629 60.5995C35.5678 60.5246 35.6191 60.3864 35.6191 60.1826V58.1051C35.6191 57.8873 35.5678 57.7257 35.4676 57.6203C35.3674 57.5172 35.1764 57.4587 34.8921 57.4493V57.1589C34.99 57.1636 35.0925 57.1683 35.195 57.1729C35.2998 57.1776 35.4047 57.18 35.5142 57.18C35.7262 57.18 35.9266 57.1706 36.1154 57.1542C36.3041 57.1378 36.4788 57.112 36.6419 57.0769V60.1826C36.6419 60.3864 36.6979 60.5246 36.812 60.5995C36.9262 60.6745 37.1173 60.7143 37.3899 60.719V61.0094C37.3153 61.0047 37.2128 61.0001 37.0777 60.9977C36.9448 60.9977 36.7957 60.9907 36.6326 60.986C36.4695 60.9813 36.3041 60.979 36.1363 60.979C35.908 60.979 35.675 60.9837 35.4327 60.9907C35.1903 60.9977 35.0109 61.0047 34.8921 61.0094Z" fill="black"/>
<path d="M27.2519 60.5293C27.1494 60.4543 27.1005 60.3185 27.1005 60.1241V59.138C27.1005 59.1005 27.1052 59.0654 27.1052 59.0256C27.1052 58.9905 27.1005 58.96 27.1005 58.9272C27.0888 58.426 27.0073 57.9833 26.7207 57.6343C26.4271 57.2736 26.073 57.0933 25.6605 57.0816C25.6466 57.0816 25.6349 57.0769 25.6209 57.0769C25.1829 57.0769 24.8101 57.2666 24.5048 57.6343C24.5025 57.6367 24.5002 57.639 24.4979 57.6414C24.4792 57.6648 24.4676 57.6906 24.4513 57.7163C24.4326 57.6906 24.421 57.6601 24.4 57.6343C24.0948 57.2619 23.729 57.0769 23.3002 57.0769C23.2629 57.0769 23.2257 57.0863 23.1884 57.0886C22.8202 57.1191 22.501 57.283 22.2307 57.5852V57.0839C22.0723 57.1191 21.8999 57.1425 21.7205 57.1612C21.5387 57.1776 21.3477 57.187 21.145 57.187C21.0331 57.187 20.9259 57.1846 20.8211 57.18C20.7162 57.1753 20.616 57.1706 20.5205 57.1659V57.4493C20.7861 57.4587 20.9702 57.5126 21.0751 57.6086C21.1799 57.707 21.2312 57.8662 21.2312 58.0887V60.1217C21.2312 60.3161 21.1799 60.452 21.0751 60.5269C20.9702 60.6019 20.7861 60.6417 20.5205 60.6464V60.9298C20.665 60.9251 20.8537 60.9181 21.082 60.9111C21.3127 60.904 21.5317 60.8993 21.7461 60.8993C21.9255 60.8993 22.1003 60.904 22.275 60.9111C22.4498 60.9181 22.5942 60.9251 22.7107 60.9298V60.6464C22.5616 60.6417 22.4591 60.6089 22.3869 60.5621C22.3519 60.5316 22.3216 60.4965 22.289 60.4637C22.2517 60.3864 22.2331 60.2716 22.2331 60.1217V58.5689C22.2634 58.3534 22.3263 58.159 22.4637 57.9904C22.6874 57.7187 22.9577 57.5805 23.2746 57.5734C23.3678 57.6062 23.447 57.6601 23.5076 57.7397C23.6125 57.8756 23.666 58.084 23.666 58.3674V60.1241C23.666 60.2154 23.6567 60.2927 23.6427 60.3583C23.6264 60.4309 23.6008 60.4895 23.5659 60.5293C23.4983 60.6042 23.3771 60.644 23.2047 60.6487V60.9321C23.2956 60.9274 23.4354 60.9204 23.6218 60.9134C23.8082 60.9064 23.9992 60.9017 24.1973 60.9017C24.3674 60.9017 24.5468 60.9064 24.7402 60.9134C24.9336 60.9204 25.071 60.9274 25.1526 60.9321V60.6487C24.9685 60.644 24.8427 60.6042 24.7751 60.5293C24.7076 60.4543 24.6726 60.3185 24.6726 60.1241V59.8477C24.6726 59.8477 24.6773 59.8383 24.6773 59.8313C24.6773 59.829 24.6726 59.8266 24.6726 59.8219V58.4471C24.6726 58.3581 24.6656 58.2784 24.6563 58.1965C24.661 58.1871 24.6656 58.1801 24.6703 58.173C24.7029 58.1098 24.7355 58.0489 24.7845 57.9904C25.0128 57.714 25.2901 57.5734 25.6186 57.5711C25.6629 57.5711 25.7048 57.5805 25.7491 57.5852C25.8283 57.6203 25.8935 57.6695 25.9448 57.7397C26.0497 57.8756 26.1009 58.084 26.1009 58.3674V60.1241C26.1009 60.1967 26.0916 60.2552 26.0823 60.3115C26.066 60.4051 26.0427 60.4824 26.0007 60.5293C25.9332 60.6042 25.8097 60.644 25.6303 60.6487V60.9321C25.7235 60.9274 25.8586 60.9204 26.0403 60.9134C26.2221 60.9064 26.4178 60.9017 26.6322 60.9017C26.7766 60.9017 26.9281 60.904 27.0819 60.9087C27.238 60.9134 27.3801 60.9181 27.5129 60.9204C27.6457 60.9228 27.7482 60.9274 27.8205 60.9321V60.6487C27.5455 60.644 27.3568 60.6042 27.2543 60.5293H27.2519Z" fill="black"/>
<path d="M34.0229 57.667C33.7107 57.2946 33.3355 57.1096 32.9022 57.1166C32.4548 57.1237 32.0773 57.3204 31.7698 57.7022C31.6999 57.7888 31.644 57.8802 31.5973 57.9762V55.0461C31.4459 55.0813 31.2735 55.107 31.0824 55.1234C30.8914 55.1398 30.6863 55.1492 30.465 55.1492C30.3671 55.1492 30.2622 55.1469 30.1527 55.1422C30.0432 55.1375 29.943 55.1328 29.8545 55.1281V55.4162C30.1341 55.4256 30.3252 55.4818 30.4277 55.5825C30.5302 55.6832 30.5815 55.8448 30.5815 56.065V59.946C30.5815 60.0701 30.5745 60.1755 30.5605 60.2669C30.5465 60.3582 30.5209 60.4378 30.4906 60.5058C30.458 60.5737 30.4114 60.6393 30.3485 60.6978L30.5395 60.9414C30.642 60.8688 30.7492 60.7985 30.8634 60.7353C30.9752 60.6721 31.0964 60.6229 31.2269 60.5924C31.3574 60.5596 31.4808 60.5409 31.5973 60.5362V60.1216C31.6533 60.2388 31.7232 60.3512 31.814 60.4566C32.1333 60.8313 32.5177 61.014 32.9651 61.007C33.3985 61 33.7666 60.8056 34.0672 60.4214C34.3678 60.0397 34.4376 59.6017 34.4283 59.07C34.419 58.5219 34.3351 58.0395 34.0229 57.667ZM33.7689 60.0701C33.5452 60.3559 33.2726 60.4987 32.9511 60.5058C32.6202 60.5104 32.336 60.3746 32.0983 60.0982C31.8606 59.8218 31.821 59.4916 31.814 59.0981C31.8071 58.6906 31.8373 58.3392 32.0657 58.0535C32.294 57.7701 32.5736 57.6249 32.9045 57.6179C33.226 57.6132 33.5033 57.749 33.7363 58.0254C33.9693 58.3018 34.0113 58.6648 34.0182 59.0724C34.0252 59.4658 33.9926 59.7844 33.7689 60.0701Z" fill="black"/>
<path d="M40.9967 58.3579H40.9734C40.9734 58.3579 40.9734 58.372 40.9757 58.379C40.9827 58.3743 40.9897 58.3649 40.9967 58.3579Z" fill="black"/>
<path d="M41.8123 57.995C41.7307 57.8451 41.6259 57.7233 41.5047 57.6156C41.3067 57.4376 41.0643 57.3111 40.7638 57.2502C40.6076 57.2174 40.4539 57.2151 40.3001 57.2315C40.0997 57.2526 39.9016 57.3135 39.7013 57.3978V57.0769C39.4054 57.1472 39.0442 57.1823 38.6201 57.1823C38.5013 57.1823 38.3918 57.18 38.2893 57.1753C38.1867 57.1706 38.0749 57.1659 37.9514 57.1612V57.4517C38.2194 57.461 38.4058 57.5172 38.5153 57.6156C38.5363 57.6343 38.5526 57.6578 38.5689 57.6812C38.6411 57.7819 38.6784 57.9224 38.6784 58.1075V60.185C38.6784 60.3841 38.6271 60.5223 38.5269 60.5995C38.4267 60.6768 38.2333 60.7167 37.9514 60.7213V61.0118C38.0702 61.0071 38.2473 61.0001 38.4827 60.993C38.718 60.986 38.9603 60.9813 39.212 60.9813C39.389 60.9813 39.5731 60.9837 39.7595 60.9883C39.9482 60.993 40.123 60.9977 40.2908 61.0001C40.4562 61.0024 40.589 61.0071 40.6869 61.0118V60.7213C40.3164 60.7167 40.0601 60.6698 39.9156 60.5808C39.8084 60.5152 39.7409 60.4122 39.7152 60.2763C39.7059 60.2295 39.7013 60.1803 39.7013 60.1264V57.8592C39.8737 57.7749 40.0414 57.7116 40.2115 57.6835C40.335 57.6624 40.4585 57.6554 40.5867 57.6812C40.596 57.6812 40.6053 57.6882 40.6146 57.6906C40.9571 57.7678 41.2088 57.9482 41.3649 58.2363C41.3835 58.2714 41.3952 58.3065 41.4068 58.3417C41.4138 58.3417 41.4232 58.337 41.4301 58.337C41.5863 58.2995 41.7424 58.262 41.9008 58.2246C41.8752 58.1496 41.8495 58.0747 41.8123 58.0021V57.995Z" fill="black"/>
<path d="M41.3928 58.4471C41.3928 58.4471 41.4068 58.4331 41.4138 58.426H41.3882C41.3882 58.426 41.3882 58.4401 41.3905 58.4471H41.3928Z" fill="black"/>
<path d="M46.2205 57.2361C46.1226 57.1447 45.9852 57.0979 45.8104 57.0979C45.6217 57.0979 45.4399 57.1494 45.2605 57.2548C45.1533 57.3181 45.0625 57.3907 44.9809 57.475C44.9553 57.4516 44.9297 57.4281 44.9017 57.4071C44.6291 57.201 44.2493 57.0979 43.7623 57.0979C43.2753 57.0979 42.8979 57.2033 42.6183 57.4118C42.3387 57.6202 42.1989 57.9177 42.1989 58.3065C42.1989 58.6953 42.3387 58.9787 42.6183 59.1871C42.786 59.3113 42.9934 59.3932 43.2334 59.4448C43.0027 59.5712 42.8303 59.7024 42.7161 59.8383C42.6113 59.9647 42.5554 60.1029 42.5437 60.2505C42.348 60.3629 42.1779 60.5081 42.0404 60.7049C41.7608 61.1007 41.6769 61.5129 41.7911 61.9415C41.9006 62.3584 42.1732 62.6653 42.6113 62.862C43.047 63.0611 43.4804 63.0236 43.9837 62.8878C44.5033 62.7496 44.9413 62.5528 45.2232 62.164C45.5028 61.7752 45.5891 61.37 45.4795 60.9555C45.3654 60.5269 45.0881 60.2107 44.6524 60.0069C44.2283 59.8101 43.7786 59.8476 43.28 59.9764C43.2544 59.939 43.2404 59.8945 43.2404 59.8429C43.2404 59.7703 43.259 59.7047 43.2986 59.6462C43.3336 59.5947 43.3918 59.5408 43.4734 59.4846C43.5666 59.494 43.6598 59.501 43.7623 59.501C44.2493 59.501 44.6291 59.3979 44.9017 59.1918C45.1743 58.9857 45.3118 58.6906 45.3118 58.3088C45.3118 58.0512 45.2535 57.8357 45.137 57.66C45.1953 57.6015 45.2535 57.5593 45.3095 57.5265C45.3654 57.4961 45.4096 57.4797 45.4423 57.4797C45.5052 57.4797 45.5494 57.5101 45.5751 57.5734C45.6007 57.6366 45.6287 57.7092 45.6543 57.7912C45.6823 57.8732 45.7195 57.9458 45.7708 58.009C45.8221 58.0722 45.8966 58.1027 45.9991 58.1027C46.111 58.1027 46.1995 58.0582 46.2671 57.9669C46.3347 57.8778 46.3673 57.7631 46.3673 57.6202C46.3673 57.4563 46.3184 57.3274 46.2182 57.2337L46.2205 57.2361ZM44.3891 60.3723C44.713 60.5245 44.918 60.7587 45.0019 61.0749C45.0834 61.3841 45.0205 61.6815 44.8108 61.972C44.6011 62.2601 44.2679 62.3889 43.8812 62.4919C43.5083 62.5927 43.1961 62.6372 42.8722 62.4919C42.5484 62.3444 42.3457 62.1172 42.2641 61.808C42.1802 61.4895 42.2408 61.185 42.4482 60.8899C42.6556 60.5971 42.9585 60.4777 43.3313 60.3793C43.718 60.2762 44.0582 60.22 44.3844 60.3723H44.3891ZM44.2446 58.9927C44.1444 59.145 43.986 59.2223 43.7623 59.2223C43.5643 59.2223 43.4128 59.145 43.3056 58.9927C43.1985 58.8405 43.1472 58.6109 43.1472 58.3041C43.1472 57.9973 43.2008 57.7467 43.3056 57.5944C43.4105 57.4422 43.5666 57.3649 43.7693 57.3649C43.986 57.3649 44.1444 57.4422 44.2423 57.5944C44.3402 57.7467 44.3914 57.9832 44.3914 58.3041C44.3914 58.625 44.3425 58.8381 44.2423 58.9927H44.2446Z" fill="black"/>
<path d="M49.7482 59.7819C49.62 60.0279 49.4616 60.2082 49.2775 60.323C49.0935 60.4377 48.8721 60.4963 48.6135 60.4963C48.25 60.4963 47.9704 60.3628 47.777 60.0934C47.5883 59.8335 47.4927 59.4681 47.4881 59.002C47.5044 59.016 47.516 59.0301 47.5323 59.0441C47.8119 59.2667 48.1335 59.3182 48.5203 59.3112C48.921 59.3041 49.2729 59.2432 49.5478 59.0114C49.6061 58.9622 49.6527 58.9106 49.6969 58.8591C49.8437 58.6858 49.923 58.4914 49.9393 58.2783C49.9416 58.2455 49.9486 58.2174 49.9486 58.1846C49.9439 57.8543 49.7995 57.5756 49.5199 57.3484C49.2379 57.1212 48.8931 57.072 48.4923 57.0767C48.4667 57.0767 48.4457 57.0791 48.4201 57.0814C48.4014 57.0814 48.3851 57.0791 48.3665 57.0791C47.9797 57.0791 47.6442 57.1563 47.3576 57.3133C47.0733 57.4702 46.8496 57.695 46.6865 57.9878C46.5234 58.2806 46.4419 58.6366 46.4419 59.0559C46.4419 59.4751 46.5188 59.8147 46.6679 60.1098C46.8194 60.4026 47.0314 60.6275 47.3063 60.7797C47.5813 60.9343 47.9075 61.0116 48.2849 61.0116C48.688 61.0116 49.0352 60.9202 49.3335 60.7375C49.6294 60.5549 49.8507 60.2925 49.9929 59.9506L49.7412 59.7843L49.7482 59.7819ZM48.5203 59.0067C48.257 59.0114 48.0426 58.9856 47.8469 58.8591C47.8283 58.8474 47.8073 58.838 47.791 58.824C47.6954 58.7467 47.6232 58.6624 47.5696 58.571C47.544 58.5265 47.5254 58.4797 47.509 58.4328C47.5533 58.1049 47.6395 57.8473 47.7723 57.6693C47.8399 57.5803 47.9145 57.5124 47.9914 57.4608C48.1428 57.4023 48.3106 57.3835 48.4993 57.3812C48.7975 57.3765 49.0538 57.3976 49.2636 57.5662C49.4709 57.7349 49.5781 57.941 49.5828 58.1869C49.5874 58.4258 49.4872 58.6296 49.2845 58.8006C49.2566 58.824 49.2216 58.8404 49.1913 58.8591C49.0026 58.9739 48.7742 59.0043 48.5179 59.0067H48.5203Z" fill="black"/>
<path d="M19.7329 59.0324C19.6956 58.995 19.6514 58.9622 19.6048 58.9294C19.4137 58.7888 19.1504 58.6717 18.8056 58.5804C18.4211 58.4773 18.1578 58.3719 18.011 58.2619C17.8689 58.1565 17.799 58.0253 17.7943 57.8707C17.7943 57.866 17.7943 57.8613 17.7943 57.859C17.7943 57.7044 17.8479 57.5803 17.9551 57.4913C18.0623 57.4023 18.2161 57.3578 18.4188 57.3578C18.7077 57.3578 18.957 57.4444 19.1621 57.6201C19.3694 57.7934 19.5139 58.0417 19.5978 58.3626H19.8727C19.8704 58.2642 19.8681 58.1752 19.8681 58.0909C19.8681 57.9995 19.8681 57.9152 19.8681 57.8379C19.8681 57.6904 19.8681 57.5592 19.875 57.4491C19.8797 57.339 19.8914 57.2289 19.91 57.1212H19.6304C19.6024 57.2008 19.5721 57.2571 19.5419 57.2898C19.5116 57.3226 19.4696 57.339 19.4184 57.339C19.3671 57.339 19.3088 57.325 19.2459 57.3039C19.0199 57.1563 18.7706 57.0744 18.4957 57.079C18.463 57.079 18.4328 57.0884 18.4001 57.0908C17.997 57.1235 17.6499 57.3109 17.3656 57.6646C17.2165 57.852 17.1233 58.0604 17.0697 58.2876C17.093 58.5382 17.1862 58.7514 17.3609 58.927C17.3749 58.9411 17.3959 58.9551 17.4122 58.9692C17.6149 59.1519 17.9108 59.3041 18.3093 59.4212C18.6658 59.5243 18.9151 59.6297 19.0572 59.7351C19.2017 59.8405 19.2716 59.9716 19.2716 60.1262C19.2716 60.2949 19.2087 60.426 19.0852 60.515C18.9617 60.604 18.7846 60.6485 18.5539 60.6485C18.2207 60.6485 17.9458 60.5478 17.7291 60.3441C17.5101 60.1426 17.3563 59.8498 17.2608 59.4681H16.9858C16.9905 59.6836 16.9928 59.8756 16.9928 60.0442C16.9928 60.2129 16.9928 60.3628 16.9858 60.4963C16.9812 60.6298 16.9742 60.7633 16.9648 60.8945H17.2398C17.2957 60.7539 17.3819 60.6837 17.4984 60.6837C17.5637 60.6837 17.6475 60.7047 17.7454 60.7446C17.778 60.7586 17.82 60.7727 17.8596 60.7867C17.9341 60.8125 18.0157 60.8406 18.1112 60.8687C18.2557 60.9109 18.4304 60.9319 18.6378 60.9319C18.7287 60.9319 18.8126 60.9249 18.8964 60.9155C19.1854 60.8359 19.4417 60.6602 19.6607 60.3792C19.8634 60.1215 19.9543 59.8358 19.9939 59.5173C19.9543 59.3252 19.8704 59.1636 19.7329 59.0301V59.0324Z" fill="black"/>
<path d="M40.9967 56.6692H40.9734C40.9734 56.6692 40.9734 56.6832 40.9757 56.6903C40.9827 56.6856 40.9897 56.6762 40.9967 56.6692Z" fill="black"/>
<path d="M9.793 60.3981C9.68815 60.2974 9.63689 60.1405 9.63689 59.9273V57.0652C9.49009 57.098 9.33165 57.1237 9.16156 57.1401C8.99147 57.1565 8.80507 57.1659 8.60236 57.1659C8.4975 57.1659 8.39964 57.1636 8.30644 57.1589C8.21324 57.1542 8.12703 57.1495 8.04082 57.1448V57.4235C8.26916 57.4329 8.42527 57.4844 8.51614 57.5734C8.60469 57.6648 8.65129 57.8217 8.65129 58.0442V59.829C8.62799 59.9718 8.58372 60.103 8.49284 60.2224C8.34139 60.4215 8.15266 60.5246 7.92898 60.5316C7.69831 60.5386 7.50025 60.4473 7.33249 60.2552C7.12745 60.021 7.1158 59.7072 7.11114 59.562C7.08318 58.6626 7.21832 57.1331 7.22531 57.0652C7.0692 57.098 6.90144 57.1237 6.72436 57.1401C6.54727 57.1565 6.35155 57.1659 6.13952 57.1659C6.03001 57.1659 5.92516 57.1636 5.82264 57.1589C5.72011 57.1542 5.62225 57.1495 5.52905 57.1448V57.4235C5.78303 57.4329 5.9671 57.4844 6.07661 57.5734C6.18612 57.6648 6.23971 57.8241 6.23971 58.0512V59.5573C6.23971 60.0093 6.34223 60.3513 6.5496 60.5855C6.75465 60.8197 7.05289 60.9345 7.43967 60.9345C7.71928 60.9345 7.96859 60.8736 8.18994 60.7518C8.39265 60.6417 8.54411 60.4801 8.65595 60.2833V60.911C8.81672 60.8783 8.98681 60.8525 9.16389 60.8361C9.34097 60.8197 9.53203 60.8103 9.73475 60.8103C9.84426 60.8103 9.95144 60.8103 10.054 60.8127C10.1588 60.815 10.2543 60.822 10.3452 60.8314V60.5527C10.0843 60.548 9.90251 60.4965 9.79766 60.3958L9.793 60.3981Z" fill="black"/>
</svg>
