<svg width="100" height="125" viewBox="0 0 100 125" fill="none" xmlns="http://www.w3.org/2000/svg">
<g clip-path="url(#clip0_608_109)">
<path d="M95.307 73.9537C94.3517 70.3825 91.9238 67.7839 88.6991 65.3707C83.5544 60.081 81.8907 57.7141 79.3417 54.7218C78.3817 53.5963 77.5056 53.6426 76.9557 53.7491C76.0843 53.9205 75.5251 54.7635 75.3294 55.4305C75.0824 56.2782 75.348 57.0656 75.6183 57.6909C76.2381 59.1315 76.802 60.081 77.3379 60.8036C77.1282 60.8082 76.9185 60.8175 76.7041 60.836C75.9399 60.8962 75.2222 61.0167 74.5279 61.1695C73.0646 59.9837 71.5967 58.7933 70.1334 57.6075C66.7922 54.8423 63.9915 53.2072 62.8777 53.1979C62.1275 53.1933 61.6521 53.4944 61.6521 53.4944C61.1582 53.8047 60.9345 54.3003 60.8786 54.5227C60.5896 55.7316 63.2226 57.6353 65.6877 59.5344C66.7968 60.3867 68.3067 61.5771 70.1101 63.0779C69.961 63.1844 69.8259 63.3048 69.6814 63.416C67.9479 62.0172 66.2097 60.6229 64.4761 59.2241C60.6269 56.0697 57.4488 54.1382 56.2278 54.0548C55.4077 53.9946 54.909 54.2818 54.909 54.2818C54.3918 54.5736 54.1821 55.0831 54.1401 55.3147C53.9118 56.57 56.9268 58.7702 59.7555 60.9472C61.4191 62.2256 63.8703 64.1571 66.8341 66.6676C66.699 66.8946 66.5732 67.1262 66.4567 67.3578C65.6784 66.7232 64.9049 66.0933 64.1266 65.4587C61.3819 63.1659 59.0425 61.8504 58.0779 61.906C57.4301 61.943 56.9967 62.2395 56.9967 62.2395C56.5494 62.5452 56.3304 62.9991 56.2698 63.2029C55.9529 64.3007 58.1291 65.8617 60.1656 67.4273C61.3772 68.3583 63.1667 69.7803 65.3149 71.6516C65.3149 71.6516 65.3243 71.6424 65.3243 71.6377C65.3103 71.8693 65.3056 72.1009 65.3103 72.3325C63.2878 71.0726 61.3492 69.91 60.2029 69.3171C59.8906 69.155 59.2056 68.8122 58.5252 68.9836C57.8635 69.1504 57.5187 69.734 57.4674 69.8127C57.4255 69.8868 57.2111 70.2713 57.2158 70.6974C57.2251 71.684 58.4041 72.6104 58.8701 72.9671C60.9159 74.5327 64.2524 76.8116 66.8621 78.5625C68.2042 81.1101 70.3525 83.0879 73.0926 85.0194C76.7973 87.6318 80.4228 89.4105 84.4584 89.1465C88.4847 88.8732 91.5557 87.2798 93.6434 84.3478C95.7963 81.3324 96.3415 77.8584 95.2977 73.9491L95.307 73.9537ZM90.2788 81.9253C88.727 84.0977 86.4529 85.2834 83.4658 85.4826C80.4741 85.6772 77.8458 84.1996 75.101 82.2634C72.4402 80.3875 70.469 78.6227 69.6721 75.7555C68.8659 72.8837 69.248 70.3639 70.7952 68.1915C72.3889 65.9543 74.691 64.7176 77.7107 64.486C80.7211 64.2498 83.1163 65.5838 85.7772 67.4551C88.5266 69.3912 90.7308 71.3042 91.5091 74.2085C92.2826 77.1081 91.8772 79.6834 90.2788 81.9206V81.9253Z" fill="white"/>
<path d="M90.7311 24.5817C87.1429 23.6183 83.6618 24.4104 79.9524 25.9806C72.7713 27.7639 69.8774 28.014 65.9956 28.7134C64.5323 28.9775 64.1362 29.751 63.9545 30.2837C63.6655 31.122 64.1222 32.0206 64.6115 32.5255C65.2267 33.1601 66.0468 33.3269 66.7225 33.4056C68.2883 33.5909 69.3974 33.5816 70.2921 33.4843C70.1943 33.6696 70.0964 33.8549 70.0032 34.0448C69.6723 34.7303 69.4207 35.4112 69.2063 36.0875C67.4402 36.7545 65.674 37.4215 63.9032 38.0885C59.8257 39.5846 56.997 41.1734 56.4331 42.1322C56.0557 42.776 56.079 43.3365 56.079 43.3365C56.1023 43.9201 56.4238 44.3602 56.5916 44.5176C57.5003 45.3699 60.4781 44.0544 63.3626 42.8826C64.6628 42.3545 66.4523 41.6505 68.6611 40.8491C68.6798 41.0298 68.717 41.2104 68.7403 41.3864C66.6573 42.1831 64.5696 42.9752 62.4866 43.7719C57.8125 45.5089 54.5412 47.2783 53.8561 48.2834C53.3948 48.9597 53.3901 49.5294 53.3901 49.5294C53.3901 50.1223 53.7257 50.5531 53.9074 50.7059C54.8907 51.5304 58.3065 50.0343 61.6244 48.6864C63.5723 47.8943 66.4802 46.7502 70.1477 45.4533C70.2782 45.6849 70.4133 45.9072 70.5578 46.1249C69.6164 46.477 68.6798 46.829 67.7384 47.181C64.3692 48.3992 62.0532 49.7517 61.6198 50.6133C61.3262 51.1876 61.3681 51.7111 61.3681 51.7111C61.4101 52.2484 61.699 52.6652 61.8435 52.8181C62.645 53.6379 65.0915 52.5448 67.4728 51.5767C68.8895 51.0024 71.0238 50.1686 73.7266 49.2561C73.7266 49.2515 73.7266 49.2469 73.7219 49.2422C73.9177 49.3673 74.1134 49.4877 74.3184 49.6035C72.2074 50.7152 70.2269 51.8037 69.1411 52.4892C68.8429 52.6791 68.1998 53.096 68.0134 53.7676C67.827 54.4207 68.1625 55.009 68.2091 55.0924C68.251 55.1665 68.4794 55.5417 68.8522 55.7501C69.7189 56.2365 71.1123 55.6853 71.6575 55.4583C74.0435 54.481 77.697 52.744 80.5303 51.3729C83.4195 51.4934 86.2155 50.6318 89.2725 49.2376C93.4013 47.3524 96.7659 45.1244 98.5507 41.5161C100.326 37.9171 100.471 34.4756 98.9654 31.2101C97.4136 27.8519 94.6595 25.6471 90.7311 24.5817ZM95.1628 32.8961C96.2812 35.314 96.174 37.8662 94.8553 40.5388C93.5318 43.2114 90.9315 44.7353 87.8698 46.1296C84.906 47.4821 82.3803 48.2973 79.4864 47.5516C76.5832 46.8058 74.5747 45.2217 73.4563 42.7992C72.3053 40.3072 72.3798 37.7087 73.6893 34.9944C74.9895 32.2847 77.3474 30.8858 80.3112 29.5379C83.3729 28.1391 86.141 27.1988 89.0628 27.9816C91.9753 28.769 94.0164 30.4041 95.1675 32.8961H95.1628Z" fill="white"/>
<path d="M45.4258 3.83062C42.7928 6.4384 41.7397 9.82899 41.255 13.8078C39.2186 20.8808 37.9883 23.4979 36.6555 27.1895C36.1523 28.5791 36.6322 29.311 37.005 29.7325C37.5922 30.3995 38.6034 30.4551 39.2838 30.2883C40.1459 30.0752 40.7005 29.4546 41.1059 28.9126C42.0519 27.6574 42.5971 26.6985 42.9606 25.8787C43.0724 26.0547 43.1843 26.2354 43.3054 26.4114C43.7388 27.0413 44.2048 27.5971 44.6848 28.1206C44.3819 29.9733 44.079 31.8307 43.7808 33.6835C43.0445 37.9403 43.0165 41.1734 43.5664 42.1368C43.9345 42.7853 44.4378 43.0447 44.4378 43.0447C44.9551 43.3133 45.5003 43.2624 45.724 43.1929C46.9216 42.8363 47.2665 39.6171 47.6859 36.5461C47.8769 35.1657 48.1565 33.2667 48.562 30.9692C48.7297 31.0433 48.9022 31.1035 49.0699 31.1684C48.7204 33.3593 48.3709 35.5502 48.0214 37.7457C47.1966 42.6371 47.108 46.338 47.6393 47.4311C47.9981 48.163 48.4967 48.4548 48.4967 48.4548C49.0093 48.7559 49.5546 48.6818 49.7829 48.5984C50.9899 48.1676 51.3999 44.476 51.8846 40.9464C52.1688 38.8759 52.6255 35.8003 53.3292 31.9929C53.5948 31.9929 53.8604 31.9929 54.1214 31.9743C53.9583 32.9609 53.7952 33.9429 53.6321 34.9295C53.0077 38.4405 53.031 41.1085 53.5622 41.9145C53.9164 42.4564 54.3917 42.6788 54.3917 42.6788C54.881 42.9104 55.3889 42.8733 55.594 42.8224C56.7077 42.5444 56.9827 39.8903 57.3275 37.3567C57.5372 35.8466 57.8774 33.6001 58.432 30.8117C58.4273 30.8117 58.4226 30.8117 58.418 30.8117C58.623 30.7052 58.8281 30.594 59.0331 30.4782C58.9446 32.8498 58.9026 35.1009 58.9585 36.3793C58.9725 36.7313 59.0191 37.491 59.5038 37.9912C59.9791 38.4776 60.6595 38.4869 60.7573 38.4869C60.8412 38.4869 61.2839 38.4776 61.6521 38.2645C62.5095 37.7643 62.7239 36.2867 62.8031 35.7031C63.1433 33.1601 63.4601 29.1442 63.6792 26.0223C65.2263 23.5905 65.8787 20.7558 66.1909 17.43C66.615 12.937 66.3494 8.92576 64.1032 5.58149C61.8431 2.23259 58.9166 0.389078 55.319 0.0555774C51.6143 -0.287187 48.3196 0.977335 45.4304 3.83062H45.4258ZM54.8857 4.17338C57.5512 4.4235 59.7228 5.78993 61.3911 8.25876C63.0594 10.7369 63.0827 13.7337 62.7705 17.0687C62.4676 20.2926 61.9177 22.8772 59.816 24.9986C57.7143 27.1247 55.3284 28.0603 52.6628 27.8148C49.918 27.5601 47.6859 26.1937 45.9756 23.7156C44.2654 21.2421 44.2281 18.5139 44.531 15.2854C44.8432 11.9504 45.4071 9.09714 47.5507 6.97571C49.6944 4.85891 52.1362 3.92325 54.8857 4.17801V4.17338Z" fill="white"/>
<path d="M4.69228 32.4514C5.64759 36.0226 8.07548 38.6211 11.3002 41.0344C16.4449 46.3241 18.1086 48.691 20.6576 51.6832C21.6176 52.8088 22.4937 52.7625 23.0436 52.656C23.915 52.4846 24.4742 51.6416 24.6699 50.9746C24.9169 50.1269 24.6513 49.3395 24.381 48.7142C23.7612 47.2736 23.1973 46.3241 22.6614 45.6015C22.8711 45.5969 23.0808 45.5876 23.2952 45.5691C24.0594 45.5089 24.7771 45.3884 25.4714 45.2356C26.9347 46.4214 28.4026 47.6118 29.8659 48.7975C33.2071 51.5628 36.0078 53.1979 37.1216 53.2072C37.8718 53.2118 38.3472 52.9107 38.3472 52.9107C38.8411 52.6004 39.0648 52.1048 39.1207 51.8824C39.4096 50.6735 36.7767 48.7697 34.3116 46.8706C33.2025 46.0184 31.6926 44.828 29.8892 43.3272C30.0383 43.2207 30.1734 43.1002 30.3179 42.9891C32.0514 44.3879 33.7896 45.7821 35.5232 47.181C39.3724 50.3353 42.5505 52.2669 43.7715 52.3502C44.5916 52.4105 45.0902 52.1233 45.0902 52.1233C45.6075 51.8315 45.8172 51.322 45.8592 51.0904C46.0875 49.8351 43.0724 47.6349 40.2438 45.4579C38.5802 44.1795 36.129 42.248 33.1652 39.7374C33.3003 39.5105 33.4261 39.2789 33.5427 39.0473C34.3209 39.6819 35.0944 40.3118 35.8727 40.9464C38.6174 43.2392 40.9568 44.5547 41.9214 44.4991C42.5692 44.462 43.0025 44.1656 43.0025 44.1656C43.4499 43.8599 43.6689 43.4059 43.7295 43.2021C44.0464 42.1044 41.8702 40.5434 39.8337 38.9778C38.6221 38.0468 36.8326 36.6248 34.6844 34.7535C34.6844 34.7535 34.675 34.7627 34.675 34.7674C34.689 34.5358 34.6937 34.3042 34.689 34.0726C36.7115 35.3325 38.6501 36.4951 39.7964 37.088C40.1087 37.2501 40.7937 37.5929 41.474 37.4215C42.1358 37.2547 42.4806 36.6711 42.5319 36.5924C42.5738 36.5182 42.7882 36.1338 42.7835 35.7076C42.7742 34.721 41.5952 33.7947 41.1292 33.438C39.0834 31.8724 35.7469 29.5935 33.1372 27.8426C31.7951 25.295 29.6468 23.3172 26.9067 21.3857C23.202 18.7732 19.5765 16.9946 15.5409 17.2586C11.5146 17.5319 8.44362 19.1253 6.35592 22.0573C4.20298 25.0727 3.65775 28.5467 4.7016 32.456L4.69228 32.4514ZM9.72048 24.4798C11.2723 22.3074 13.5464 21.1216 16.5335 20.9225C19.5252 20.7279 22.1535 22.2055 24.8983 24.1417C27.5591 26.0176 29.5303 27.7824 30.3272 30.6496C31.1334 33.5214 30.7513 36.0412 29.2041 38.2135C27.6104 40.4508 25.3083 41.6875 22.2886 41.9191C19.2782 42.1553 16.883 40.8213 14.2221 38.95C11.4727 37.0139 9.26845 35.1009 8.49022 32.1966C7.71665 29.297 8.12208 26.7217 9.72048 24.4844V24.4798Z" fill="white"/>
<path d="M9.26856 81.828C12.8568 82.7915 16.3379 81.9994 20.0473 80.4292C27.2284 78.6459 30.1223 78.3958 34.0041 77.6963C35.4674 77.4323 35.8635 76.6588 36.0452 76.1261C36.3341 75.2877 35.8774 74.3891 35.3881 73.8842C34.773 73.2497 33.9528 73.0829 33.2771 73.0042C31.7114 72.8189 30.6023 72.8282 29.7075 72.9254C29.8054 72.7402 29.9033 72.5549 29.9965 72.365C30.3273 71.6794 30.579 70.9985 30.7933 70.3223C32.5595 69.6553 34.3256 68.9883 36.0965 68.3213C40.174 66.8252 43.0027 65.2364 43.5665 64.2776C43.944 63.6337 43.9207 63.0733 43.9207 63.0733C43.8974 62.4896 43.5758 62.0496 43.4081 61.8921C42.4994 61.0398 39.5216 62.3553 36.637 63.5272C35.3369 64.0552 33.5474 64.7593 31.3386 65.5606C31.3199 65.38 31.2826 65.1993 31.2593 65.0233C33.3424 64.2266 35.4301 63.4346 37.5131 62.6379C42.1871 60.9009 45.4585 59.1315 46.1435 58.1264C46.6049 57.4501 46.6095 56.8804 46.6095 56.8804C46.6095 56.2875 46.274 55.8567 46.0923 55.7038C45.109 54.8794 41.6932 56.3755 38.3752 57.7234C36.4273 58.5154 33.5195 59.6595 29.852 60.9565C29.7215 60.7249 29.5864 60.5025 29.4419 60.2848C30.3832 59.9328 31.3199 59.5808 32.2612 59.2288C35.6305 58.0106 37.9465 56.658 38.3799 55.7965C38.6735 55.2221 38.6315 54.6987 38.6315 54.6987C38.5896 54.1614 38.3007 53.7445 38.1562 53.5917C37.3547 52.7718 34.9082 53.865 32.5269 54.833C31.1102 55.4074 28.9759 56.2412 26.2731 57.1536C26.2731 57.1583 26.2731 57.1629 26.2777 57.1675C26.082 57.0425 25.8863 56.922 25.6813 56.8062C27.7923 55.6946 29.7728 54.6061 30.8586 53.9205C31.1568 53.7306 31.7999 53.3138 31.9863 52.6421C32.1727 51.989 31.8372 51.4008 31.7906 51.3174C31.7486 51.2433 31.5203 50.8681 31.1475 50.6597C30.2807 50.1733 28.8874 50.7245 28.3421 50.9515C25.9562 51.9288 22.3027 53.6658 19.4694 55.0368C16.5802 54.9164 13.7842 55.778 10.7272 57.1722C6.59836 59.0574 3.2338 61.2853 1.449 64.8936C-0.326477 68.4927 -0.470939 71.9342 1.03426 75.1997C2.58605 78.5579 5.34014 80.7627 9.26856 81.828ZM4.83686 73.5137C3.71845 71.0958 3.82563 68.5436 5.14442 65.871C6.46787 63.1983 9.06818 61.6744 12.1298 60.2802C15.0936 58.9277 17.6194 58.1125 20.5133 58.8582C23.4165 59.6039 25.425 61.1881 26.5434 63.6106C27.6944 66.1026 27.6198 68.7011 26.3104 71.4154C25.0102 74.1251 22.6522 75.524 19.6884 76.8719C16.6268 78.2707 13.8587 79.211 10.9369 78.4282C8.02433 77.6408 5.98323 76.0057 4.8322 73.5137H4.83686Z" fill="white"/>
<path d="M54.5734 102.579C57.2063 99.9714 58.2595 96.5808 58.7441 92.6019C60.7806 85.529 62.0108 82.9119 63.3436 79.2202C63.8469 77.8307 63.3669 77.0988 62.9941 76.6773C62.4069 76.0103 61.3957 75.9547 60.7153 76.1215C59.8532 76.3345 59.2987 76.9552 58.8933 77.4972C57.9473 78.7524 57.402 79.7112 57.0386 80.5311C56.9267 80.3551 56.8149 80.1744 56.6937 79.9984C56.2603 79.3685 55.7943 78.8126 55.3143 78.2892C55.6172 76.4364 55.9201 74.579 56.2184 72.7263C56.9547 68.4695 56.9826 65.2364 56.4328 64.2729C56.0646 63.6245 55.5613 63.3651 55.5613 63.3651C55.0441 63.0964 54.4988 63.1474 54.2752 63.2169C53.0775 63.5735 52.7327 66.7927 52.3133 69.8637C52.1222 71.244 51.8426 73.1431 51.4372 75.4406C51.2694 75.3665 51.097 75.3063 50.9292 75.2414C51.2787 73.0505 51.6282 70.8596 51.9777 68.664C52.8026 63.7727 52.8911 60.0718 52.3599 58.9786C52.001 58.2468 51.5024 57.955 51.5024 57.955C50.9898 57.6539 50.4446 57.728 50.2162 57.8114C49.0093 58.2422 48.5992 61.9338 48.1146 65.4634C47.8303 67.5338 47.3736 70.6095 46.6699 74.4169C46.4043 74.4169 46.1387 74.4169 45.8777 74.4354C46.0408 73.4488 46.2039 72.4669 46.367 71.4803C46.9915 67.9692 46.9682 65.3012 46.4369 64.4953C46.0828 63.9533 45.6075 63.731 45.6075 63.731C45.1182 63.4994 44.6102 63.5365 44.4052 63.5874C43.2914 63.8653 43.0165 66.5194 42.6716 69.0531C42.4619 70.5631 42.1217 72.8096 41.5672 75.5981C41.5719 75.5981 41.5765 75.5981 41.5812 75.5981C41.3761 75.7046 41.1711 75.8158 40.966 75.9316C41.0546 73.56 41.0965 71.3089 41.0406 70.0305C41.0266 69.6784 40.98 68.9188 40.4954 68.4185C40.0201 67.9322 39.3397 67.9229 39.2418 67.9229C39.1579 67.9229 38.7152 67.9322 38.3471 68.1453C37.4897 68.6455 37.2753 70.1231 37.1961 70.7067C36.8559 73.2497 36.539 77.2656 36.32 80.3875C34.7728 82.8193 34.1204 85.654 33.8082 88.9798C33.3841 93.4728 33.6498 97.484 35.8959 100.828C38.1467 104.159 41.0732 106.002 44.6708 106.336C48.3755 106.678 51.6702 105.414 54.5594 102.561L54.5734 102.579ZM45.1135 102.236C42.4479 101.986 40.2764 100.62 38.6081 98.151C36.9398 95.6729 36.9165 92.6761 37.2287 89.3411C37.5316 86.1172 38.0815 83.5326 40.1832 81.4112C42.2848 79.2851 44.6708 78.3494 47.3363 78.5949C50.0811 78.8497 52.3133 80.2161 54.0235 82.6942C55.7337 85.1677 55.771 87.8959 55.4681 91.1244C55.1559 94.4594 54.592 97.3126 52.4484 99.4341C50.3048 101.551 47.8629 102.487 45.1135 102.232V102.236Z" fill="white"/>
<path d="M28.9669 111.472C28.9436 111.199 29.0368 110.958 29.2558 110.745C29.4701 110.532 29.7404 110.463 30.0666 110.435C30.3928 110.407 30.6957 110.426 30.9427 110.602C31.1897 110.773 31.3248 110.995 31.3528 111.269C31.3808 111.542 31.2783 111.769 31.0639 111.977C30.8495 112.186 30.5559 112.255 30.2204 112.288C29.8849 112.32 29.6239 112.288 29.3769 112.126C29.13 111.959 28.9948 111.741 28.9715 111.477L28.9669 111.472Z" fill="white"/>
<path d="M70.7906 111.472C70.7673 111.199 70.8605 110.958 71.0795 110.745C71.2939 110.532 71.5642 110.463 71.8904 110.435C72.2166 110.407 72.5195 110.426 72.7665 110.602C73.0134 110.773 73.1486 110.995 73.1765 111.269C73.2045 111.542 73.102 111.769 72.8876 111.977C72.6733 112.186 72.3797 112.255 72.0441 112.288C71.7086 112.32 71.4477 112.288 71.2007 112.126C70.9537 111.959 70.8186 111.741 70.7953 111.477L70.7906 111.472Z" fill="white"/>
<path d="M10.7971 119.639C10.5361 119.449 10.3031 119.138 10.0934 118.708L8.97037 116.369L7.27411 112.839L6.1091 110.412H5.5965L4.58993 112.598L4.17984 113.487L2.86105 116.355L2.43232 117.29L2.0968 118.018C1.8871 118.448 1.68672 118.805 1.48633 119.074C1.28595 119.347 1.07159 119.546 0.838586 119.676C0.605584 119.801 0.325981 119.893 -0.00488281 119.949V120.5C0.307341 120.482 0.605584 120.468 0.885187 120.463C1.16479 120.463 1.45371 120.459 1.75662 120.459C2.0036 120.459 2.25058 120.459 2.4929 120.463C2.73989 120.468 3.00085 120.472 3.28045 120.477C3.56006 120.482 3.86296 120.491 4.1845 120.5V119.949C3.6253 119.921 3.21987 119.815 2.96357 119.629C2.70727 119.444 2.58144 119.166 2.58144 118.791C2.58144 118.481 2.67931 118.106 2.86105 117.679C3.57404 118.217 4.4408 118.365 5.45203 118.365C6.17434 118.365 6.81277 118.282 7.3813 118.027L7.67954 118.652C7.8473 118.981 7.9172 119.236 7.88458 119.421C7.85196 119.602 7.71216 119.731 7.4745 119.81C7.23217 119.884 6.87335 119.931 6.38871 119.949V120.5C6.62637 120.482 6.98053 120.468 7.46052 120.463C7.93584 120.463 8.51369 120.459 9.18473 120.459C9.78122 120.459 10.3078 120.459 10.7598 120.463C11.2119 120.468 11.594 120.482 11.8969 120.5V119.949C11.4216 119.931 11.0581 119.829 10.7971 119.639ZM5.44737 117.573C4.66449 117.573 3.98878 117.503 3.44821 117.059C3.36899 116.994 3.30841 116.92 3.23851 116.85L4.82759 113.367L4.99535 112.996L5.16311 113.349L7.02713 117.281C6.56579 117.522 6.04386 117.573 5.44272 117.573H5.44737Z" fill="white"/>
<path d="M26.5339 118.541C26.4034 118.888 26.2356 119.148 26.0352 119.324C25.8395 119.495 25.5832 119.583 25.285 119.583C24.9448 119.583 24.6978 119.49 24.5394 119.31C24.3809 119.124 24.3064 118.823 24.3064 118.397V113.599C24.4182 113.575 24.5347 113.548 24.6512 113.515C24.9867 113.427 25.2943 113.316 25.5925 113.196V112.32C25.257 112.505 24.8749 112.64 24.4555 112.751C24.4042 112.765 24.3576 112.774 24.311 112.788V110.699C24.0267 110.792 23.7238 110.861 23.3976 110.898C23.0714 110.935 22.7219 110.954 22.3538 110.954V112.686C22.0649 112.538 21.8319 112.353 21.6548 112.13V113.293C21.7573 113.353 21.8505 113.418 21.967 113.469C22.0975 113.529 22.228 113.571 22.3585 113.608V117.948C22.3585 118.814 22.5495 119.458 22.941 119.875C23.3277 120.292 23.9056 120.5 24.6745 120.5C25.2896 120.5 25.7789 120.361 26.1424 120.079C26.5059 119.796 26.7948 119.338 26.9999 118.694L26.5478 118.536L26.5339 118.541Z" fill="white"/>
<path d="M27.9602 120.5V119.935C28.5008 119.926 28.8736 119.847 29.0786 119.703C29.2837 119.56 29.3815 119.291 29.3815 118.893V114.863C29.3815 114.442 29.2837 114.127 29.0833 113.923C28.8876 113.719 28.5101 113.608 27.9556 113.589V113.024C28.1513 113.033 28.347 113.043 28.5521 113.052C28.7571 113.061 28.9621 113.066 29.1765 113.066C29.5912 113.066 29.9873 113.047 30.3555 113.015C30.7236 112.982 31.0685 112.932 31.39 112.862V118.888C31.39 119.282 31.5019 119.555 31.7255 119.699C31.9492 119.842 32.3267 119.921 32.8579 119.93V120.496C32.7135 120.486 32.5084 120.477 32.2475 120.472C31.9865 120.472 31.6976 120.458 31.376 120.449C31.0545 120.44 30.733 120.435 30.4021 120.435C29.9547 120.435 29.4934 120.445 29.0227 120.458C28.5474 120.472 28.1932 120.486 27.9602 120.496V120.5Z" fill="white"/>
<path d="M69.7842 120.653V120.079C70.3387 120.069 70.7162 119.991 70.9259 119.842C71.1356 119.694 71.2381 119.421 71.2381 119.018V114.909C71.2381 114.479 71.1356 114.159 70.9352 113.951C70.7348 113.747 70.3527 113.631 69.7842 113.612V113.038C69.9799 113.047 70.1849 113.057 70.39 113.066C70.5997 113.075 70.8094 113.08 71.0284 113.08C71.4525 113.08 71.8532 113.061 72.2307 113.029C72.6082 112.996 72.9577 112.945 73.2839 112.876V119.018C73.2839 119.421 73.3957 119.694 73.6241 119.842C73.8524 119.991 74.2345 120.069 74.7798 120.079V120.653C74.6306 120.644 74.4256 120.634 74.1553 120.63C73.8897 120.63 73.5914 120.616 73.2652 120.607C72.939 120.597 72.6082 120.593 72.2726 120.593C71.816 120.593 71.35 120.602 70.8653 120.616C70.3807 120.63 70.0218 120.644 69.7842 120.653Z" fill="white"/>
<path d="M54.5039 119.703C54.2989 119.555 54.201 119.287 54.201 118.902V116.952C54.201 116.878 54.2103 116.808 54.2103 116.73C54.2103 116.66 54.201 116.6 54.201 116.535C54.1777 115.544 54.0146 114.669 53.4414 113.978C52.8542 113.265 52.1459 112.908 51.3211 112.885C51.2931 112.885 51.2698 112.876 51.2419 112.876C50.3658 112.876 49.6202 113.251 49.0097 113.978C49.005 113.983 49.0004 113.988 48.9957 113.992C48.9584 114.039 48.9351 114.09 48.9025 114.14C48.8652 114.09 48.8419 114.029 48.8 113.978C48.1895 113.242 47.4579 112.876 46.6005 112.876C46.5259 112.876 46.4513 112.895 46.3768 112.899C45.6405 112.959 45.0021 113.284 44.4615 113.881V112.89C44.1446 112.959 43.7998 113.006 43.4409 113.043C43.0775 113.075 42.6953 113.094 42.2899 113.094C42.0662 113.094 41.8519 113.089 41.6422 113.08C41.4325 113.071 41.2321 113.061 41.041 113.052V113.612C41.5723 113.631 41.9404 113.738 42.1501 113.927C42.3598 114.122 42.4623 114.437 42.4623 114.877V118.898C42.4623 119.282 42.3598 119.551 42.1501 119.699C41.9404 119.847 41.5723 119.926 41.041 119.935V120.496C41.3299 120.486 41.7074 120.472 42.1641 120.458C42.6254 120.445 43.0635 120.435 43.4922 120.435C43.851 120.435 44.2005 120.445 44.55 120.458C44.8995 120.472 45.1885 120.486 45.4215 120.496V119.935C45.1232 119.926 44.9182 119.861 44.7737 119.768C44.7038 119.708 44.6432 119.639 44.578 119.574C44.5034 119.421 44.4662 119.194 44.4662 118.898V115.827C44.5267 115.4 44.6526 115.016 44.9275 114.682C45.3749 114.145 45.9154 113.872 46.5492 113.858C46.7356 113.923 46.894 114.029 47.0152 114.187C47.2249 114.455 47.3321 114.868 47.3321 115.428V118.902C47.3321 119.083 47.3134 119.236 47.2855 119.365C47.2529 119.509 47.2016 119.625 47.1317 119.703C46.9966 119.852 46.7542 119.93 46.4094 119.94V120.5C46.5911 120.491 46.8707 120.477 47.2435 120.463C47.6163 120.449 47.9985 120.44 48.3946 120.44C48.7348 120.44 49.0936 120.449 49.4804 120.463C49.8672 120.477 50.1421 120.491 50.3052 120.5V119.94C49.937 119.93 49.6854 119.852 49.5503 119.703C49.4151 119.555 49.3452 119.287 49.3452 118.902V118.356C49.3452 118.356 49.3545 118.337 49.3545 118.323C49.3545 118.319 49.3452 118.314 49.3452 118.305V115.586C49.3452 115.41 49.3312 115.252 49.3126 115.09C49.3219 115.072 49.3312 115.058 49.3406 115.044C49.4058 114.919 49.471 114.798 49.5689 114.682C50.0256 114.136 50.5801 113.858 51.2372 113.853C51.3257 113.853 51.4096 113.872 51.4982 113.881C51.6566 113.951 51.7871 114.048 51.8896 114.187C52.0993 114.455 52.2018 114.868 52.2018 115.428V118.902C52.2018 119.046 52.1832 119.162 52.1646 119.273C52.1319 119.458 52.0853 119.611 52.0015 119.703C51.8663 119.852 51.6193 119.93 51.2605 119.94V120.5C51.4469 120.491 51.7172 120.477 52.0807 120.463C52.4442 120.449 52.8356 120.44 53.2643 120.44C53.5533 120.44 53.8562 120.445 54.1637 120.454C54.4759 120.463 54.7602 120.472 55.0258 120.477C55.2914 120.482 55.4965 120.491 55.641 120.5V119.94C55.0911 119.93 54.7136 119.852 54.5086 119.703H54.5039Z" fill="white"/>
<path d="M68.0458 114.043C67.4214 113.307 66.6711 112.941 65.8043 112.955C64.9096 112.969 64.1547 113.358 63.5395 114.113C63.3997 114.284 63.2879 114.465 63.1947 114.655V108.86C62.8918 108.93 62.5469 108.981 62.1648 109.013C61.7827 109.045 61.3726 109.064 60.9299 109.064C60.7342 109.064 60.5245 109.059 60.3055 109.05C60.0864 109.041 59.8861 109.031 59.709 109.022V109.592C60.2682 109.61 60.6503 109.722 60.8554 109.921C61.0604 110.12 61.1629 110.44 61.1629 110.875V118.55C61.1629 118.796 61.1489 119.004 61.121 119.185C61.093 119.365 61.0418 119.523 60.9812 119.657C60.9159 119.791 60.8227 119.921 60.6969 120.037L61.079 120.519C61.2841 120.375 61.4984 120.236 61.7268 120.111C61.9505 119.986 62.1928 119.889 62.4538 119.829C62.7147 119.764 62.9617 119.727 63.1947 119.717V118.898C63.3065 119.129 63.4463 119.351 63.6281 119.56C64.2665 120.301 65.0354 120.662 65.9301 120.648C66.7969 120.635 67.5332 120.25 68.1344 119.49C68.7355 118.735 68.8753 117.869 68.8567 116.818C68.838 115.734 68.6703 114.78 68.0458 114.043ZM67.5379 118.796C67.0905 119.361 66.5453 119.643 65.9022 119.657C65.2405 119.666 64.6719 119.398 64.1966 118.851C63.7213 118.305 63.6421 117.652 63.6281 116.873C63.6141 116.067 63.6747 115.373 64.1314 114.808C64.5881 114.247 65.1473 113.96 65.809 113.946C66.4521 113.937 67.0066 114.205 67.4726 114.752C67.9386 115.299 68.0225 116.016 68.0365 116.822C68.0505 117.601 67.9852 118.231 67.5379 118.796Z" fill="white"/>
<path d="M81.9934 115.41H81.9468C81.9468 115.41 81.9468 115.437 81.9514 115.451C81.9654 115.442 81.9794 115.424 81.9934 115.41Z" fill="white"/>
<path d="M83.6245 114.692C83.4614 114.395 83.2517 114.154 83.0094 113.941C82.6133 113.589 82.1287 113.339 81.5275 113.219C81.2153 113.154 80.9077 113.149 80.6002 113.182C80.1994 113.223 79.8033 113.344 79.4025 113.511V112.876C78.8107 113.015 78.0884 113.084 77.2403 113.084C77.0026 113.084 76.7836 113.08 76.5785 113.071C76.3735 113.061 76.1498 113.052 75.9028 113.043V113.617C76.4387 113.636 76.8115 113.747 77.0306 113.941C77.0725 113.978 77.1051 114.025 77.1377 114.071C77.2822 114.27 77.3568 114.548 77.3568 114.914V119.023C77.3568 119.416 77.2542 119.69 77.0539 119.842C76.8535 119.995 76.4667 120.074 75.9028 120.083V120.658C76.1405 120.648 76.4947 120.634 76.9653 120.621C77.436 120.607 77.9206 120.597 78.4239 120.597C78.7781 120.597 79.1462 120.602 79.519 120.611C79.8965 120.621 80.246 120.63 80.5815 120.634C80.9124 120.639 81.178 120.648 81.3737 120.658V120.083C80.6328 120.074 80.1202 119.981 79.8313 119.805C79.6169 119.676 79.4817 119.472 79.4305 119.203C79.4118 119.111 79.4025 119.013 79.4025 118.907V114.423C79.7474 114.256 80.0829 114.131 80.4231 114.076C80.6701 114.034 80.917 114.02 81.1733 114.071C81.192 114.071 81.2106 114.085 81.2293 114.09C81.9143 114.242 82.4176 114.599 82.7298 115.169C82.7671 115.238 82.7904 115.308 82.8137 115.377C82.8277 115.377 82.8463 115.368 82.8603 115.368C83.1725 115.294 83.4847 115.22 83.8016 115.146C83.7504 114.997 83.6991 114.849 83.6245 114.706V114.692Z" fill="white"/>
<path d="M82.7857 115.586C82.7857 115.586 82.8136 115.558 82.8276 115.544H82.7764C82.7764 115.544 82.7764 115.572 82.781 115.586H82.7857Z" fill="white"/>
<path d="M92.441 113.191C92.2453 113.01 91.9703 112.918 91.6208 112.918C91.2434 112.918 90.8799 113.02 90.521 113.228C90.3067 113.353 90.1249 113.497 89.9618 113.663C89.9106 113.617 89.8593 113.571 89.8034 113.529C89.2582 113.122 88.4986 112.918 87.5246 112.918C86.5507 112.918 85.7958 113.126 85.2366 113.538C84.6773 113.951 84.3977 114.539 84.3977 115.308C84.3977 116.077 84.6773 116.637 85.2366 117.049C85.5721 117.295 85.9868 117.457 86.4668 117.559C86.0055 117.809 85.6606 118.068 85.4323 118.337C85.2226 118.587 85.1107 118.861 85.0874 119.152C84.696 119.375 84.3558 119.662 84.0809 120.051C83.5217 120.834 83.3539 121.649 83.5822 122.497C83.8013 123.321 84.3465 123.928 85.2226 124.317C86.094 124.711 86.9608 124.637 87.9673 124.368C89.0065 124.095 89.8826 123.706 90.4465 122.937C91.0057 122.168 91.1781 121.366 90.9591 120.547C90.7308 119.699 90.1762 119.074 89.3048 118.671C88.4566 118.282 87.5573 118.356 86.56 118.61C86.5087 118.536 86.4808 118.448 86.4808 118.346C86.4808 118.203 86.5181 118.073 86.5973 117.957C86.6672 117.855 86.7837 117.749 86.9468 117.638C87.1332 117.656 87.3196 117.67 87.5246 117.67C88.4986 117.67 89.2582 117.466 89.8034 117.059C90.3486 116.651 90.6236 116.067 90.6236 115.312C90.6236 114.803 90.5071 114.377 90.2741 114.029C90.3906 113.914 90.5071 113.83 90.6189 113.765C90.7308 113.705 90.8193 113.673 90.8845 113.673C91.0104 113.673 91.0989 113.733 91.1502 113.858C91.2014 113.983 91.2573 114.127 91.3086 114.289C91.3645 114.451 91.4391 114.594 91.5416 114.72C91.6441 114.845 91.7932 114.905 91.9983 114.905C92.222 114.905 92.3991 114.817 92.5342 114.636C92.6693 114.46 92.7346 114.233 92.7346 113.951C92.7346 113.626 92.6367 113.372 92.4363 113.186L92.441 113.191ZM88.7782 119.393C89.4259 119.694 89.836 120.157 90.0038 120.783C90.1669 121.394 90.0411 121.982 89.6217 122.557C89.2023 123.127 88.5359 123.381 87.7623 123.585C87.0167 123.784 86.3922 123.872 85.7445 123.585C85.0968 123.293 84.6913 122.844 84.5282 122.233C84.3605 121.603 84.4816 121 84.8964 120.417C85.3111 119.838 85.9169 119.602 86.6625 119.407C87.4361 119.203 88.1165 119.092 88.7689 119.393H88.7782ZM88.4893 116.665C88.2889 116.966 87.972 117.119 87.5246 117.119C87.1285 117.119 86.8256 116.966 86.6113 116.665C86.3969 116.364 86.2944 115.91 86.2944 115.303C86.2944 114.696 86.4016 114.201 86.6113 113.9C86.821 113.599 87.1332 113.446 87.5386 113.446C87.972 113.446 88.2889 113.599 88.4846 113.9C88.6803 114.201 88.7829 114.669 88.7829 115.303C88.7829 115.938 88.685 116.359 88.4846 116.665H88.4893Z" fill="white"/>
<path d="M99.4964 118.226C99.2401 118.712 98.9232 119.069 98.5551 119.296C98.1869 119.523 97.7442 119.639 97.227 119.639C96.5 119.639 95.9408 119.375 95.554 118.842C95.1765 118.328 94.9855 117.605 94.9761 116.683C95.0088 116.711 95.0321 116.739 95.0647 116.767C95.6239 117.207 96.267 117.309 97.0406 117.295C97.8421 117.281 98.5457 117.161 99.0956 116.702C99.2121 116.605 99.3053 116.503 99.3939 116.401C99.6875 116.058 99.8459 115.674 99.8785 115.252C99.8832 115.187 99.8972 115.132 99.8972 115.067C99.8878 114.414 99.5989 113.863 99.0397 113.413C98.4758 112.964 97.7862 112.867 96.9846 112.876C96.9334 112.876 96.8914 112.881 96.8402 112.885C96.8029 112.885 96.7703 112.881 96.733 112.881C95.9594 112.881 95.2884 113.033 94.7152 113.344C94.1467 113.654 93.6993 114.099 93.3731 114.678C93.0469 115.257 92.8838 115.961 92.8838 116.79C92.8838 117.619 93.0376 118.291 93.3358 118.874C93.6387 119.453 94.0628 119.898 94.6127 120.199C95.1625 120.505 95.815 120.658 96.5699 120.658C97.3761 120.658 98.0704 120.477 98.6669 120.116C99.2587 119.754 99.7014 119.236 99.9857 118.559L99.4824 118.23L99.4964 118.226ZM97.0406 116.693C96.514 116.702 96.0852 116.651 95.6938 116.401C95.6565 116.378 95.6146 116.359 95.582 116.331C95.3909 116.179 95.2464 116.012 95.1393 115.831C95.088 115.743 95.0507 115.65 95.0181 115.558C95.1066 114.909 95.2791 114.4 95.5447 114.048C95.6798 113.872 95.8289 113.737 95.9827 113.636C96.2856 113.52 96.6211 113.483 96.9986 113.478C97.5951 113.469 98.1077 113.511 98.5271 113.844C98.9418 114.178 99.1562 114.585 99.1655 115.071C99.1749 115.544 98.9745 115.947 98.569 116.285C98.5131 116.331 98.4432 116.364 98.3826 116.401C98.0052 116.628 97.5485 116.688 97.0359 116.693H97.0406Z" fill="white"/>
<path d="M39.4658 116.744C39.3913 116.67 39.3027 116.605 39.2095 116.54C38.8274 116.262 38.3008 116.03 37.6111 115.85C36.8422 115.646 36.3156 115.437 36.0221 115.22C35.7378 115.011 35.598 114.752 35.5887 114.446C35.5887 114.437 35.5887 114.428 35.5887 114.423C35.5887 114.117 35.6958 113.872 35.9102 113.696C36.1246 113.52 36.4321 113.432 36.8376 113.432C37.4154 113.432 37.914 113.603 38.3241 113.951C38.7389 114.293 39.0278 114.784 39.1955 115.419H39.7454C39.7408 115.224 39.7361 115.048 39.7361 114.882C39.7361 114.701 39.7361 114.534 39.7361 114.381C39.7361 114.09 39.7361 113.83 39.7501 113.612C39.7594 113.395 39.7827 113.177 39.82 112.964H39.2608C39.2049 113.121 39.1443 113.233 39.0837 113.298C39.0231 113.362 38.9392 113.395 38.8367 113.395C38.7342 113.395 38.6177 113.367 38.4919 113.325C38.0399 113.033 37.5412 112.871 36.9913 112.881C36.9261 112.881 36.8655 112.899 36.8003 112.904C35.9941 112.969 35.2997 113.339 34.7312 114.039C34.433 114.409 34.2466 114.821 34.1394 115.271C34.186 115.766 34.3724 116.188 34.7219 116.535C34.7499 116.563 34.7918 116.591 34.8244 116.619C35.2298 116.98 35.8217 117.281 36.6185 117.513C37.3315 117.716 37.8302 117.925 38.1144 118.133C38.4033 118.342 38.5431 118.601 38.5431 118.907C38.5431 119.24 38.4173 119.5 38.1703 119.676C37.9234 119.852 37.5692 119.94 37.1078 119.94C36.4415 119.94 35.8916 119.741 35.4582 119.338C35.0201 118.939 34.7126 118.36 34.5215 117.605H33.9716C33.9809 118.031 33.9856 118.411 33.9856 118.745C33.9856 119.078 33.9856 119.375 33.9716 119.639C33.9623 119.903 33.9483 120.167 33.9297 120.426H34.4796C34.5914 120.148 34.7638 120.009 34.9968 120.009C35.1273 120.009 35.2951 120.051 35.4908 120.13C35.556 120.157 35.6399 120.185 35.7191 120.213C35.8683 120.264 36.0314 120.32 36.2224 120.375C36.5114 120.458 36.8609 120.5 37.2756 120.5C37.4573 120.5 37.6251 120.486 37.7929 120.468C38.3707 120.31 38.8833 119.963 39.3214 119.407C39.7268 118.898 39.9085 118.332 39.9878 117.702C39.9085 117.323 39.7408 117.003 39.4658 116.739V116.744Z" fill="white"/>
<path d="M81.9934 112.07H81.9468C81.9468 112.07 81.9468 112.098 81.9514 112.112C81.9654 112.102 81.9794 112.084 81.9934 112.07Z" fill="white"/>
<path d="M19.586 119.444C19.3763 119.245 19.2738 118.935 19.2738 118.513V112.853C18.9802 112.918 18.6633 112.969 18.3231 113.001C17.9829 113.033 17.6101 113.052 17.2047 113.052C16.995 113.052 16.7993 113.047 16.6129 113.038C16.4265 113.029 16.2541 113.02 16.0816 113.01V113.561C16.5383 113.58 16.8505 113.682 17.0323 113.858C17.2094 114.039 17.3026 114.349 17.3026 114.789V118.318C17.256 118.601 17.1674 118.86 16.9857 119.097C16.6828 119.49 16.3053 119.694 15.858 119.708C15.3966 119.722 15.0005 119.541 14.665 119.162C14.2549 118.698 14.2316 118.078 14.2223 117.79C14.1664 116.012 14.4366 112.987 14.4506 112.853C14.1384 112.918 13.8029 112.969 13.4487 113.001C13.0945 113.033 12.7031 113.052 12.279 113.052C12.06 113.052 11.8503 113.047 11.6453 113.038C11.4402 113.029 11.2445 113.02 11.0581 113.01V113.561C11.5661 113.58 11.9342 113.682 12.1532 113.858C12.3722 114.039 12.4794 114.354 12.4794 114.803V117.781C12.4794 118.675 12.6845 119.351 13.0992 119.815C13.5093 120.278 14.1058 120.505 14.8793 120.505C15.4386 120.505 15.9372 120.384 16.3799 120.143C16.7853 119.926 17.0882 119.606 17.3119 119.217V120.458C17.6334 120.394 17.9736 120.343 18.3278 120.31C18.6819 120.278 19.0641 120.259 19.4695 120.259C19.6885 120.259 19.9029 120.259 20.1079 120.264C20.3176 120.269 20.5087 120.282 20.6904 120.301V119.75C20.1685 119.74 19.805 119.639 19.5953 119.439L19.586 119.444Z" fill="white"/>
</g>
<defs>
<clipPath id="clip0_608_109">
<rect width="100" height="124.59" fill="white"/>
</clipPath>
</defs>
</svg>
