<svg width="70" height="88" viewBox="0 0 70 88" fill="none" xmlns="http://www.w3.org/2000/svg">
<path d="M66.715 52.0816C66.0463 49.5665 64.3468 47.7365 62.0894 46.037C58.4882 42.3118 57.3236 40.6449 55.5393 38.5376C54.8673 37.7449 54.254 37.7775 53.8691 37.8526C53.2591 37.9733 52.8677 38.567 52.7307 39.0367C52.5578 39.6336 52.7437 40.1882 52.9329 40.6286C53.3668 41.6431 53.7615 42.3118 54.1366 42.8207C53.9898 42.8239 53.843 42.8304 53.693 42.8435C53.158 42.8859 52.6556 42.9707 52.1696 43.0784C51.1453 42.2433 50.1178 41.4049 49.0935 40.5699C46.7546 38.6224 44.7941 37.4709 44.0145 37.4644C43.4893 37.4611 43.1566 37.6732 43.1566 37.6732C42.8108 37.8917 42.6542 38.2408 42.6151 38.3973C42.4129 39.2487 44.2559 40.5894 45.9815 41.9269C46.7579 42.5271 47.8148 43.3654 49.0772 44.4223C48.9728 44.4973 48.8782 44.5822 48.7771 44.6604C47.5636 43.6753 46.3469 42.6934 45.1334 41.7083C42.4389 39.4869 40.2142 38.1266 39.3596 38.0679C38.7855 38.0255 38.4364 38.2277 38.4364 38.2277C38.0743 38.4332 37.9276 38.792 37.8982 38.9551C37.7384 39.8392 39.8489 41.3886 41.8289 42.9218C42.9935 43.8221 44.7093 45.1824 46.784 46.9504C46.6894 47.1102 46.6013 47.2733 46.5198 47.4364C45.975 46.9895 45.4335 46.5459 44.8887 46.099C42.9674 44.4843 41.3299 43.5579 40.6546 43.597C40.2012 43.6231 39.8978 43.8319 39.8978 43.8319C39.5847 44.0472 39.4314 44.3669 39.3889 44.5104C39.1671 45.2835 40.6905 46.3828 42.116 47.4854C42.9641 48.141 44.2168 49.1425 45.7206 50.4603C45.7206 50.4603 45.7271 50.4538 45.7271 50.4506C45.7173 50.6137 45.714 50.7768 45.7173 50.9399C44.3016 50.0526 42.9446 49.2338 42.1421 48.8163C41.9235 48.7021 41.444 48.4607 40.9678 48.5814C40.5046 48.6988 40.2632 49.1099 40.2273 49.1653C40.1979 49.2175 40.0479 49.4883 40.0511 49.7884C40.0577 50.4832 40.883 51.1356 41.2092 51.3868C42.6412 52.4893 44.9768 54.0942 46.8035 55.3273C47.743 57.1214 49.2468 58.5143 51.1649 59.8746C53.7582 61.7144 56.2961 62.967 59.121 62.781C61.9394 62.5886 64.0891 61.4664 65.5505 59.4016C67.0575 57.278 67.4392 54.8315 66.7085 52.0783L66.715 52.0816ZM63.1953 57.6955C62.109 59.2254 60.5171 60.0605 58.4262 60.2008C56.332 60.3378 54.4922 59.2972 52.5708 57.9337C50.7082 56.6125 49.3284 55.3697 48.7706 53.3505C48.2062 51.328 48.4737 49.5535 49.5567 48.0236C50.6723 46.448 52.2838 45.5771 54.3976 45.414C56.5048 45.2476 58.1815 46.1871 60.0442 47.5049C61.9688 48.8685 63.5117 50.2157 64.0565 52.261C64.5979 54.303 64.3142 56.1167 63.1953 57.6923V57.6955Z" fill="black"/>
<path d="M63.5117 17.3115C61 16.633 58.5632 17.1909 55.9666 18.2967C50.9399 19.5526 48.9141 19.7287 46.1968 20.2213C45.1726 20.4072 44.8953 20.952 44.7681 21.3271C44.5658 21.9175 44.8855 22.5504 45.228 22.9059C45.6586 23.3528 46.2327 23.4703 46.7057 23.5257C47.8018 23.6562 48.5781 23.6497 49.2044 23.5812C49.1359 23.7117 49.0674 23.8421 49.0022 23.9759C48.7706 24.4587 48.5944 24.9382 48.4444 25.4144C47.2081 25.8842 45.9718 26.3539 44.7322 26.8236C41.8779 27.8773 39.8979 28.9962 39.5032 29.6714C39.2389 30.1248 39.2552 30.5195 39.2552 30.5195C39.2715 30.9305 39.4966 31.2404 39.6141 31.3513C40.2502 31.9516 42.3346 31.0251 44.3538 30.1998C45.2639 29.828 46.5165 29.3321 48.0627 28.7678C48.0758 28.895 48.1019 29.0223 48.1182 29.1462C46.6601 29.7073 45.1987 30.2651 43.7405 30.8262C40.4687 32.0494 38.1788 33.2955 37.6993 34.0034C37.3763 34.4796 37.373 34.8809 37.373 34.8809C37.373 35.2984 37.6079 35.6018 37.7351 35.7094C38.4234 36.2901 40.8145 35.2364 43.1371 34.2872C44.5006 33.7294 46.5361 32.9236 49.1033 32.0103C49.1947 32.1734 49.2893 32.33 49.3904 32.4833C48.7315 32.7312 48.0758 32.9791 47.4169 33.227C45.0584 34.0849 43.4372 35.0374 43.1338 35.6442C42.9283 36.0487 42.9577 36.4173 42.9577 36.4173C42.987 36.7957 43.1893 37.0893 43.2904 37.1969C43.8514 37.7743 45.564 37.0044 47.2309 36.3227C48.2226 35.9182 49.7166 35.331 51.6086 34.6884C51.6086 34.6851 51.6086 34.6819 51.6053 34.6786C51.7423 34.7667 51.8793 34.8515 52.0228 34.9331C50.5451 35.7159 49.1588 36.4825 48.3987 36.9653C48.19 37.099 47.7398 37.3926 47.6093 37.8656C47.4788 38.3256 47.7137 38.7399 47.7463 38.7986C47.7757 38.8508 47.9355 39.115 48.1965 39.2618C48.8032 39.6043 49.7786 39.2161 50.1602 39.0563C51.8304 38.368 54.3878 37.1447 56.3711 36.1792C58.3936 36.264 60.3508 35.6572 62.4907 34.6754C65.3809 33.3477 67.7361 31.7787 68.9854 29.2375C70.2283 26.7029 70.3294 24.2793 69.2757 21.9795C68.1895 19.6145 66.2616 18.0618 63.5117 17.3115ZM66.6139 23.1669C67.3968 24.8697 67.3218 26.6671 66.3986 28.5493C65.4722 30.4314 63.652 31.5047 61.5088 32.4865C59.4342 33.439 57.6662 34.0132 55.6404 33.488C53.6082 32.9628 52.2023 31.8472 51.4194 30.1411C50.6136 28.3862 50.6658 26.5562 51.5825 24.6446C52.4926 22.7363 54.1432 21.7512 56.2178 20.8019C58.361 19.8168 60.2986 19.1546 62.3439 19.7059C64.3827 20.2604 65.8115 21.4119 66.6172 23.1669H66.6139Z" fill="black"/>
<path d="M31.7984 2.69767C29.9554 4.5342 29.2181 6.92201 28.8789 9.72409C27.4534 14.7052 26.5922 16.5483 25.6593 19.1481C25.307 20.1267 25.643 20.6421 25.9039 20.939C26.3149 21.4087 27.0228 21.4478 27.4991 21.3304C28.1025 21.1804 28.4907 20.7432 28.7745 20.3616C29.4367 19.4776 29.8184 18.8023 30.0728 18.225C30.1511 18.3489 30.2294 18.4761 30.3142 18.6001C30.6176 19.0437 30.9438 19.4352 31.2798 19.8038C31.0677 21.1086 30.8557 22.4167 30.6469 23.7215C30.1315 26.7193 30.1119 28.9962 30.4969 29.6747C30.7546 30.1314 31.1069 30.3141 31.1069 30.3141C31.469 30.5033 31.8506 30.4674 32.0072 30.4184C32.8455 30.1673 33.0869 27.9002 33.3805 25.7374C33.5142 24.7653 33.71 23.4279 33.9938 21.8099C34.1112 21.8621 34.2319 21.9045 34.3493 21.9502C34.1047 23.4931 33.86 25.0361 33.6154 26.5823C33.038 30.027 32.976 32.6334 33.3479 33.4032C33.5991 33.9186 33.9481 34.1241 33.9481 34.1241C34.3069 34.3361 34.6886 34.284 34.8484 34.2252C35.6933 33.9219 35.9803 31.322 36.3196 28.8364C36.5186 27.3782 36.8383 25.2122 37.3308 22.5308C37.5168 22.5308 37.7027 22.5308 37.8854 22.5178C37.7712 23.2126 37.657 23.9042 37.5429 24.599C37.1057 27.0716 37.1221 28.9505 37.4939 29.5181C37.7418 29.8998 38.0746 30.0564 38.0746 30.0564C38.4171 30.2195 38.7727 30.1934 38.9162 30.1575C39.6958 29.9618 39.8883 28.0926 40.1297 26.3083C40.2764 25.2449 40.5146 23.6628 40.9028 21.699C40.8995 21.699 40.8962 21.699 40.893 21.699C41.0365 21.624 41.18 21.5457 41.3236 21.4642C41.2616 23.1343 41.2322 24.7197 41.2714 25.62C41.2812 25.8679 41.3138 26.4029 41.653 26.7552C41.9858 27.0977 42.462 27.1042 42.5305 27.1042C42.5892 27.1042 42.8991 27.0977 43.1568 26.9476C43.757 26.5953 43.9071 25.5547 43.9625 25.1437C44.2007 23.3529 44.4225 20.5247 44.5758 18.3261C45.6588 16.6135 46.1155 14.6171 46.334 12.275C46.6309 9.11083 46.445 6.28591 44.8727 3.93072C43.2906 1.57227 41.242 0.273979 38.7237 0.0391127C36.1304 -0.202278 33.8241 0.688258 31.8017 2.69767H31.7984ZM38.4203 2.93906C40.2862 3.11521 41.8063 4.07751 42.9742 5.81618C44.142 7.56136 44.1583 9.6719 43.9397 12.0206C43.7277 14.2909 43.3428 16.1112 41.8716 17.6052C40.4004 19.1024 38.7302 19.7614 36.8644 19.5885C34.943 19.4091 33.3805 18.4468 32.1833 16.7016C30.9862 14.9597 30.9601 13.0383 31.1721 10.7647C31.3907 8.41602 31.7854 6.4066 33.2859 4.91259C34.7864 3.42184 36.4957 2.76291 38.4203 2.94232V2.93906Z" fill="black"/>
<path d="M3.28513 22.8537C3.95385 25.3687 5.65337 27.1988 7.9107 28.8983C11.512 32.6235 12.6765 34.2904 14.4609 36.3977C15.1328 37.1904 15.7461 37.1577 16.131 37.0827C16.741 36.962 17.1325 36.3683 17.2695 35.8986C17.4424 35.3016 17.2564 34.7471 17.0672 34.3067C16.6334 33.2922 16.2387 32.6235 15.8635 32.1146C16.0103 32.1114 16.1571 32.1049 16.3072 32.0918C16.8422 32.0494 17.3445 31.9646 17.8305 31.8569C18.8548 32.692 19.8824 33.5304 20.9066 34.3654C23.2455 36.3129 25.206 37.4644 25.9856 37.4709C26.5108 37.4742 26.8435 37.2621 26.8435 37.2621C27.1893 37.0436 27.3459 36.6945 27.385 36.538C27.5873 35.6866 25.7442 34.3459 24.0186 33.0084C23.2423 32.4082 22.1854 31.5699 20.923 30.513C21.0273 30.438 21.1219 30.3531 21.2231 30.2748C22.4365 31.26 23.6533 32.2419 24.8668 33.227C27.5612 35.4484 29.7859 36.8087 30.6406 36.8674C31.2147 36.9098 31.5637 36.7076 31.5637 36.7076C31.9258 36.5021 32.0726 36.1433 32.1019 35.9802C32.2618 35.0961 30.1513 33.5467 28.1712 32.0135C27.0066 31.1132 25.2908 29.7529 23.2162 27.9849C23.3108 27.8251 23.3988 27.662 23.4804 27.4989C24.0252 27.9458 24.5666 28.3894 25.1114 28.8363C27.0327 30.451 28.6703 31.3774 29.3455 31.3383C29.799 31.3122 30.1023 31.1034 30.1023 31.1034C30.4155 30.8881 30.5688 30.5684 30.6112 30.4249C30.833 29.6518 29.3096 28.5525 27.8841 27.4499C27.036 26.7943 25.7834 25.7928 24.2796 24.475C24.2796 24.475 24.2731 24.4815 24.2731 24.4847C24.2829 24.3216 24.2861 24.1585 24.2829 23.9954C25.6986 24.8827 27.0556 25.7015 27.858 26.119C28.0766 26.2332 28.5561 26.4746 29.0324 26.3539C29.4956 26.2365 29.737 25.8254 29.7729 25.77C29.8022 25.7178 29.9523 25.447 29.949 25.1469C29.9425 24.4521 29.1172 23.7997 28.791 23.5485C27.3589 22.446 25.0233 20.841 23.1966 19.608C22.2571 17.8139 20.7533 16.421 18.8353 15.0607C16.2419 13.2209 13.7041 11.9683 10.8792 12.1542C8.06075 12.3467 5.91107 13.4688 4.44968 15.5337C2.94262 17.6573 2.56096 20.1038 3.29166 22.857L3.28513 22.8537ZM6.80487 17.2398C7.89113 15.7099 9.483 14.8748 11.574 14.7345C13.6682 14.5975 15.508 15.6381 17.4293 17.0016C19.2919 18.3228 20.6718 19.5656 21.2296 21.5848C21.7939 23.6073 21.5264 25.3818 20.4434 26.9117C19.3278 28.4873 17.7164 29.3582 15.6026 29.5213C13.4953 29.6877 11.8186 28.7482 9.956 27.4304C8.0314 26.0668 6.48845 24.7196 5.94369 22.6743C5.40219 20.6323 5.68599 18.8186 6.80487 17.243V17.2398Z" fill="black"/>
<path d="M6.48824 57.627C9.00001 58.3056 11.4367 57.7477 14.0333 56.6419C19.0601 55.386 21.0858 55.2099 23.8031 54.7173C24.8274 54.5314 25.1047 53.9866 25.2319 53.6115C25.4341 53.0211 25.1145 52.3882 24.7719 52.0327C24.3414 51.5858 23.7672 51.4683 23.2942 51.4129C22.1982 51.2824 21.4218 51.2889 20.7955 51.3574C20.864 51.2269 20.9325 51.0965 20.9978 50.9627C21.2294 50.4799 21.4055 50.0004 21.5556 49.5242C22.7919 49.0544 24.0282 48.5847 25.2678 48.115C28.1221 47.0613 30.1021 45.9424 30.4968 45.2672C30.761 44.8138 30.7447 44.4191 30.7447 44.4191C30.7284 44.0081 30.5033 43.6982 30.3859 43.5872C29.7498 42.987 27.6654 43.9135 25.6462 44.7387C24.7361 45.1106 23.4834 45.6064 21.9372 46.1708C21.9242 46.0436 21.8981 45.9163 21.8818 45.7924C23.3399 45.2313 24.8013 44.6735 26.2594 44.1124C29.5313 42.8892 31.8212 41.6431 32.3007 40.9352C32.6237 40.459 32.6269 40.0577 32.6269 40.0577C32.6269 39.6402 32.3921 39.3368 32.2648 39.2292C31.5765 38.6485 29.1855 39.7022 26.8629 40.6514C25.4994 41.2092 23.4639 42.015 20.8966 42.9283C20.8053 42.7652 20.7107 42.6086 20.6096 42.4553C21.2685 42.2074 21.9242 41.9595 22.5831 41.7116C24.9416 40.8537 26.5628 39.9012 26.8662 39.2944C27.0717 38.8899 27.0423 38.5213 27.0423 38.5213C27.013 38.1429 26.8107 37.8493 26.7096 37.7417C26.1485 37.1643 24.436 37.9341 22.7691 38.6159C21.7774 39.0204 20.2834 39.6076 18.3914 40.2502C18.3914 40.2535 18.3914 40.2567 18.3947 40.26C18.2577 40.1719 18.1207 40.0871 17.9771 40.0055C19.4548 39.2226 20.8412 38.4561 21.6012 37.9733C21.81 37.8395 22.2602 37.546 22.3907 37.073C22.5211 36.613 22.2863 36.1987 22.2537 36.14C22.2243 36.0878 22.0645 35.8236 21.8035 35.6768C21.1968 35.3343 20.2214 35.7225 19.8397 35.8823C18.1696 36.5706 15.6122 37.7939 13.6288 38.7594C11.6064 38.6746 9.64915 39.2814 7.50926 40.2632C4.61909 41.5909 2.2639 43.1599 1.01455 45.7011C-0.22829 48.2357 -0.329413 50.6593 0.724224 52.9591C1.81048 55.3241 3.73834 56.8768 6.48824 57.627ZM3.38604 51.7717C2.60316 50.0689 2.67818 48.2715 3.60134 46.3893C4.52776 44.5071 6.34797 43.4339 8.49113 42.4521C10.5658 41.4995 12.3338 40.9254 14.3595 41.4506C16.3918 41.9758 17.7977 43.0914 18.5806 44.7975C19.3863 46.5524 19.3341 48.3824 18.4175 50.294C17.5074 52.2023 15.8568 53.1874 13.7821 54.1367C11.639 55.1218 9.70134 55.784 7.65605 55.2327C5.61728 54.6782 4.1885 53.5267 3.38278 51.7717H3.38604Z" fill="black"/>
<path d="M38.202 72.241C40.045 70.4045 40.7822 68.0167 41.1215 65.2146C42.547 60.2335 43.4082 58.3904 44.3411 55.7906C44.6934 54.812 44.3574 54.2966 44.0965 53.9997C43.6854 53.53 42.9776 53.4908 42.5013 53.6083C41.8978 53.7583 41.5097 54.1954 41.2259 54.5771C40.5637 55.4611 40.182 56.1363 39.9276 56.7137C39.8493 56.5898 39.771 56.4626 39.6862 56.3386C39.3828 55.895 39.0566 55.5035 38.7206 55.1349C38.9327 53.8301 39.1447 52.522 39.3535 51.2172C39.8689 48.2194 39.8884 45.9425 39.5035 45.264C39.2458 44.8073 38.8935 44.6246 38.8935 44.6246C38.5314 44.4354 38.1498 44.4713 37.9932 44.5202C37.1548 44.7714 36.9135 47.0385 36.6199 49.2013C36.4861 50.1733 36.2904 51.5108 36.0066 53.1287C35.8892 53.0766 35.7685 53.0342 35.651 52.9885C35.8957 51.4455 36.1404 49.9026 36.385 48.3564C36.9624 44.9117 37.0244 42.3053 36.6525 41.5355C36.4013 41.0201 36.0523 40.8146 36.0523 40.8146C35.6935 40.6025 35.3118 40.6547 35.152 40.7134C34.3071 41.0168 34.02 43.6167 33.6808 46.1023C33.4818 47.5605 33.1621 49.7264 32.6695 52.4078C32.4836 52.4078 32.2977 52.4078 32.115 52.4209C32.2292 51.7261 32.3433 51.0345 32.4575 50.3397C32.8946 47.8671 32.8783 45.9882 32.5064 45.4206C32.2585 45.0389 31.9258 44.8823 31.9258 44.8823C31.5833 44.7192 31.2277 44.7453 31.0842 44.7812C30.3046 44.9769 30.1121 46.8461 29.8707 48.6304C29.7239 49.6938 29.4858 51.2759 29.0976 53.2397C29.1009 53.2397 29.1041 53.2397 29.1074 53.2397C28.9639 53.3147 28.8204 53.393 28.6768 53.4745C28.7388 51.8044 28.7682 50.219 28.729 49.3187C28.7192 49.0708 28.6866 48.5358 28.3474 48.1835C28.0146 47.841 27.5384 47.8345 27.4699 47.8345C27.4111 47.8345 27.1013 47.841 26.8436 47.991C26.2433 48.3433 26.0933 49.3839 26.0378 49.7949C25.7997 51.5858 25.5779 54.414 25.4246 56.6126C24.3416 58.3252 23.8849 60.3215 23.6663 62.6637C23.3695 65.8279 23.5554 68.6528 25.1277 71.008C26.7033 73.3534 28.7518 74.6517 31.2701 74.8865C33.8635 75.1279 36.1697 74.2374 38.1922 72.228L38.202 72.241ZM31.58 71.9996C29.7141 71.8235 28.194 70.8612 27.0262 69.1225C25.8584 67.3773 25.8421 65.2668 26.0607 62.9181C26.2727 60.6477 26.6576 58.8275 28.1288 57.3335C29.6 55.8362 31.2701 55.1773 33.136 55.3502C35.0574 55.5296 36.6199 56.4919 37.817 58.2371C39.0142 59.979 39.0403 61.9004 38.8283 64.174C38.6097 66.5227 38.215 68.5321 36.7145 70.0261C35.2139 71.5168 33.5046 72.1758 31.58 71.9964V71.9996Z" fill="black"/>
<path d="M20.2769 78.5042C20.2605 78.3117 20.3258 78.1421 20.4791 77.992C20.6292 77.842 20.8184 77.7931 21.0467 77.7735C21.275 77.7539 21.4871 77.767 21.66 77.8909C21.8328 78.0116 21.9274 78.1682 21.947 78.3607C21.9666 78.5531 21.8948 78.713 21.7448 78.8597C21.5947 79.0065 21.3892 79.0555 21.1543 79.0783C20.9195 79.1011 20.7368 79.0783 20.5639 78.9641C20.391 78.8467 20.2964 78.6934 20.2801 78.5074L20.2769 78.5042Z" fill="black"/>
<path d="M49.5532 78.5042C49.5369 78.3117 49.6022 78.1421 49.7555 77.992C49.9055 77.842 50.0947 77.7931 50.3231 77.7735C50.5514 77.7539 50.7634 77.767 50.9363 77.8909C51.1092 78.0116 51.2038 78.1682 51.2234 78.3607C51.243 78.5531 51.1712 78.713 51.0211 78.8597C50.8711 79.0065 50.6656 79.0555 50.4307 79.0783C50.1958 79.1011 50.0132 79.0783 49.8403 78.9641C49.6674 78.8467 49.5728 78.6934 49.5565 78.5074L49.5532 78.5042Z" fill="black"/>
<path d="M7.55798 84.2551C7.3753 84.1213 7.2122 83.9028 7.06541 83.5994L6.27926 81.9521L5.09188 79.4664L4.27637 77.7571H3.91755L3.21295 79.2968L2.92589 79.9231L2.00273 81.9423L1.70263 82.6012L1.46776 83.1133C1.32097 83.4167 1.1807 83.6679 1.04043 83.8571C0.900166 84.0495 0.750112 84.1898 0.58701 84.2811C0.423909 84.3692 0.228186 84.4345 -0.00341797 84.4736V84.8618C0.215138 84.8487 0.423909 84.839 0.619631 84.8357C0.815353 84.8357 1.0176 84.8324 1.22963 84.8324C1.40252 84.8324 1.57541 84.8324 1.74503 84.8357C1.91792 84.839 2.10059 84.8422 2.29632 84.8455C2.49204 84.8487 2.70407 84.8553 2.92915 84.8618V84.4736C2.53771 84.454 2.25391 84.379 2.0745 84.2485C1.89509 84.118 1.80701 83.9223 1.80701 83.6581C1.80701 83.4395 1.87551 83.1753 2.00273 82.8752C2.50182 83.2536 3.10856 83.358 3.81642 83.358C4.32204 83.358 4.76894 83.2993 5.16691 83.1199L5.37568 83.5602C5.49311 83.7918 5.54204 83.9713 5.51921 84.1017C5.49637 84.229 5.39851 84.3203 5.23215 84.3758C5.06252 84.4279 4.81135 84.4606 4.47209 84.4736V84.8618C4.63846 84.8487 4.88637 84.839 5.22236 84.8357C5.55509 84.8357 5.95958 84.8324 6.42931 84.8324C6.84685 84.8324 7.21547 84.8324 7.53188 84.8357C7.8483 84.839 8.11579 84.8487 8.32782 84.8618V84.4736C7.99509 84.4606 7.74065 84.3888 7.55798 84.2551ZM3.81316 82.8002C3.26514 82.8002 2.79215 82.7513 2.41375 82.4381C2.3583 82.3924 2.31589 82.3402 2.26696 82.2913L3.37931 79.8383L3.49675 79.5773L3.61418 79.8252L4.91899 82.5947C4.59605 82.7643 4.2307 82.8002 3.8099 82.8002H3.81316Z" fill="black"/>
<path d="M18.574 83.4819C18.4827 83.7265 18.3653 83.9092 18.225 84.0331C18.088 84.1538 17.9086 84.2158 17.6998 84.2158C17.4617 84.2158 17.2888 84.1506 17.1779 84.0233C17.067 83.8929 17.0148 83.6808 17.0148 83.3807V80.0013C17.0931 79.985 17.1746 79.9654 17.2562 79.9425C17.491 79.8806 17.7063 79.8023 17.9151 79.7175V79.1009C17.6802 79.2314 17.4128 79.326 17.1192 79.4043C17.0833 79.4141 17.0507 79.4206 17.0181 79.4304V77.9592C16.8191 78.0245 16.607 78.0734 16.3787 78.0995C16.1503 78.1256 15.9057 78.1386 15.648 78.1386V79.3586C15.4458 79.2543 15.2826 79.1238 15.1587 78.9672V79.786C15.2305 79.8284 15.2957 79.874 15.3772 79.9099C15.4686 79.9523 15.5599 79.9817 15.6513 80.0078V83.0643C15.6513 83.6743 15.785 84.1277 16.059 84.4213C16.3298 84.7149 16.7343 84.8617 17.2725 84.8617C17.7031 84.8617 18.0456 84.7638 18.3 84.5648C18.5545 84.3659 18.7567 84.0429 18.9002 83.5895L18.5838 83.4786L18.574 83.4819Z" fill="black"/>
<path d="M19.5721 84.8618V84.4638C19.9505 84.4573 20.2115 84.4018 20.355 84.3007C20.4985 84.1996 20.567 84.0104 20.567 83.7298V80.8919C20.567 80.595 20.4985 80.3732 20.3583 80.2297C20.2213 80.0861 19.957 80.0079 19.5688 79.9948V79.5968C19.7059 79.6034 19.8429 79.6099 19.9864 79.6164C20.1299 79.6229 20.2734 79.6262 20.4235 79.6262C20.7138 79.6262 20.9911 79.6131 21.2488 79.5903C21.5065 79.5675 21.7479 79.5316 21.973 79.4827V83.7266C21.973 84.0038 22.0513 84.1963 22.2078 84.2974C22.3644 84.3986 22.6286 84.454 23.0005 84.4605V84.8585C22.8994 84.852 22.7559 84.8454 22.5732 84.8422C22.3905 84.8422 22.1883 84.8324 21.9632 84.8259C21.7381 84.8194 21.513 84.8161 21.2814 84.8161C20.9683 84.8161 20.6453 84.8226 20.3159 84.8324C19.9831 84.8422 19.7352 84.852 19.5721 84.8585V84.8618Z" fill="black"/>
<path d="M48.8486 84.9694V84.5649C49.2368 84.5584 49.501 84.5029 49.6478 84.3985C49.7946 84.2941 49.8664 84.1017 49.8664 83.8179V80.9245C49.8664 80.6211 49.7946 80.396 49.6544 80.2492C49.5141 80.1057 49.2466 80.0241 48.8486 80.0111V79.6066C48.9856 79.6131 49.1292 79.6197 49.2727 79.6262C49.4195 79.6327 49.5663 79.636 49.7196 79.636C50.0164 79.636 50.297 79.6229 50.5612 79.6001C50.8254 79.5772 51.0701 79.5414 51.2984 79.4924V83.8179C51.2984 84.1017 51.3767 84.2941 51.5366 84.3985C51.6964 84.5029 51.9639 84.5584 52.3455 84.5649V84.9694C52.2411 84.9629 52.0976 84.9563 51.9084 84.9531C51.7225 84.9531 51.5137 84.9433 51.2854 84.9368C51.057 84.9302 50.8254 84.927 50.5906 84.927C50.2709 84.927 49.9447 84.9335 49.6054 84.9433C49.2662 84.9531 49.015 84.9629 48.8486 84.9694Z" fill="black"/>
<path d="M38.1525 84.3007C38.009 84.1963 37.9405 84.0071 37.9405 83.7363V82.363C37.9405 82.3108 37.947 82.2619 37.947 82.2064C37.947 82.1575 37.9405 82.1151 37.9405 82.0694C37.9242 81.3714 37.81 80.7548 37.4088 80.2688C36.9978 79.7664 36.5019 79.5153 35.9246 79.499C35.905 79.499 35.8887 79.4924 35.8691 79.4924C35.2558 79.4924 34.7339 79.7567 34.3066 80.2688C34.3033 80.2721 34.3001 80.2753 34.2968 80.2786C34.2707 80.3112 34.2544 80.3471 34.2316 80.383C34.2055 80.3471 34.1892 80.3047 34.1598 80.2688C33.7325 79.7501 33.2203 79.4924 32.6201 79.4924C32.5679 79.4924 32.5157 79.5055 32.4635 79.5087C31.9481 79.5511 31.5012 79.7795 31.1229 80.2003V79.5022C30.901 79.5511 30.6596 79.5838 30.4085 79.6099C30.154 79.6327 29.8865 79.6457 29.6027 79.6457C29.4462 79.6457 29.2961 79.6425 29.1493 79.636C29.0025 79.6294 28.8623 79.6229 28.7285 79.6164V80.0111C29.1004 80.0241 29.3581 80.0992 29.5049 80.2329C29.6517 80.3699 29.7234 80.5917 29.7234 80.9016V83.7331C29.7234 84.0038 29.6517 84.193 29.5049 84.2974C29.3581 84.4018 29.1004 84.4572 28.7285 84.4638V84.8585C28.9308 84.852 29.195 84.8422 29.5147 84.8324C29.8376 84.8226 30.1442 84.8161 30.4443 84.8161C30.6955 84.8161 30.9402 84.8226 31.1848 84.8324C31.4295 84.8422 31.6317 84.852 31.7948 84.8585V84.4638C31.5861 84.4572 31.4425 84.4116 31.3414 84.3463C31.2925 84.3039 31.2501 84.255 31.2044 84.2093C31.1522 84.1017 31.1261 83.9418 31.1261 83.7331V81.5703C31.1685 81.2702 31.2566 80.9995 31.4491 80.7646C31.7622 80.3862 32.1406 80.1938 32.5842 80.184C32.7147 80.2296 32.8256 80.3047 32.9104 80.4156C33.0572 80.6048 33.1323 80.8951 33.1323 81.2898V83.7363C33.1323 83.8636 33.1192 83.9712 33.0996 84.0625C33.0768 84.1637 33.0409 84.2452 32.992 84.3007C32.8974 84.4051 32.7278 84.4605 32.4864 84.467V84.8617C32.6136 84.8552 32.8093 84.8454 33.0703 84.8356C33.3312 84.8259 33.5987 84.8193 33.876 84.8193C34.1141 84.8193 34.3653 84.8259 34.6361 84.8356C34.9068 84.8454 35.0993 84.8552 35.2134 84.8617V84.467C34.9557 84.4605 34.7796 84.4051 34.685 84.3007C34.5904 84.1963 34.5415 84.0071 34.5415 83.7363V83.3514C34.5415 83.3514 34.548 83.3384 34.548 83.3286C34.548 83.3253 34.5415 83.3221 34.5415 83.3155V81.4007C34.5415 81.2768 34.5317 81.1659 34.5186 81.0517C34.5252 81.0386 34.5317 81.0288 34.5382 81.0191C34.5839 80.931 34.6295 80.8462 34.698 80.7646C35.0177 80.3797 35.4059 80.184 35.8658 80.1807C35.9278 80.1807 35.9865 80.1938 36.0485 80.2003C36.1594 80.2492 36.2508 80.3177 36.3225 80.4156C36.4693 80.6048 36.5411 80.8951 36.5411 81.2898V83.7363C36.5411 83.8375 36.528 83.919 36.515 83.9973C36.4922 84.1278 36.4595 84.2354 36.4008 84.3007C36.3062 84.4051 36.1333 84.4605 35.8822 84.467V84.8617C36.0126 84.8552 36.2018 84.8454 36.4563 84.8356C36.7107 84.8259 36.9847 84.8193 37.2848 84.8193C37.4871 84.8193 37.6991 84.8226 37.9144 84.8291C38.133 84.8356 38.3319 84.8422 38.5179 84.8454C38.7038 84.8487 38.8473 84.8552 38.9485 84.8617V84.467C38.5636 84.4605 38.2993 84.4051 38.1558 84.3007H38.1525Z" fill="black"/>
<path d="M47.6322 80.3145C47.1951 79.7959 46.6699 79.5382 46.0631 79.5479C45.4368 79.5577 44.9084 79.8317 44.4778 80.3635C44.3799 80.4841 44.3016 80.6114 44.2364 80.7451V76.6643C44.0244 76.7132 43.783 76.7491 43.5155 76.772C43.248 76.7948 42.9609 76.8078 42.651 76.8078C42.514 76.8078 42.3672 76.8046 42.2139 76.798C42.0606 76.7915 41.9203 76.785 41.7964 76.7785V77.1797C42.1878 77.1928 42.4553 77.271 42.5988 77.4113C42.7424 77.5516 42.8141 77.7767 42.8141 78.0833V83.4885C42.8141 83.6614 42.8044 83.8082 42.7848 83.9354C42.7652 84.0626 42.7293 84.1735 42.6869 84.2681C42.6413 84.3627 42.576 84.454 42.4879 84.5356L42.7554 84.8748C42.899 84.7737 43.049 84.6759 43.2088 84.5878C43.3654 84.4997 43.5351 84.4312 43.7177 84.3888C43.9004 84.3431 44.0733 84.317 44.2364 84.3105V83.7331C44.3147 83.8962 44.4125 84.0528 44.5398 84.1996C44.9867 84.7215 45.5249 84.976 46.1512 84.9662C46.7579 84.9564 47.2733 84.6856 47.6941 84.1507C48.1149 83.619 48.2128 83.009 48.1998 82.2685C48.1867 81.5052 48.0693 80.8332 47.6322 80.3145ZM47.2766 83.6614C46.9634 84.0593 46.5818 84.2583 46.1316 84.2681C45.6684 84.2746 45.2705 84.0854 44.9377 83.7005C44.605 83.3156 44.5495 82.8556 44.5398 82.3076C44.53 81.74 44.5724 81.2507 44.8921 80.8528C45.2117 80.4581 45.6032 80.2558 46.0664 80.246C46.5165 80.2395 46.9047 80.4287 47.2309 80.8136C47.5571 81.1985 47.6159 81.7042 47.6256 82.2717C47.6354 82.8198 47.5898 83.2634 47.2766 83.6614Z" fill="black"/>
<path d="M57.3954 81.2769H57.3628C57.3628 81.2769 57.3628 81.2964 57.3661 81.3062C57.3758 81.2997 57.3856 81.2866 57.3954 81.2769Z" fill="black"/>
<path d="M58.537 80.7711C58.4229 80.5624 58.2761 80.3928 58.1064 80.2427C57.8292 79.9948 57.4899 79.8186 57.0691 79.7338C56.8506 79.6882 56.6353 79.6849 56.42 79.7077C56.1394 79.7371 55.8622 79.8219 55.5816 79.9393V79.4924C55.1673 79.5903 54.6617 79.6392 54.068 79.6392C53.9017 79.6392 53.7484 79.636 53.6048 79.6294C53.4613 79.6229 53.3047 79.6164 53.1318 79.6099V80.0144C53.507 80.0274 53.7679 80.1057 53.9212 80.2427C53.9506 80.2688 53.9734 80.3014 53.9963 80.334C54.0974 80.4743 54.1496 80.67 54.1496 80.9277V83.8211C54.1496 84.0984 54.0778 84.2909 53.9376 84.3985C53.7973 84.5062 53.5265 84.5616 53.1318 84.5682V84.9726C53.2982 84.9661 53.5461 84.9563 53.8756 84.9466C54.205 84.9368 54.5443 84.9302 54.8966 84.9302C55.1445 84.9302 55.4022 84.9335 55.6632 84.94C55.9274 84.9466 56.172 84.9531 56.4069 84.9563C56.6385 84.9596 56.8245 84.9661 56.9615 84.9726V84.5682C56.4428 84.5616 56.084 84.4964 55.8817 84.3724C55.7317 84.2811 55.6371 84.1376 55.6012 83.9484C55.5881 83.8831 55.5816 83.8146 55.5816 83.7396V80.582C55.823 80.4645 56.0579 80.3764 56.296 80.3373C56.4689 80.3079 56.6418 80.2982 56.8212 80.334C56.8342 80.334 56.8473 80.3438 56.8603 80.3471C57.3399 80.4547 57.6922 80.7059 57.9107 81.1071C57.9368 81.1561 57.9531 81.205 57.9694 81.2539C57.9792 81.2539 57.9923 81.2474 58.0021 81.2474C58.2206 81.1952 58.4392 81.143 58.661 81.0908C58.6251 80.9864 58.5892 80.8821 58.537 80.7809V80.7711Z" fill="black"/>
<path d="M57.9499 81.4007C57.9499 81.4007 57.9695 81.3811 57.9792 81.3713H57.9434C57.9434 81.3713 57.9434 81.3909 57.9466 81.4007H57.9499Z" fill="black"/>
<path d="M64.7088 79.7142C64.5718 79.587 64.3793 79.5217 64.1347 79.5217C63.8704 79.5217 63.616 79.5935 63.3648 79.7403C63.2148 79.8284 63.0876 79.9295 62.9734 80.0469C62.9375 80.0143 62.9016 79.9817 62.8625 79.9523C62.4808 79.6653 61.9491 79.5217 61.2673 79.5217C60.5856 79.5217 60.0571 79.6685 59.6657 79.9588C59.2742 80.2492 59.0785 80.6634 59.0785 81.2049C59.0785 81.7464 59.2742 82.1411 59.6657 82.4315C59.9006 82.6044 60.1909 82.7185 60.5269 82.7903C60.2039 82.9664 59.9625 83.1491 59.8027 83.3383C59.6559 83.5145 59.5776 83.7069 59.5613 83.9124C59.2873 84.069 59.0492 84.2712 58.8567 84.5453C58.4653 85.0965 58.3478 85.6707 58.5077 86.2676C58.661 86.8483 59.0426 87.2756 59.6559 87.5496C60.2659 87.8269 60.8726 87.7747 61.5772 87.5855C62.3047 87.393 62.9179 87.119 63.3126 86.5775C63.7041 86.036 63.8248 85.4717 63.6715 84.8943C63.5116 84.2973 63.1234 83.857 62.5134 83.5732C61.9198 83.2992 61.2902 83.3514 60.5921 83.5308C60.5562 83.4786 60.5366 83.4166 60.5366 83.3448C60.5366 83.2437 60.5627 83.1524 60.6182 83.0708C60.6671 82.9991 60.7487 82.924 60.8629 82.8457C60.9933 82.8588 61.1238 82.8686 61.2673 82.8686C61.9491 82.8686 62.4808 82.725 62.8625 82.438C63.2441 82.1509 63.4366 81.7399 63.4366 81.2082C63.4366 80.8494 63.355 80.5493 63.1919 80.3046C63.2735 80.2231 63.355 80.1643 63.4333 80.1187C63.5116 80.0763 63.5736 80.0534 63.6193 80.0534C63.7073 80.0534 63.7693 80.0958 63.8052 80.1839C63.8411 80.272 63.8802 80.3731 63.9161 80.4873C63.9553 80.6015 64.0075 80.7026 64.0792 80.7907C64.151 80.8787 64.2554 80.9211 64.3989 80.9211C64.5555 80.9211 64.6794 80.8592 64.774 80.7319C64.8686 80.608 64.9143 80.4481 64.9143 80.2492C64.9143 80.0208 64.8458 79.8414 64.7055 79.7109L64.7088 79.7142ZM62.1448 84.0821C62.5983 84.2941 62.8853 84.6203 63.0027 85.0607C63.1169 85.4913 63.0288 85.9055 62.7353 86.31C62.4417 86.7113 61.9752 86.8907 61.4337 87.0342C60.9118 87.1745 60.4747 87.2364 60.0212 87.0342C59.5678 86.8287 59.284 86.5123 59.1699 86.0817C59.0524 85.638 59.1372 85.214 59.4276 84.803C59.7179 84.3952 60.1419 84.2288 60.6639 84.0918C61.2054 83.9483 61.6816 83.87 62.1383 84.0821H62.1448ZM61.9426 82.1607C61.8023 82.3727 61.5805 82.4804 61.2673 82.4804C60.9901 82.4804 60.778 82.3727 60.628 82.1607C60.4779 81.9487 60.4062 81.629 60.4062 81.2017C60.4062 80.7743 60.4812 80.4253 60.628 80.2133C60.7748 80.0012 60.9933 79.8936 61.2771 79.8936C61.5805 79.8936 61.8023 80.0012 61.9393 80.2133C62.0763 80.4253 62.1481 80.7548 62.1481 81.2017C62.1481 81.6486 62.0796 81.9454 61.9393 82.1607H61.9426Z" fill="black"/>
<path d="M69.6474 83.2603C69.468 83.6028 69.2462 83.8539 68.9885 84.0138C68.7307 84.1736 68.4209 84.2552 68.0588 84.2552C67.5499 84.2552 67.1584 84.0692 66.8877 83.6941C66.6235 83.332 66.4897 82.8231 66.4832 82.174C66.506 82.1936 66.5224 82.2131 66.5452 82.2327C66.9366 82.5426 67.3868 82.6144 67.9283 82.6046C68.4894 82.5948 68.9819 82.51 69.3668 82.187C69.4484 82.1185 69.5136 82.0468 69.5756 81.975C69.7811 81.7336 69.892 81.4629 69.9149 81.166C69.9181 81.1204 69.9279 81.0812 69.9279 81.0355C69.9214 80.5756 69.7191 80.1874 69.3277 79.871C68.933 79.5546 68.4502 79.4861 67.8891 79.4926C67.8533 79.4926 67.8239 79.4959 67.788 79.4991C67.7619 79.4991 67.7391 79.4959 67.713 79.4959C67.1715 79.4959 66.7018 79.6035 66.3005 79.8221C65.9026 80.0406 65.5894 80.3538 65.3611 80.7615C65.1327 81.1693 65.0186 81.6651 65.0186 82.249C65.0186 82.8329 65.1262 83.3059 65.335 83.7169C65.547 84.1247 65.8438 84.4378 66.2288 84.6499C66.6137 84.8652 67.0704 84.9728 67.5988 84.9728C68.1632 84.9728 68.6492 84.8456 69.0667 84.5912C69.481 84.3367 69.7909 83.9714 69.9899 83.4951L69.6376 83.2635L69.6474 83.2603ZM67.9283 82.1805C67.5597 82.187 67.2596 82.1512 66.9856 81.975C66.9595 81.9587 66.9301 81.9456 66.9073 81.9261C66.7735 81.8184 66.6724 81.701 66.5974 81.5738C66.5615 81.5118 66.5354 81.4466 66.5126 81.3813C66.5745 80.9246 66.6952 80.5658 66.8812 80.3179C66.9758 80.1939 67.0802 80.0993 67.1878 80.0276C67.3998 79.946 67.6347 79.9199 67.8989 79.9167C68.3165 79.9101 68.6753 79.9395 68.9689 80.1744C69.2592 80.4092 69.4093 80.6963 69.4158 81.0388C69.4223 81.3715 69.282 81.6553 68.9982 81.8935C68.9591 81.9261 68.9102 81.9489 68.8678 81.975C68.6035 82.1348 68.2838 82.1773 67.925 82.1805H67.9283Z" fill="black"/>
<path d="M27.6258 82.2164C27.5736 82.1642 27.5116 82.1185 27.4464 82.0729C27.1789 81.8772 26.8103 81.7141 26.3275 81.5868C25.7893 81.4433 25.4207 81.2965 25.2151 81.1432C25.0162 80.9964 24.9183 80.8137 24.9118 80.5984C24.9118 80.5919 24.9118 80.5854 24.9118 80.5821C24.9118 80.3668 24.9868 80.1939 25.1369 80.07C25.2869 79.946 25.5022 79.8841 25.786 79.8841C26.1905 79.8841 26.5395 80.0047 26.8266 80.2494C27.1169 80.4908 27.3192 80.8366 27.4366 81.2835H27.8215C27.8182 81.1465 27.815 81.0225 27.815 80.9051C27.815 80.7779 27.815 80.6604 27.815 80.5528C27.815 80.3473 27.815 80.1646 27.8248 80.0113C27.8313 79.858 27.8476 79.7046 27.8737 79.5546H27.4823C27.4431 79.6655 27.4007 79.7438 27.3583 79.7895C27.3159 79.8351 27.2572 79.858 27.1854 79.858C27.1136 79.858 27.0321 79.8384 26.944 79.809C26.6276 79.6035 26.2786 79.4893 25.8936 79.4959C25.848 79.4959 25.8056 79.5089 25.7599 79.5122C25.1956 79.5579 24.7095 79.8188 24.3116 80.3114C24.1028 80.5723 23.9723 80.8627 23.8973 81.1791C23.9299 81.5281 24.0604 81.825 24.305 82.0696C24.3246 82.0892 24.354 82.1088 24.3768 82.1283C24.6606 82.3828 25.0749 82.5948 25.6327 82.7579C26.1318 82.9014 26.4808 83.0482 26.6798 83.195C26.882 83.3418 26.9799 83.5245 26.9799 83.7398C26.9799 83.9746 26.8918 84.1573 26.7189 84.2813C26.5461 84.4052 26.2981 84.4672 25.9752 84.4672C25.5087 84.4672 25.1238 84.3269 24.8204 84.0432C24.5138 83.7626 24.2985 83.3549 24.1648 82.8231H23.7798C23.7864 83.1233 23.7896 83.3907 23.7896 83.6256C23.7896 83.8605 23.7896 84.0692 23.7798 84.2552C23.7733 84.4411 23.7635 84.627 23.7505 84.8097H24.1354C24.2137 84.614 24.3344 84.5161 24.4975 84.5161C24.5888 84.5161 24.7063 84.5455 24.8433 84.601C24.8889 84.6205 24.9477 84.6401 25.0031 84.6597C25.1075 84.6956 25.2217 84.7347 25.3554 84.7738C25.5577 84.8326 25.8023 84.8619 26.0926 84.8619C26.2198 84.8619 26.3373 84.8521 26.4547 84.8391C26.8592 84.7282 27.218 84.4835 27.5247 84.0921C27.8085 83.7333 27.9357 83.3353 27.9911 82.8916C27.9357 82.6242 27.8182 82.3991 27.6258 82.2131V82.2164Z" fill="black"/>
<path d="M57.3954 78.9248H57.3628C57.3628 78.9248 57.3628 78.9444 57.3661 78.9542C57.3758 78.9476 57.3856 78.9346 57.3954 78.9248Z" fill="black"/>
<path d="M13.7102 84.1179C13.5635 83.9777 13.4917 83.7591 13.4917 83.4623V79.4761C13.2862 79.5217 13.0644 79.5576 12.8262 79.5805C12.5881 79.6033 12.3271 79.6163 12.0433 79.6163C11.8966 79.6163 11.7596 79.6131 11.6291 79.6066C11.4986 79.6 11.3779 79.5935 11.2572 79.587V79.9752C11.5769 79.9882 11.7954 80.06 11.9227 80.1839C12.0466 80.3112 12.1118 80.5297 12.1118 80.8396V83.3253C12.0792 83.5243 12.0173 83.7069 11.89 83.8733C11.678 84.1506 11.4138 84.2941 11.1006 84.3039C10.7777 84.3137 10.5004 84.1865 10.2655 83.919C9.97848 83.5928 9.96217 83.1557 9.95564 82.9534C9.9165 81.7008 10.1057 79.5707 10.1155 79.4761C9.89693 79.5217 9.66206 79.5576 9.41415 79.5805C9.16623 79.6033 8.89222 79.6163 8.59538 79.6163C8.44206 79.6163 8.29527 79.6131 8.15174 79.6066C8.00821 79.6 7.8712 79.5935 7.74072 79.587V79.9752C8.09628 79.9882 8.35399 80.06 8.5073 80.1839C8.66062 80.3112 8.73564 80.533 8.73564 80.8494V82.9469C8.73564 83.5765 8.87917 84.0527 9.16949 84.3789C9.45655 84.7051 9.87409 84.865 10.4156 84.865C10.807 84.865 11.1561 84.7801 11.466 84.6105C11.7498 84.4572 11.9618 84.2321 12.1184 83.9581V84.8323C12.3435 84.7867 12.5816 84.7508 12.8295 84.7279C13.0774 84.7051 13.3449 84.6921 13.6287 84.6921C13.782 84.6921 13.9321 84.6921 14.0756 84.6953C14.2224 84.6986 14.3561 84.7084 14.4833 84.7214V84.3332C14.118 84.3267 13.8636 84.255 13.7168 84.1147L13.7102 84.1179Z" fill="black"/>
</svg>
